G04 Layer_Color=65535*
%FSLAX25Y25*%
%MOIN*%
G70*
G01*
G75*
%ADD15C,0.01000*%
%ADD38C,0.00787*%
%ADD39C,0.00500*%
%ADD40C,0.00591*%
D15*
X448500Y420000D02*
G03*
X453500Y420000I2500J0D01*
G01*
X271500Y410000D02*
G03*
X276500Y410000I2500J0D01*
G01*
X197541Y411000D02*
G03*
X197541Y411000I-3041J0D01*
G01*
X296041Y422500D02*
G03*
X296041Y422500I-3041J0D01*
G01*
X548041Y375000D02*
G03*
X548041Y375000I-3041J0D01*
G01*
X441000Y380000D02*
Y420000D01*
Y380000D02*
X461000D01*
Y420000D01*
X453500D02*
X461000D01*
X441000D02*
X448500D01*
X284000Y370000D02*
Y410000D01*
X264000Y370000D02*
X284000D01*
X264000D02*
Y410000D01*
X271500D01*
X276500D02*
X284000D01*
X356500Y355378D02*
X361378D01*
X366500Y355500D02*
X371878D01*
X163000Y345000D02*
X168000D01*
Y356000D01*
Y368000D02*
Y374500D01*
X106000D02*
X168000D01*
X104000Y372500D02*
X106000Y374500D01*
X104000Y347000D02*
Y372500D01*
Y347000D02*
X106000Y345000D01*
X114500D01*
X124500D02*
X150000D01*
X100496Y433665D02*
Y454236D01*
X139669Y433272D02*
Y454138D01*
X93803Y433272D02*
X139669D01*
X93803Y433370D02*
Y454236D01*
X139669D01*
X614933Y384764D02*
Y405335D01*
X575760Y384862D02*
Y405728D01*
X621626D01*
Y384764D02*
Y405630D01*
X575760Y384764D02*
X621626D01*
X356500Y395378D02*
X361378D01*
X366500Y395500D02*
X371878D01*
X614433Y424764D02*
Y445335D01*
X575260Y424862D02*
Y445728D01*
X621126D01*
Y424764D02*
Y445630D01*
X575260Y424764D02*
X621126D01*
X188587Y459500D02*
Y484500D01*
Y459500D02*
X255587D01*
Y484500D01*
X188587D02*
X255587D01*
X268043Y461500D02*
Y486500D01*
Y461500D02*
X335043D01*
Y486500D01*
X268043D02*
X335043D01*
X350087Y461500D02*
Y486500D01*
Y461500D02*
X417087D01*
Y486500D01*
X350087D02*
X417087D01*
X433043Y461000D02*
Y486000D01*
Y461000D02*
X500043D01*
Y486000D01*
X433043D02*
X500043D01*
X428750Y430250D02*
Y436248D01*
X430749Y434249D01*
X432749Y436248D01*
Y430250D01*
X434748Y436248D02*
X436747D01*
X435748D01*
Y430250D01*
X434748D01*
X436747D01*
X443745Y435248D02*
X442745Y436248D01*
X440746D01*
X439746Y435248D01*
Y431250D01*
X440746Y430250D01*
X442745D01*
X443745Y431250D01*
X448743Y430250D02*
Y436248D01*
X445745Y433249D01*
X449743D01*
X454742Y430250D02*
Y436248D01*
X451743Y433249D01*
X455741D01*
X461739Y436248D02*
X457741D01*
Y433249D01*
X459740Y434249D01*
X460740D01*
X461739Y433249D01*
Y431250D01*
X460740Y430250D01*
X458740D01*
X457741Y431250D01*
X467737Y430250D02*
X463739D01*
X467737Y434249D01*
Y435248D01*
X466738Y436248D01*
X464738D01*
X463739Y435248D01*
X469737Y436248D02*
Y435248D01*
X471736Y433249D01*
X473736Y435248D01*
Y436248D01*
X471736Y433249D02*
Y430250D01*
X475735D02*
Y436248D01*
X479734Y430250D01*
Y436248D01*
X265000Y420998D02*
Y416000D01*
X266000Y415000D01*
X267999D01*
X268999Y416000D01*
Y420998D01*
X274997D02*
X270998D01*
Y417999D01*
X272997Y418999D01*
X273997D01*
X274997Y417999D01*
Y416000D01*
X273997Y415000D01*
X271998D01*
X270998Y416000D01*
X352600Y388398D02*
Y383400D01*
X353600Y382400D01*
X355599D01*
X356599Y383400D01*
Y388398D01*
X358598Y387398D02*
X359598Y388398D01*
X361597D01*
X362597Y387398D01*
Y386399D01*
X361597Y385399D01*
X360597D01*
X361597D01*
X362597Y384399D01*
Y383400D01*
X361597Y382400D01*
X359598D01*
X358598Y383400D01*
X478650Y270350D02*
Y276348D01*
X481649D01*
X482649Y275348D01*
Y273349D01*
X481649Y272349D01*
X478650D01*
X487647Y276348D02*
X485648D01*
X484648Y275348D01*
Y271350D01*
X485648Y270350D01*
X487647D01*
X488647Y271350D01*
Y275348D01*
X487647Y276348D01*
X490646D02*
X494645D01*
X492646D01*
Y270350D01*
X496644Y275348D02*
X497644Y276348D01*
X499643D01*
X500643Y275348D01*
Y274349D01*
X499643Y273349D01*
X498643D01*
X499643D01*
X500643Y272349D01*
Y271350D01*
X499643Y270350D01*
X497644D01*
X496644Y271350D01*
X158650Y265350D02*
Y271348D01*
X161649D01*
X162649Y270348D01*
Y268349D01*
X161649Y267349D01*
X158650D01*
X167647Y271348D02*
X165648D01*
X164648Y270348D01*
Y266350D01*
X165648Y265350D01*
X167647D01*
X168647Y266350D01*
Y270348D01*
X167647Y271348D01*
X170646D02*
X174645D01*
X172645D01*
Y265350D01*
X180643D02*
X176644D01*
X180643Y269349D01*
Y270348D01*
X179643Y271348D01*
X177644D01*
X176644Y270348D01*
X449291Y270350D02*
Y276348D01*
X452290D01*
X453290Y275348D01*
Y273349D01*
X452290Y272349D01*
X449291D01*
X458288Y276348D02*
X456289D01*
X455289Y275348D01*
Y271350D01*
X456289Y270350D01*
X458288D01*
X459288Y271350D01*
Y275348D01*
X458288Y276348D01*
X461287D02*
X465286D01*
X463287D01*
Y270350D01*
X467285D02*
X469285D01*
X468285D01*
Y276348D01*
X467285Y275348D01*
X169000Y321000D02*
X163002D01*
Y323999D01*
X164002Y324999D01*
X166001D01*
X167001Y323999D01*
Y321000D01*
Y322999D02*
X169000Y324999D01*
X168000Y326998D02*
X169000Y327998D01*
Y329997D01*
X168000Y330997D01*
X164002D01*
X163002Y329997D01*
Y327998D01*
X164002Y326998D01*
X165001D01*
X166001Y327998D01*
Y330997D01*
X141002Y302500D02*
X147000D01*
Y305499D01*
X146000Y306499D01*
X142002D01*
X141002Y305499D01*
Y302500D01*
X147000Y308498D02*
Y310497D01*
Y309498D01*
X141002D01*
X142002Y308498D01*
X387562Y254498D02*
X386562Y255498D01*
X384563D01*
X383563Y254498D01*
Y250500D01*
X384563Y249500D01*
X386562D01*
X387562Y250500D01*
X389561Y255498D02*
X393560D01*
Y254498D01*
X389561Y250500D01*
Y249500D01*
X246499Y354998D02*
X245499Y355998D01*
X243500D01*
X242500Y354998D01*
Y351000D01*
X243500Y350000D01*
X245499D01*
X246499Y351000D01*
X248498Y354998D02*
X249498Y355998D01*
X251497D01*
X252497Y354998D01*
Y353999D01*
X251497Y352999D01*
X252497Y351999D01*
Y351000D01*
X251497Y350000D01*
X249498D01*
X248498Y351000D01*
Y351999D01*
X249498Y352999D01*
X248498Y353999D01*
Y354998D01*
X249498Y352999D02*
X251497D01*
X184814Y339498D02*
X183814Y340498D01*
X181815D01*
X180815Y339498D01*
Y335500D01*
X181815Y334500D01*
X183814D01*
X184814Y335500D01*
X186813D02*
X187813Y334500D01*
X189812D01*
X190812Y335500D01*
Y339498D01*
X189812Y340498D01*
X187813D01*
X186813Y339498D01*
Y338499D01*
X187813Y337499D01*
X190812D01*
X110799Y426798D02*
X106800D01*
Y423799D01*
X108799D01*
X106800D01*
Y420800D01*
X112798D02*
X114797D01*
X113798D01*
Y426798D01*
X112798Y425798D01*
X137929Y458500D02*
Y464498D01*
X139928Y462499D01*
X141928Y464498D01*
Y458500D01*
X144927Y462499D02*
X146926D01*
X147926Y461499D01*
Y458500D01*
X144927D01*
X143927Y459500D01*
X144927Y460499D01*
X147926D01*
X149925Y458500D02*
X151925D01*
X150925D01*
Y462499D01*
X149925D01*
X154924Y458500D02*
Y462499D01*
X157923D01*
X158922Y461499D01*
Y458500D01*
X166920Y464498D02*
X168919D01*
X167919D01*
Y458500D01*
X166920D01*
X168919D01*
X171918D02*
Y462499D01*
X174917D01*
X175917Y461499D01*
Y458500D01*
X540929Y420498D02*
X544928D01*
X542929D01*
Y414500D01*
X550926Y419498D02*
X549926Y420498D01*
X547927D01*
X546927Y419498D01*
Y415500D01*
X547927Y414500D01*
X549926D01*
X550926Y415500D01*
X558923Y420498D02*
X560923D01*
X559923D01*
Y414500D01*
X558923D01*
X560923D01*
X563922D02*
Y418499D01*
X566921D01*
X567920Y417499D01*
Y414500D01*
X529002Y437499D02*
Y435499D01*
Y436499D01*
X534000D01*
X535000Y435499D01*
Y434500D01*
X534000Y433500D01*
X530002Y439498D02*
X529002Y440498D01*
Y442497D01*
X530002Y443497D01*
X531001D01*
X532001Y442497D01*
Y441497D01*
Y442497D01*
X533001Y443497D01*
X534000D01*
X535000Y442497D01*
Y440498D01*
X534000Y439498D01*
X305000Y335998D02*
Y330000D01*
X308999D01*
X310998D02*
X312997D01*
X311998D01*
Y335998D01*
X310998Y334998D01*
X389600Y355400D02*
Y361398D01*
X392599D01*
X393599Y360398D01*
Y358399D01*
X392599Y357399D01*
X389600D01*
X391599D02*
X393599Y355400D01*
X395598D02*
X397597D01*
X396598D01*
Y361398D01*
X395598Y360398D01*
X330550Y417450D02*
Y423448D01*
X333549D01*
X334549Y422448D01*
Y420449D01*
X333549Y419449D01*
X330550D01*
X332549D02*
X334549Y417450D01*
X340547D02*
X336548D01*
X340547Y421449D01*
Y422448D01*
X339547Y423448D01*
X337548D01*
X336548Y422448D01*
X301600Y358900D02*
Y364898D01*
X304599D01*
X305599Y363898D01*
Y361899D01*
X304599Y360899D01*
X301600D01*
X303599D02*
X305599Y358900D01*
X307598Y363898D02*
X308598Y364898D01*
X310597D01*
X311597Y363898D01*
Y362899D01*
X310597Y361899D01*
X309597D01*
X310597D01*
X311597Y360899D01*
Y359900D01*
X310597Y358900D01*
X308598D01*
X307598Y359900D01*
X310050Y417450D02*
Y423448D01*
X313049D01*
X314049Y422448D01*
Y420449D01*
X313049Y419449D01*
X310050D01*
X312049D02*
X314049Y417450D01*
X319047D02*
Y423448D01*
X316048Y420449D01*
X320047D01*
X389600Y416900D02*
Y422898D01*
X392599D01*
X393599Y421898D01*
Y419899D01*
X392599Y418899D01*
X389600D01*
X391599D02*
X393599Y416900D01*
X399597Y422898D02*
X395598D01*
Y419899D01*
X397597Y420899D01*
X398597D01*
X399597Y419899D01*
Y417900D01*
X398597Y416900D01*
X396598D01*
X395598Y417900D01*
X481600Y423900D02*
Y429898D01*
X484599D01*
X485599Y428898D01*
Y426899D01*
X484599Y425899D01*
X481600D01*
X483599D02*
X485599Y423900D01*
X491597Y429898D02*
X489597Y428898D01*
X487598Y426899D01*
Y424900D01*
X488598Y423900D01*
X490597D01*
X491597Y424900D01*
Y425899D01*
X490597Y426899D01*
X487598D01*
X231600Y417400D02*
Y423398D01*
X234599D01*
X235599Y422398D01*
Y420399D01*
X234599Y419399D01*
X231600D01*
X233599D02*
X235599Y417400D01*
X237598Y423398D02*
X241597D01*
Y422398D01*
X237598Y418400D01*
Y417400D01*
X550000Y370998D02*
X553999D01*
X551999D01*
Y365000D01*
X555998D02*
Y370998D01*
X558997D01*
X559997Y369998D01*
Y367999D01*
X558997Y366999D01*
X555998D01*
X561996Y365000D02*
X563996D01*
X562996D01*
Y370998D01*
X561996Y369998D01*
X188500Y423498D02*
X192499D01*
X190499D01*
Y417500D01*
X194498D02*
Y423498D01*
X197497D01*
X198497Y422498D01*
Y420499D01*
X197497Y419499D01*
X194498D01*
X204495Y417500D02*
X200496D01*
X204495Y421499D01*
Y422498D01*
X203495Y423498D01*
X201496D01*
X200496Y422498D01*
X290450Y435048D02*
X294449D01*
X292449D01*
Y429050D01*
X296448D02*
Y435048D01*
X299447D01*
X300447Y434048D01*
Y432049D01*
X299447Y431049D01*
X296448D01*
X302446Y434048D02*
X303446Y435048D01*
X305445D01*
X306445Y434048D01*
Y433049D01*
X305445Y432049D01*
X304446D01*
X305445D01*
X306445Y431049D01*
Y430050D01*
X305445Y429050D01*
X303446D01*
X302446Y430050D01*
X492900Y397898D02*
Y392900D01*
X493900Y391900D01*
X495899D01*
X496899Y392900D01*
Y397898D01*
X498898Y391900D02*
X500897D01*
X499898D01*
Y397898D01*
X498898Y396898D01*
X352600Y428398D02*
Y423400D01*
X353600Y422400D01*
X355599D01*
X356599Y423400D01*
Y428398D01*
X362597Y422400D02*
X358598D01*
X362597Y426399D01*
Y427398D01*
X361597Y428398D01*
X359598D01*
X358598Y427398D01*
X211100Y417400D02*
Y423398D01*
X214099D01*
X215099Y422398D01*
Y420399D01*
X214099Y419399D01*
X211100D01*
X213099D02*
X215099Y417400D01*
X217098Y422398D02*
X218098Y423398D01*
X220097D01*
X221097Y422398D01*
Y421399D01*
X220097Y420399D01*
X221097Y419399D01*
Y418400D01*
X220097Y417400D01*
X218098D01*
X217098Y418400D01*
Y419399D01*
X218098Y420399D01*
X217098Y421399D01*
Y422398D01*
X218098Y420399D02*
X220097D01*
X109499Y384498D02*
X108499Y385498D01*
X106500D01*
X105500Y384498D01*
Y380500D01*
X106500Y379500D01*
X108499D01*
X109499Y380500D01*
X112498Y379500D02*
X114497D01*
X115497Y380500D01*
Y382499D01*
X114497Y383499D01*
X112498D01*
X111498Y382499D01*
Y380500D01*
X112498Y379500D01*
X117496D02*
Y383499D01*
X118496D01*
X119495Y382499D01*
Y379500D01*
Y382499D01*
X120495Y383499D01*
X121495Y382499D01*
Y379500D01*
X123494Y377501D02*
Y383499D01*
X126493D01*
X127493Y382499D01*
Y380500D01*
X126493Y379500D01*
X123494D01*
X130492D02*
X132491D01*
X133491Y380500D01*
Y382499D01*
X132491Y383499D01*
X130492D01*
X129492Y382499D01*
Y380500D01*
X130492Y379500D01*
X135490D02*
Y383499D01*
X138489D01*
X139489Y382499D01*
Y379500D01*
X144487D02*
X142488D01*
X141488Y380500D01*
Y382499D01*
X142488Y383499D01*
X144487D01*
X145487Y382499D01*
Y381499D01*
X141488D01*
X147486Y379500D02*
Y383499D01*
X150485D01*
X151485Y382499D01*
Y379500D01*
X154484Y384498D02*
Y383499D01*
X153484D01*
X155484D01*
X154484D01*
Y380500D01*
X155484Y379500D01*
X158483Y378500D02*
X162482D01*
X164481Y379500D02*
X166480D01*
X165481D01*
Y385498D01*
X164481Y384498D01*
X535999Y348498D02*
X534999Y349498D01*
X533000D01*
X532000Y348498D01*
Y344500D01*
X533000Y343500D01*
X534999D01*
X535999Y344500D01*
X537998Y348498D02*
X538998Y349498D01*
X540997D01*
X541997Y348498D01*
Y347499D01*
X540997Y346499D01*
X539997D01*
X540997D01*
X541997Y345499D01*
Y344500D01*
X540997Y343500D01*
X538998D01*
X537998Y344500D01*
X308999Y292656D02*
X307999Y293655D01*
X306000D01*
X305000Y292656D01*
Y288657D01*
X306000Y287657D01*
X307999D01*
X308999Y288657D01*
X314997Y287657D02*
X310998D01*
X314997Y291656D01*
Y292656D01*
X313997Y293655D01*
X311998D01*
X310998Y292656D01*
X261999Y294341D02*
X260999Y295341D01*
X259000D01*
X258000Y294341D01*
Y290342D01*
X259000Y289342D01*
X260999D01*
X261999Y290342D01*
X263998Y289342D02*
X265997D01*
X264998D01*
Y295341D01*
X263998Y294341D01*
X213999Y294498D02*
X212999Y295498D01*
X211000D01*
X210000Y294498D01*
Y290500D01*
X211000Y289500D01*
X212999D01*
X213999Y290500D01*
X219997Y295498D02*
X217997Y294498D01*
X215998Y292499D01*
Y290500D01*
X216998Y289500D01*
X218997D01*
X219997Y290500D01*
Y291499D01*
X218997Y292499D01*
X215998D01*
X467684Y348183D02*
X466684Y349183D01*
X464685D01*
X463685Y348183D01*
Y344185D01*
X464685Y343185D01*
X466684D01*
X467684Y344185D01*
X473682Y349183D02*
X469683D01*
Y346184D01*
X471682Y347184D01*
X472682D01*
X473682Y346184D01*
Y344185D01*
X472682Y343185D01*
X470683D01*
X469683Y344185D01*
X353499Y291998D02*
X352499Y292998D01*
X350500D01*
X349500Y291998D01*
Y288000D01*
X350500Y287000D01*
X352499D01*
X353499Y288000D01*
X358497Y287000D02*
Y292998D01*
X355498Y289999D01*
X359497D01*
X498332Y239998D02*
X496666D01*
X497499D01*
Y235833D01*
X496666Y235000D01*
X495833D01*
X495000Y235833D01*
X500831Y238332D02*
X502498D01*
X503331Y237499D01*
Y235000D01*
X500831D01*
X499998Y235833D01*
X500831Y236666D01*
X503331D01*
X504997Y235000D02*
X507496D01*
X508329Y235833D01*
X507496Y236666D01*
X505830D01*
X504997Y237499D01*
X505830Y238332D01*
X508329D01*
X510828Y235000D02*
X512494D01*
X513327Y235833D01*
Y237499D01*
X512494Y238332D01*
X510828D01*
X509995Y237499D01*
Y235833D01*
X510828Y235000D01*
X514993D02*
Y238332D01*
X517493D01*
X518326Y237499D01*
Y235000D01*
X520825Y234167D02*
X521658Y235000D01*
Y235833D01*
X520825D01*
Y235000D01*
X521658D01*
X520825Y234167D01*
X519992Y233334D01*
X524990Y239998D02*
X528323D01*
Y239165D01*
X524990Y235833D01*
Y235000D01*
X528323D01*
X530822Y238332D02*
X532488D01*
X533321Y237499D01*
Y235000D01*
X530822D01*
X529989Y235833D01*
X530822Y236666D01*
X533321D01*
X538319Y238332D02*
X535820D01*
X534987Y237499D01*
Y235833D01*
X535820Y235000D01*
X538319D01*
X539985D02*
Y239998D01*
Y236666D02*
X542485Y238332D01*
X539985Y236666D02*
X542485Y235000D01*
X545817Y234167D02*
X546650Y235000D01*
Y235833D01*
X545817D01*
Y235000D01*
X546650D01*
X545817Y234167D01*
X544984Y233334D01*
X549982Y239998D02*
Y235000D01*
Y237499D01*
X553314D01*
Y239998D01*
Y235000D01*
X555814Y238332D02*
X557480D01*
X558313Y237499D01*
Y235000D01*
X555814D01*
X554981Y235833D01*
X555814Y236666D01*
X558313D01*
X559979Y238332D02*
Y235000D01*
Y236666D01*
X560812Y237499D01*
X561645Y238332D01*
X562478D01*
X567477Y235000D02*
X565810D01*
X564977Y235833D01*
Y237499D01*
X565810Y238332D01*
X567477D01*
X568310Y237499D01*
Y236666D01*
X564977D01*
X569976Y235000D02*
X571642D01*
X570809D01*
Y239998D01*
X569976D01*
X498332Y249998D02*
X495000D01*
Y245000D01*
X498332D01*
X495000Y247499D02*
X496666D01*
X503331Y249998D02*
X499998D01*
Y245000D01*
X503331D01*
X499998Y247499D02*
X501664D01*
X509995Y245000D02*
X511661D01*
X510828D01*
Y249998D01*
X509995Y249165D01*
X514160D02*
X514993Y249998D01*
X516660D01*
X517493Y249165D01*
Y248332D01*
X516660Y247499D01*
X517493Y246666D01*
Y245833D01*
X516660Y245000D01*
X514993D01*
X514160Y245833D01*
Y246666D01*
X514993Y247499D01*
X514160Y248332D01*
Y249165D01*
X514993Y247499D02*
X516660D01*
X522491Y249998D02*
X520825Y249165D01*
X519159Y247499D01*
Y245833D01*
X519992Y245000D01*
X521658D01*
X522491Y245833D01*
Y246666D01*
X521658Y247499D01*
X519159D01*
X495000Y259998D02*
X498332D01*
X496666D01*
Y255000D01*
X502498D02*
X500831D01*
X499998Y255833D01*
Y257499D01*
X500831Y258332D01*
X502498D01*
X503331Y257499D01*
Y256666D01*
X499998D01*
X504997Y255000D02*
X507496D01*
X508329Y255833D01*
X507496Y256666D01*
X505830D01*
X504997Y257499D01*
X505830Y258332D01*
X508329D01*
X509995Y255000D02*
X511661D01*
X510828D01*
Y259998D01*
X509995D01*
X514993Y258332D02*
X516660D01*
X517493Y257499D01*
Y255000D01*
X514993D01*
X514160Y255833D01*
X514993Y256666D01*
X517493D01*
X527490Y259165D02*
X526656Y259998D01*
X524990D01*
X524157Y259165D01*
Y255833D01*
X524990Y255000D01*
X526656D01*
X527490Y255833D01*
X529989Y255000D02*
X531655D01*
X532488Y255833D01*
Y257499D01*
X531655Y258332D01*
X529989D01*
X529156Y257499D01*
Y255833D01*
X529989Y255000D01*
X534154D02*
X535820D01*
X534987D01*
Y258332D01*
X534154D01*
X538319Y255000D02*
X539985D01*
X539152D01*
Y259998D01*
X538319D01*
X547483Y255000D02*
Y259998D01*
X549982D01*
X550815Y259165D01*
Y257499D01*
X549982Y256666D01*
X547483D01*
X555814Y259165D02*
X554981Y259998D01*
X553314D01*
X552481Y259165D01*
Y255833D01*
X553314Y255000D01*
X554981D01*
X555814Y255833D01*
X557480Y259998D02*
Y255000D01*
X559979D01*
X560812Y255833D01*
Y256666D01*
X559979Y257499D01*
X557480D01*
X559979D01*
X560812Y258332D01*
Y259165D01*
X559979Y259998D01*
X557480D01*
X567477Y255000D02*
Y259998D01*
X569976D01*
X570809Y259165D01*
Y257499D01*
X569976Y256666D01*
X567477D01*
X569143D02*
X570809Y255000D01*
X574974D02*
X573308D01*
X572475Y255833D01*
Y257499D01*
X573308Y258332D01*
X574974D01*
X575807Y257499D01*
Y256666D01*
X572475D01*
X577473Y258332D02*
X579139Y255000D01*
X580805Y258332D01*
X585804Y255000D02*
X582472D01*
X585804Y258332D01*
Y259165D01*
X584971Y259998D01*
X583305D01*
X582472Y259165D01*
X145595Y433114D02*
Y431115D01*
Y432115D01*
X151593D01*
X150593Y433114D01*
X166244Y430159D02*
Y434158D01*
X170243Y430159D01*
X171242D01*
X172242Y431158D01*
Y433158D01*
X171242Y434158D01*
X569835Y405886D02*
Y407885D01*
Y406885D01*
X563837D01*
X564836Y405886D01*
X549185Y408841D02*
Y404843D01*
X545186Y408841D01*
X544187D01*
X543187Y407842D01*
Y405842D01*
X544187Y404843D01*
X569335Y445886D02*
Y447885D01*
Y446885D01*
X563337D01*
X564336Y445886D01*
X548685Y448841D02*
Y444842D01*
X544686Y448841D01*
X543687D01*
X542687Y447842D01*
Y445842D01*
X543687Y444842D01*
X550000Y454998D02*
X553332D01*
X551666D01*
Y450000D01*
X557498D02*
X555831D01*
X554998Y450833D01*
Y452499D01*
X555831Y453332D01*
X557498D01*
X558331Y452499D01*
Y451666D01*
X554998D01*
X559997Y450000D02*
X562496D01*
X563329Y450833D01*
X562496Y451666D01*
X560830D01*
X559997Y452499D01*
X560830Y453332D01*
X563329D01*
X564995Y450000D02*
X566661D01*
X565828D01*
Y454998D01*
X564995D01*
X569993Y453332D02*
X571660D01*
X572493Y452499D01*
Y450000D01*
X569993D01*
X569161Y450833D01*
X569993Y451666D01*
X572493D01*
X582489Y454165D02*
X581656Y454998D01*
X579990D01*
X579157Y454165D01*
Y450833D01*
X579990Y450000D01*
X581656D01*
X582489Y450833D01*
X584989Y450000D02*
X586655D01*
X587488Y450833D01*
Y452499D01*
X586655Y453332D01*
X584989D01*
X584156Y452499D01*
Y450833D01*
X584989Y450000D01*
X589154D02*
X590820D01*
X589987D01*
Y453332D01*
X589154D01*
X593319Y450000D02*
X594985D01*
X594152D01*
Y454998D01*
X593319D01*
X604982D02*
X603316D01*
X602483Y454165D01*
Y450833D01*
X603316Y450000D01*
X604982D01*
X605815Y450833D01*
Y454165D01*
X604982Y454998D01*
X607481Y453332D02*
Y450833D01*
X608314Y450000D01*
X610814D01*
Y453332D01*
X613313Y454165D02*
Y453332D01*
X612480D01*
X614146D01*
X613313D01*
Y450833D01*
X614146Y450000D01*
X197087Y489500D02*
X199086D01*
X198086D01*
Y495498D01*
X197087Y494498D01*
X225585Y489500D02*
X221587D01*
X225585Y493499D01*
Y494498D01*
X224586Y495498D01*
X222586D01*
X221587Y494498D01*
X242587D02*
X243586Y495498D01*
X245586D01*
X246585Y494498D01*
Y493499D01*
X245586Y492499D01*
X244586D01*
X245586D01*
X246585Y491499D01*
Y490500D01*
X245586Y489500D01*
X243586D01*
X242587Y490500D01*
X276543Y491500D02*
X278543D01*
X277543D01*
Y497498D01*
X276543Y496498D01*
X305042Y491500D02*
X301043D01*
X305042Y495499D01*
Y496498D01*
X304042Y497498D01*
X302043D01*
X301043Y496498D01*
X322043D02*
X323043Y497498D01*
X325042D01*
X326042Y496498D01*
Y495499D01*
X325042Y494499D01*
X324043D01*
X325042D01*
X326042Y493499D01*
Y492500D01*
X325042Y491500D01*
X323043D01*
X322043Y492500D01*
X358587Y491500D02*
X360586D01*
X359586D01*
Y497498D01*
X358587Y496498D01*
X387085Y491500D02*
X383087D01*
X387085Y495499D01*
Y496498D01*
X386086Y497498D01*
X384086D01*
X383087Y496498D01*
X404087D02*
X405086Y497498D01*
X407086D01*
X408085Y496498D01*
Y495499D01*
X407086Y494499D01*
X406086D01*
X407086D01*
X408085Y493499D01*
Y492500D01*
X407086Y491500D01*
X405086D01*
X404087Y492500D01*
X441543Y491000D02*
X443543D01*
X442543D01*
Y496998D01*
X441543Y495998D01*
X470042Y491000D02*
X466043D01*
X470042Y494999D01*
Y495998D01*
X469042Y496998D01*
X467043D01*
X466043Y495998D01*
X487043D02*
X488043Y496998D01*
X490042D01*
X491042Y495998D01*
Y494999D01*
X490042Y493999D01*
X489043D01*
X490042D01*
X491042Y492999D01*
Y492000D01*
X490042Y491000D01*
X488043D01*
X487043Y492000D01*
D38*
X366500Y355500D02*
G03*
X361500Y355500I-2500J0D01*
G01*
X233343Y337500D02*
G03*
X233343Y337500I-19685J0D01*
G01*
X274780Y352500D02*
G03*
X274780Y352500I-9843J0D01*
G01*
X415343Y253500D02*
G03*
X415343Y253500I-9843J0D01*
G01*
X366500Y395500D02*
G03*
X361500Y395500I-2500J0D01*
G01*
X556185Y321000D02*
G03*
X556185Y321000I-19685J0D01*
G01*
X374685Y265158D02*
G03*
X374685Y265158I-19685J0D01*
G01*
X488870Y319843D02*
G03*
X488870Y319843I-19685J0D01*
G01*
X234685Y266500D02*
G03*
X234685Y266500I-19685J0D01*
G01*
X282685D02*
G03*
X282685Y266500I-19685J0D01*
G01*
X329185Y265500D02*
G03*
X329185Y265500I-19685J0D01*
G01*
X355000Y320000D02*
X365000D01*
X295000D02*
X305000D01*
Y312000D02*
Y328000D01*
X355000D01*
Y312000D02*
Y328000D01*
X305000Y312000D02*
X355000D01*
X356500Y355378D02*
Y379000D01*
X356646D02*
X372000D01*
Y355378D02*
Y379000D01*
X122221Y320488D02*
X149779D01*
X122221Y331512D02*
X149779D01*
Y320488D02*
Y331512D01*
X122221Y320488D02*
Y331512D01*
X152827Y417441D02*
X184716D01*
X152925Y397657D02*
X184815D01*
X106173Y397362D02*
X138063D01*
X106173Y417343D02*
X138063D01*
X338779Y344488D02*
Y355512D01*
X311221Y344488D02*
Y355512D01*
Y344488D02*
X338779D01*
X311221Y355512D02*
X338779D01*
X242012Y376220D02*
Y403780D01*
X230988Y376220D02*
Y403780D01*
X242012D01*
X230988Y376220D02*
X242012D01*
X329988Y403780D02*
X341012D01*
X329988Y376220D02*
X341012D01*
Y403780D01*
X329988Y376220D02*
Y403780D01*
X309488D02*
X320512D01*
X309488Y376220D02*
X320512D01*
Y403780D01*
X309488Y376220D02*
Y403780D01*
X400012Y375721D02*
Y403279D01*
X388988Y375721D02*
Y403279D01*
X400012D01*
X388988Y375721D02*
X400012D01*
X356500Y395378D02*
Y419000D01*
X356646D02*
X372000D01*
Y395378D02*
Y419000D01*
X491221Y420512D02*
X518780D01*
X491221Y409488D02*
X518780D01*
X491221D02*
Y420512D01*
X518780Y409488D02*
Y420512D01*
X388988Y314220D02*
X400012D01*
X388988Y341779D02*
X400012D01*
X388988Y314220D02*
Y341779D01*
X400012Y314220D02*
Y341779D01*
X221512Y376220D02*
Y403780D01*
X210488Y376220D02*
Y403780D01*
X221512D01*
X210488Y376220D02*
X221512D01*
X429000Y422500D02*
Y426436D01*
X430312Y425124D01*
X431624Y426436D01*
Y422500D01*
X434904Y426436D02*
X433592D01*
X432936Y425780D01*
Y423156D01*
X433592Y422500D01*
X434904D01*
X435560Y423156D01*
Y425780D01*
X434904Y426436D01*
X439495Y425780D02*
X438839Y426436D01*
X437527D01*
X436871Y425780D01*
Y425124D01*
X437527Y424468D01*
X438839D01*
X439495Y423812D01*
Y423156D01*
X438839Y422500D01*
X437527D01*
X436871Y423156D01*
X443431Y426436D02*
X440807D01*
Y424468D01*
X442119D01*
X440807D01*
Y422500D01*
X447367Y426436D02*
X444743D01*
Y422500D01*
X447367D01*
X444743Y424468D02*
X446055D01*
X448679Y426436D02*
X451302D01*
X449991D01*
Y422500D01*
X456550Y426436D02*
Y422500D01*
X458518D01*
X459174Y423156D01*
Y425780D01*
X458518Y426436D01*
X456550D01*
X460486Y425124D02*
Y422500D01*
Y423812D01*
X461142Y424468D01*
X461798Y425124D01*
X462454D01*
X464422Y422500D02*
X465734D01*
X465078D01*
Y425124D01*
X464422D01*
X467701D02*
X469013Y422500D01*
X470325Y425124D01*
X473605Y422500D02*
X472293D01*
X471637Y423156D01*
Y424468D01*
X472293Y425124D01*
X473605D01*
X474261Y424468D01*
Y423812D01*
X471637D01*
X475573Y425124D02*
Y422500D01*
Y423812D01*
X476229Y424468D01*
X476885Y425124D01*
X477541D01*
X191587Y452500D02*
Y456436D01*
X192898Y455124D01*
X194210Y456436D01*
Y452500D01*
X197490Y456436D02*
X196178D01*
X195522Y455780D01*
Y453156D01*
X196178Y452500D01*
X197490D01*
X198146Y453156D01*
Y455780D01*
X197490Y456436D01*
X202082Y455780D02*
X201426Y456436D01*
X200114D01*
X199458Y455780D01*
Y455124D01*
X200114Y454468D01*
X201426D01*
X202082Y453812D01*
Y453156D01*
X201426Y452500D01*
X200114D01*
X199458Y453156D01*
X206018Y456436D02*
X203394D01*
Y454468D01*
X204706D01*
X203394D01*
Y452500D01*
X209953Y456436D02*
X207330D01*
Y452500D01*
X209953D01*
X207330Y454468D02*
X208642D01*
X211265Y456436D02*
X213889D01*
X212577D01*
Y452500D01*
X219137D02*
X220449D01*
X219793D01*
Y456436D01*
X219137Y455780D01*
X222417D02*
X223073Y456436D01*
X224384D01*
X225040Y455780D01*
Y453156D01*
X224384Y452500D01*
X223073D01*
X222417Y453156D01*
Y455780D01*
X226352Y452500D02*
Y455124D01*
X227664Y456436D01*
X228976Y455124D01*
Y452500D01*
Y454468D01*
X226352D01*
X234224Y452500D02*
X235536D01*
X234880D01*
Y456436D01*
X234224Y455780D01*
X240127Y452500D02*
X237504D01*
X240127Y455124D01*
Y455780D01*
X239472Y456436D01*
X238159D01*
X237504Y455780D01*
X241439D02*
X242095Y456436D01*
X243407D01*
X244063Y455780D01*
Y453156D01*
X243407Y452500D01*
X242095D01*
X241439Y453156D01*
Y455780D01*
X245375D02*
X246031Y456436D01*
X247343D01*
X247999Y455780D01*
Y453156D01*
X247343Y452500D01*
X246031D01*
X245375Y453156D01*
Y455780D01*
X249311Y456436D02*
Y453812D01*
X250623Y452500D01*
X251935Y453812D01*
Y456436D01*
X271043Y454500D02*
Y458436D01*
X272355Y457124D01*
X273667Y458436D01*
Y454500D01*
X276947Y458436D02*
X275635D01*
X274979Y457780D01*
Y455156D01*
X275635Y454500D01*
X276947D01*
X277603Y455156D01*
Y457780D01*
X276947Y458436D01*
X281539Y457780D02*
X280883Y458436D01*
X279571D01*
X278915Y457780D01*
Y457124D01*
X279571Y456468D01*
X280883D01*
X281539Y455812D01*
Y455156D01*
X280883Y454500D01*
X279571D01*
X278915Y455156D01*
X285474Y458436D02*
X282851D01*
Y456468D01*
X284162D01*
X282851D01*
Y454500D01*
X289410Y458436D02*
X286786D01*
Y454500D01*
X289410D01*
X286786Y456468D02*
X288098D01*
X290722Y458436D02*
X293346D01*
X292034D01*
Y454500D01*
X298593D02*
X299905D01*
X299249D01*
Y458436D01*
X298593Y457780D01*
X301873D02*
X302529Y458436D01*
X303841D01*
X304497Y457780D01*
Y455156D01*
X303841Y454500D01*
X302529D01*
X301873Y455156D01*
Y457780D01*
X305809Y454500D02*
Y457124D01*
X307121Y458436D01*
X308433Y457124D01*
Y454500D01*
Y456468D01*
X305809D01*
X313681Y454500D02*
X314992D01*
X314336D01*
Y458436D01*
X313681Y457780D01*
X319584Y454500D02*
X316960D01*
X319584Y457124D01*
Y457780D01*
X318928Y458436D01*
X317616D01*
X316960Y457780D01*
X320896D02*
X321552Y458436D01*
X322864D01*
X323520Y457780D01*
Y455156D01*
X322864Y454500D01*
X321552D01*
X320896Y455156D01*
Y457780D01*
X324832D02*
X325488Y458436D01*
X326800D01*
X327456Y457780D01*
Y455156D01*
X326800Y454500D01*
X325488D01*
X324832Y455156D01*
Y457780D01*
X328767Y458436D02*
Y455812D01*
X330079Y454500D01*
X331391Y455812D01*
Y458436D01*
X353087Y454500D02*
Y458436D01*
X354398Y457124D01*
X355710Y458436D01*
Y454500D01*
X358990Y458436D02*
X357678D01*
X357022Y457780D01*
Y455156D01*
X357678Y454500D01*
X358990D01*
X359646Y455156D01*
Y457780D01*
X358990Y458436D01*
X363582Y457780D02*
X362926Y458436D01*
X361614D01*
X360958Y457780D01*
Y457124D01*
X361614Y456468D01*
X362926D01*
X363582Y455812D01*
Y455156D01*
X362926Y454500D01*
X361614D01*
X360958Y455156D01*
X367518Y458436D02*
X364894D01*
Y456468D01*
X366206D01*
X364894D01*
Y454500D01*
X371453Y458436D02*
X368830D01*
Y454500D01*
X371453D01*
X368830Y456468D02*
X370142D01*
X372765Y458436D02*
X375389D01*
X374077D01*
Y454500D01*
X380637D02*
X381949D01*
X381293D01*
Y458436D01*
X380637Y457780D01*
X383917D02*
X384573Y458436D01*
X385884D01*
X386540Y457780D01*
Y455156D01*
X385884Y454500D01*
X384573D01*
X383917Y455156D01*
Y457780D01*
X387852Y454500D02*
Y457124D01*
X389164Y458436D01*
X390476Y457124D01*
Y454500D01*
Y456468D01*
X387852D01*
X395724Y454500D02*
X397036D01*
X396380D01*
Y458436D01*
X395724Y457780D01*
X401627Y454500D02*
X399004D01*
X401627Y457124D01*
Y457780D01*
X400972Y458436D01*
X399659D01*
X399004Y457780D01*
X402939D02*
X403595Y458436D01*
X404907D01*
X405563Y457780D01*
Y455156D01*
X404907Y454500D01*
X403595D01*
X402939Y455156D01*
Y457780D01*
X406875D02*
X407531Y458436D01*
X408843D01*
X409499Y457780D01*
Y455156D01*
X408843Y454500D01*
X407531D01*
X406875Y455156D01*
Y457780D01*
X410811Y458436D02*
Y455812D01*
X412123Y454500D01*
X413435Y455812D01*
Y458436D01*
X436043Y454000D02*
Y457936D01*
X437355Y456624D01*
X438667Y457936D01*
Y454000D01*
X441947Y457936D02*
X440635D01*
X439979Y457280D01*
Y454656D01*
X440635Y454000D01*
X441947D01*
X442603Y454656D01*
Y457280D01*
X441947Y457936D01*
X446539Y457280D02*
X445883Y457936D01*
X444571D01*
X443915Y457280D01*
Y456624D01*
X444571Y455968D01*
X445883D01*
X446539Y455312D01*
Y454656D01*
X445883Y454000D01*
X444571D01*
X443915Y454656D01*
X450474Y457936D02*
X447851D01*
Y455968D01*
X449162D01*
X447851D01*
Y454000D01*
X454410Y457936D02*
X451786D01*
Y454000D01*
X454410D01*
X451786Y455968D02*
X453098D01*
X455722Y457936D02*
X458346D01*
X457034D01*
Y454000D01*
X463593D02*
X464905D01*
X464249D01*
Y457936D01*
X463593Y457280D01*
X466873D02*
X467529Y457936D01*
X468841D01*
X469497Y457280D01*
Y454656D01*
X468841Y454000D01*
X467529D01*
X466873Y454656D01*
Y457280D01*
X470809Y454000D02*
Y456624D01*
X472121Y457936D01*
X473433Y456624D01*
Y454000D01*
Y455968D01*
X470809D01*
X478681Y454000D02*
X479992D01*
X479336D01*
Y457936D01*
X478681Y457280D01*
X484584Y454000D02*
X481960D01*
X484584Y456624D01*
Y457280D01*
X483928Y457936D01*
X482616D01*
X481960Y457280D01*
X485896D02*
X486552Y457936D01*
X487864D01*
X488520Y457280D01*
Y454656D01*
X487864Y454000D01*
X486552D01*
X485896Y454656D01*
Y457280D01*
X489832D02*
X490488Y457936D01*
X491800D01*
X492456Y457280D01*
Y454656D01*
X491800Y454000D01*
X490488D01*
X489832Y454656D01*
Y457280D01*
X493767Y457936D02*
Y455312D01*
X495079Y454000D01*
X496391Y455312D01*
Y457936D01*
D39*
X107346Y311709D02*
G03*
X107346Y300291I0J-5709D01*
G01*
X136874Y297339D02*
Y314661D01*
X111677Y297339D02*
X136874D01*
X111677D02*
Y314661D01*
X136874D01*
X107346Y300291D02*
X111677D01*
X107346Y311709D02*
X111677D01*
D40*
X239150Y337501D02*
X235214D01*
X237182Y335533D02*
Y339469D01*
X280587Y352501D02*
X276651D01*
X278619Y350533D02*
Y354469D01*
X421150Y253501D02*
X417214D01*
X419182Y251533D02*
Y255469D01*
X536501Y295508D02*
Y299444D01*
X534533Y297476D02*
X538469D01*
X355001Y239665D02*
Y243601D01*
X353033Y241633D02*
X356969D01*
X469186Y294350D02*
Y298286D01*
X467218Y296318D02*
X471154D01*
X215001Y241008D02*
Y244944D01*
X213033Y242976D02*
X216969D01*
X263001Y241008D02*
Y244944D01*
X261033Y242976D02*
X264969D01*
X309501Y240008D02*
Y243944D01*
X307533Y241976D02*
X311469D01*
M02*
