G04 Layer_Color=255*
%FSLAX25Y25*%
%MOIN*%
G70*
G01*
G75*
%ADD10C,0.03000*%
%ADD11R,0.03543X0.01772*%
%ADD12R,0.11024X0.11024*%
%ADD13R,0.08661X0.11000*%
%ADD18C,0.14567*%
%ADD19R,0.11417X0.11417*%
%ADD20C,0.11417*%
%ADD21O,0.11811X0.15748*%
%ADD22R,0.11811X0.15748*%
%ADD23R,0.05906X0.05906*%
%ADD24C,0.05906*%
%ADD25C,0.06496*%
%ADD26O,0.09055X0.10000*%
%ADD27C,0.15748*%
%ADD28C,0.34724*%
%ADD29C,0.11417*%
%ADD30C,0.05315*%
%ADD31R,0.05315X0.05315*%
%ADD32R,0.05906X0.05906*%
%ADD33C,0.06299*%
%ADD34C,0.05000*%
%ADD35R,0.05000X0.05000*%
%ADD36C,0.05512*%
D10*
X545000Y375000D02*
D03*
X293000Y422500D02*
D03*
X194500Y411000D02*
D03*
D11*
X353740Y415000D02*
D03*
Y410000D02*
D03*
Y405000D02*
D03*
Y400000D02*
D03*
X375000Y405000D02*
D03*
Y415000D02*
D03*
Y410000D02*
D03*
Y400000D02*
D03*
X353740Y375000D02*
D03*
Y370000D02*
D03*
Y365000D02*
D03*
Y360000D02*
D03*
X375000Y365000D02*
D03*
Y375000D02*
D03*
Y370000D02*
D03*
Y360000D02*
D03*
D12*
X172000Y362000D02*
D03*
X156500Y342500D02*
D03*
D13*
X119500D02*
D03*
D18*
X597000Y280000D02*
D03*
Y322000D02*
D03*
X596929Y353000D02*
D03*
X595929Y435000D02*
D03*
X596429Y395000D02*
D03*
X119000Y444000D02*
D03*
D19*
X568260Y280000D02*
D03*
Y322000D02*
D03*
X568189Y353000D02*
D03*
X567189Y435000D02*
D03*
X567689Y395000D02*
D03*
X147740Y444000D02*
D03*
D20*
X546606Y280000D02*
D03*
Y322000D02*
D03*
X546535Y353000D02*
D03*
X545535Y435000D02*
D03*
X546035Y395000D02*
D03*
X169394Y444000D02*
D03*
D21*
X487957Y473500D02*
D03*
X466500D02*
D03*
X405000Y474000D02*
D03*
X383543D02*
D03*
X322957D02*
D03*
X301500D02*
D03*
X243500Y472000D02*
D03*
X222043D02*
D03*
D22*
X445043Y473500D02*
D03*
X362087Y474000D02*
D03*
X280043D02*
D03*
X200587Y472000D02*
D03*
D23*
X309500Y255658D02*
D03*
X263000Y256658D02*
D03*
X215000D02*
D03*
X469185Y310000D02*
D03*
X355000Y255315D02*
D03*
X518000Y309157D02*
D03*
D24*
X309500Y275342D02*
D03*
X263000Y276343D02*
D03*
X215000D02*
D03*
X469185Y329685D02*
D03*
X355000Y275000D02*
D03*
X518000Y328842D02*
D03*
X203815Y337500D02*
D03*
D25*
X216000Y369232D02*
D03*
Y410768D02*
D03*
X394500Y348768D02*
D03*
Y307232D02*
D03*
X525768Y415000D02*
D03*
X484232D02*
D03*
X394500Y368732D02*
D03*
Y410268D02*
D03*
X315000Y369232D02*
D03*
Y410768D02*
D03*
X335500Y369232D02*
D03*
Y410768D02*
D03*
X236500Y369232D02*
D03*
Y410768D02*
D03*
X304232Y350000D02*
D03*
X345768D02*
D03*
X115232Y326000D02*
D03*
X156768D02*
D03*
D26*
X496870Y383500D02*
D03*
X507500D02*
D03*
X518130D02*
D03*
D27*
X174579Y407500D02*
D03*
X116705Y407500D02*
D03*
X154500Y407500D02*
D03*
X136784D02*
D03*
D28*
X126500Y262000D02*
D03*
X589000Y251500D02*
D03*
X594000Y478500D02*
D03*
X121000Y479000D02*
D03*
D29*
X151000Y358000D02*
D03*
X124000D02*
D03*
D30*
X401563Y253500D02*
D03*
X261000Y352500D02*
D03*
D31*
X409437Y253500D02*
D03*
X268874Y352500D02*
D03*
D32*
X223500Y337500D02*
D03*
D33*
X129000Y311000D02*
D03*
Y301000D02*
D03*
D34*
X160000Y250000D02*
D03*
Y240000D02*
D03*
Y260000D02*
D03*
X480000Y255000D02*
D03*
Y245000D02*
D03*
Y265000D02*
D03*
X450641Y255000D02*
D03*
Y245000D02*
D03*
Y265000D02*
D03*
X290000Y395000D02*
D03*
Y385000D02*
D03*
Y375000D02*
D03*
X258000Y405000D02*
D03*
Y395000D02*
D03*
Y385000D02*
D03*
Y375000D02*
D03*
X435000Y405000D02*
D03*
Y395000D02*
D03*
Y385000D02*
D03*
X467000Y415000D02*
D03*
Y405000D02*
D03*
Y395000D02*
D03*
Y385000D02*
D03*
D35*
X290000Y405000D02*
D03*
X435000Y415000D02*
D03*
D36*
X370000Y320000D02*
D03*
X290000D02*
D03*
M02*
