G04 Layer_Physical_Order=2*
G04 Layer_Color=16711680*
%FSLAX25Y25*%
%MOIN*%
G70*
G01*
G75*
%ADD14C,0.01000*%
%ADD15C,0.08000*%
%ADD16C,0.05512*%
%ADD17C,0.05000*%
%ADD18R,0.05000X0.05000*%
%ADD19C,0.03937*%
%ADD20C,0.06299*%
%ADD21C,0.06496*%
%ADD22C,0.04724*%
%ADD23R,0.04724X0.04724*%
%ADD24C,0.05906*%
%ADD25R,0.05906X0.05906*%
%ADD26R,0.05315X0.05315*%
%ADD27C,0.05315*%
%ADD28C,0.08000*%
%ADD29C,0.34724*%
%ADD30R,0.11811X0.15748*%
%ADD31O,0.11811X0.15748*%
%ADD32C,0.11417*%
%ADD33R,0.11417X0.11417*%
%ADD34C,0.14567*%
%ADD35C,0.15748*%
%ADD36O,0.09055X0.10000*%
%ADD37C,0.03000*%
%ADD38C,0.04000*%
G36*
X616000Y230000D02*
X615586Y229000D01*
X102500D01*
X102348Y228848D01*
X100500Y229613D01*
Y500000D01*
X100914Y501000D01*
X616000D01*
Y230000D01*
D02*
G37*
%LPC*%
G36*
X160987Y325500D02*
X157268D01*
Y321781D01*
X157877Y321861D01*
X158910Y322289D01*
X159797Y322970D01*
X160478Y323858D01*
X160906Y324891D01*
X160987Y325500D01*
D02*
G37*
G36*
X156268Y330219D02*
X155659Y330139D01*
X154625Y329711D01*
X153738Y329030D01*
X153057Y328142D01*
X152629Y327109D01*
X152549Y326500D01*
X156268D01*
Y330219D01*
D02*
G37*
G36*
X115232Y330285D02*
X114123Y330139D01*
X113090Y329711D01*
X112203Y329030D01*
X111522Y328142D01*
X111094Y327109D01*
X110948Y326000D01*
X111094Y324891D01*
X111522Y323858D01*
X112203Y322970D01*
X113090Y322289D01*
X114123Y321861D01*
X115232Y321715D01*
X116341Y321861D01*
X117375Y322289D01*
X118262Y322970D01*
X118943Y323858D01*
X119371Y324891D01*
X119517Y326000D01*
X119371Y327109D01*
X118943Y328142D01*
X118262Y329030D01*
X117375Y329711D01*
X116341Y330139D01*
X115232Y330285D01*
D02*
G37*
G36*
X156268Y325500D02*
X152549D01*
X152629Y324891D01*
X153057Y323858D01*
X153738Y322970D01*
X154625Y322289D01*
X155659Y321861D01*
X156268Y321781D01*
Y325500D01*
D02*
G37*
G36*
X335500Y415052D02*
X334391Y414906D01*
X333358Y414478D01*
X332470Y413798D01*
X331789Y412910D01*
X331361Y411877D01*
X331215Y410768D01*
X331361Y409659D01*
X331789Y408625D01*
X332470Y407738D01*
X333358Y407057D01*
X334391Y406629D01*
X335500Y406483D01*
X336609Y406629D01*
X337642Y407057D01*
X338530Y407738D01*
X339211Y408625D01*
X339464Y409238D01*
X386652D01*
X391452Y404438D01*
X391948Y404107D01*
X392533Y403990D01*
X393847D01*
X451638Y346199D01*
Y341638D01*
X458362D01*
Y348362D01*
X453801D01*
X397334Y404829D01*
X397530Y407238D01*
X398211Y408125D01*
X398639Y409159D01*
X398785Y410268D01*
X398639Y411377D01*
X398211Y412410D01*
X397530Y413297D01*
X396642Y413978D01*
X395609Y414406D01*
X394500Y414552D01*
X393391Y414406D01*
X392358Y413978D01*
X391470Y413297D01*
X391065Y412769D01*
X389356Y412835D01*
X389210Y412879D01*
X388410Y414086D01*
X388464Y414500D01*
X381536D01*
X381562Y414297D01*
X381486Y413946D01*
X380267Y412297D01*
X339464D01*
X339211Y412910D01*
X338530Y413798D01*
X337642Y414478D01*
X336609Y414906D01*
X335500Y415052D01*
D02*
G37*
G36*
X523362Y348362D02*
X516638D01*
Y341638D01*
X523362D01*
Y348362D01*
D02*
G37*
G36*
X157268Y330219D02*
Y326500D01*
X160987D01*
X160906Y327109D01*
X160478Y328142D01*
X159797Y329030D01*
X158910Y329711D01*
X157877Y330139D01*
X157268Y330219D01*
D02*
G37*
G36*
X203815Y341487D02*
X202783Y341351D01*
X201821Y340953D01*
X200996Y340319D01*
X200362Y339493D01*
X199964Y338532D01*
X199828Y337500D01*
X199964Y336468D01*
X200362Y335507D01*
X200996Y334681D01*
X201821Y334047D01*
X202783Y333649D01*
X203815Y333513D01*
X204847Y333649D01*
X205808Y334047D01*
X206634Y334681D01*
X207268Y335507D01*
X207666Y336468D01*
X207802Y337500D01*
X207666Y338532D01*
X207268Y339493D01*
X206634Y340319D01*
X205808Y340953D01*
X204847Y341351D01*
X203815Y341487D01*
D02*
G37*
G36*
X370000Y323788D02*
X369020Y323659D01*
X368106Y323281D01*
X367321Y322679D01*
X366719Y321894D01*
X366341Y320981D01*
X366212Y320000D01*
X366341Y319020D01*
X366719Y318106D01*
X367321Y317321D01*
X368106Y316719D01*
X369020Y316341D01*
X370000Y316212D01*
X370981Y316341D01*
X371894Y316719D01*
X372679Y317321D01*
X373281Y318106D01*
X373659Y319020D01*
X373788Y320000D01*
X373659Y320981D01*
X373281Y321894D01*
X372679Y322679D01*
X371894Y323281D01*
X370981Y323659D01*
X370000Y323788D01*
D02*
G37*
G36*
X454500Y318325D02*
X454122Y318276D01*
X453304Y317937D01*
X452602Y317398D01*
X452063Y316696D01*
X451724Y315878D01*
X451675Y315500D01*
X454500D01*
Y318325D01*
D02*
G37*
G36*
X519500D02*
X519122Y318276D01*
X518304Y317937D01*
X517602Y317398D01*
X517063Y316696D01*
X516724Y315878D01*
X516675Y315500D01*
X519500D01*
Y318325D01*
D02*
G37*
G36*
X523325Y314500D02*
X520500D01*
Y311675D01*
X520878Y311724D01*
X521696Y312063D01*
X522398Y312602D01*
X522937Y313304D01*
X523276Y314122D01*
X523325Y314500D01*
D02*
G37*
G36*
X588325D02*
X585500D01*
Y311675D01*
X585878Y311724D01*
X586696Y312063D01*
X587398Y312602D01*
X587937Y313304D01*
X588276Y314122D01*
X588325Y314500D01*
D02*
G37*
G36*
X520500Y318325D02*
Y315500D01*
X523325D01*
X523276Y315878D01*
X522937Y316696D01*
X522398Y317398D01*
X521696Y317937D01*
X520878Y318276D01*
X520500Y318325D01*
D02*
G37*
G36*
X585500D02*
Y315500D01*
X588325D01*
X588276Y315878D01*
X587937Y316696D01*
X587398Y317398D01*
X586696Y317937D01*
X585878Y318276D01*
X585500Y318325D01*
D02*
G37*
G36*
X584500D02*
X584122Y318276D01*
X583304Y317937D01*
X582602Y317398D01*
X582063Y316696D01*
X581724Y315878D01*
X581675Y315500D01*
X584500D01*
Y318325D01*
D02*
G37*
G36*
X455500D02*
Y315500D01*
X458325D01*
X458276Y315878D01*
X457937Y316696D01*
X457398Y317398D01*
X456696Y317937D01*
X455878Y318276D01*
X455500Y318325D01*
D02*
G37*
G36*
X265216Y356157D02*
X264818Y355897D01*
X263216Y355409D01*
X262844Y355695D01*
X261955Y356063D01*
X261500Y356123D01*
Y352500D01*
Y348877D01*
X261955Y348937D01*
X262844Y349305D01*
X263216Y349591D01*
X264818Y349102D01*
X265216Y348843D01*
X265325Y348843D01*
X272532D01*
Y356157D01*
X265325D01*
X265216Y356157D01*
D02*
G37*
G36*
X123500Y362977D02*
X122695Y362871D01*
X121478Y362368D01*
X120434Y361566D01*
X119632Y360522D01*
X119129Y359305D01*
X119023Y358500D01*
X123500D01*
Y362977D01*
D02*
G37*
G36*
X128977Y357500D02*
X124500D01*
Y353023D01*
X125305Y353129D01*
X126522Y353632D01*
X127566Y354434D01*
X128367Y355478D01*
X128871Y356695D01*
X128977Y357500D01*
D02*
G37*
G36*
X353740Y354790D02*
X352826Y354670D01*
X351975Y354317D01*
X351244Y353756D01*
X351003Y353441D01*
X349342Y353131D01*
X348587Y353191D01*
X347910Y353711D01*
X346877Y354139D01*
X345768Y354285D01*
X344659Y354139D01*
X343625Y353711D01*
X342738Y353030D01*
X342057Y352142D01*
X341629Y351109D01*
X341483Y350000D01*
X341629Y348891D01*
X342057Y347858D01*
X342738Y346970D01*
X343625Y346289D01*
X344659Y345861D01*
X345768Y345715D01*
X346877Y345861D01*
X347910Y346289D01*
X348797Y346970D01*
X349478Y347858D01*
X349894Y348071D01*
X351754Y348372D01*
X351975Y348203D01*
X352826Y347850D01*
X353740Y347730D01*
X354654Y347850D01*
X355505Y348203D01*
X356236Y348764D01*
X356797Y349495D01*
X357150Y350346D01*
X357270Y351260D01*
X357150Y352173D01*
X356797Y353025D01*
X356236Y353756D01*
X355505Y354317D01*
X354654Y354670D01*
X353740Y354790D01*
D02*
G37*
G36*
X293464Y364500D02*
X290500D01*
Y361536D01*
X290914Y361590D01*
X291765Y361943D01*
X292496Y362504D01*
X293057Y363235D01*
X293410Y364086D01*
X293464Y364500D01*
D02*
G37*
G36*
X236500Y373517D02*
X235391Y373371D01*
X234358Y372943D01*
X233470Y372262D01*
X232789Y371375D01*
X232361Y370341D01*
X232215Y369232D01*
X232361Y368123D01*
X232789Y367090D01*
X233470Y366203D01*
X234358Y365522D01*
X235391Y365094D01*
X236500Y364948D01*
X237609Y365094D01*
X238642Y365522D01*
X239530Y366203D01*
X240211Y367090D01*
X240639Y368123D01*
X240785Y369232D01*
X240639Y370341D01*
X240211Y371375D01*
X239530Y372262D01*
X238642Y372943D01*
X237609Y373371D01*
X236500Y373517D01*
D02*
G37*
G36*
X124500Y362977D02*
Y358500D01*
X128977D01*
X128871Y359305D01*
X128367Y360522D01*
X127566Y361566D01*
X126522Y362368D01*
X125305Y362871D01*
X124500Y362977D01*
D02*
G37*
G36*
X289500Y364500D02*
X286536D01*
X286590Y364086D01*
X286943Y363235D01*
X287504Y362504D01*
X288235Y361943D01*
X289086Y361590D01*
X289500Y361536D01*
Y364500D01*
D02*
G37*
G36*
X123500Y357500D02*
X119023D01*
X119129Y356695D01*
X119632Y355478D01*
X120434Y354434D01*
X121478Y353632D01*
X122695Y353129D01*
X123500Y353023D01*
Y357500D01*
D02*
G37*
G36*
X308451Y349500D02*
X304732D01*
Y345781D01*
X305341Y345861D01*
X306375Y346289D01*
X307262Y346970D01*
X307943Y347858D01*
X308371Y348891D01*
X308451Y349500D01*
D02*
G37*
G36*
X260500Y352000D02*
X257377D01*
X257437Y351545D01*
X257805Y350656D01*
X258391Y349891D01*
X259156Y349305D01*
X260045Y348937D01*
X260500Y348877D01*
Y352000D01*
D02*
G37*
G36*
X394500Y353052D02*
X393391Y352906D01*
X392358Y352478D01*
X391470Y351797D01*
X390789Y350910D01*
X390361Y349877D01*
X390215Y348768D01*
X390361Y347659D01*
X390789Y346625D01*
X391470Y345738D01*
X392358Y345057D01*
X393391Y344629D01*
X394500Y344483D01*
X395609Y344629D01*
X396642Y345057D01*
X397530Y345738D01*
X398211Y346625D01*
X398639Y347659D01*
X398785Y348768D01*
X398639Y349877D01*
X398211Y350910D01*
X397530Y351797D01*
X396642Y352478D01*
X395609Y352906D01*
X394500Y353052D01*
D02*
G37*
G36*
X303732Y349500D02*
X300013D01*
X300094Y348891D01*
X300522Y347858D01*
X301203Y346970D01*
X302090Y346289D01*
X303123Y345861D01*
X303732Y345781D01*
Y349500D01*
D02*
G37*
G36*
X151000Y363043D02*
X149695Y362871D01*
X148478Y362368D01*
X147434Y361566D01*
X146633Y360522D01*
X146129Y359305D01*
X145957Y358000D01*
X146129Y356695D01*
X146633Y355478D01*
X147434Y354434D01*
X148478Y353632D01*
X149695Y353129D01*
X151000Y352957D01*
X152305Y353129D01*
X153522Y353632D01*
X154566Y354434D01*
X155368Y355478D01*
X155871Y356695D01*
X156043Y358000D01*
X155871Y359305D01*
X155368Y360522D01*
X154566Y361566D01*
X153522Y362368D01*
X152305Y362871D01*
X151000Y363043D01*
D02*
G37*
G36*
X260500Y356123D02*
X260045Y356063D01*
X259156Y355695D01*
X258391Y355109D01*
X257805Y354345D01*
X257437Y353455D01*
X257377Y353000D01*
X260500D01*
Y356123D01*
D02*
G37*
G36*
X303732Y354219D02*
X303123Y354139D01*
X302090Y353711D01*
X301203Y353030D01*
X300522Y352142D01*
X300094Y351109D01*
X300013Y350500D01*
X303732D01*
Y354219D01*
D02*
G37*
G36*
X304732D02*
Y350500D01*
X308451D01*
X308371Y351109D01*
X307943Y352142D01*
X307262Y353030D01*
X306375Y353711D01*
X305341Y354139D01*
X304732Y354219D01*
D02*
G37*
G36*
X458325Y314500D02*
X455500D01*
Y311675D01*
X455878Y311724D01*
X456696Y312063D01*
X457398Y312602D01*
X457937Y313304D01*
X458276Y314122D01*
X458325Y314500D01*
D02*
G37*
G36*
X288362Y258362D02*
X281638D01*
Y251638D01*
X288362D01*
Y258362D01*
D02*
G37*
G36*
X358362D02*
X351638D01*
Y251638D01*
X358362D01*
Y258362D01*
D02*
G37*
G36*
X160000Y253530D02*
X159086Y253410D01*
X158235Y253057D01*
X157504Y252496D01*
X156943Y251765D01*
X156590Y250914D01*
X156470Y250000D01*
X156590Y249086D01*
X156943Y248235D01*
X157504Y247504D01*
X158235Y246943D01*
X159086Y246590D01*
X160000Y246470D01*
X160914Y246590D01*
X161765Y246943D01*
X162496Y247504D01*
X163057Y248235D01*
X163410Y249086D01*
X163530Y250000D01*
X163410Y250914D01*
X163057Y251765D01*
X162496Y252496D01*
X161765Y253057D01*
X160914Y253410D01*
X160000Y253530D01*
D02*
G37*
G36*
X218362Y258362D02*
X211638D01*
Y251638D01*
X218362D01*
Y258362D01*
D02*
G37*
G36*
X126500Y280402D02*
X124098Y280244D01*
X121737Y279775D01*
X119458Y279001D01*
X117299Y277936D01*
X115298Y276599D01*
X113488Y275012D01*
X111901Y273202D01*
X110564Y271201D01*
X109499Y269042D01*
X108725Y266763D01*
X108256Y264402D01*
X108098Y262000D01*
X108256Y259598D01*
X108725Y257237D01*
X109499Y254958D01*
X110564Y252799D01*
X111901Y250798D01*
X113488Y248988D01*
X115298Y247401D01*
X117299Y246064D01*
X119458Y244999D01*
X121737Y244225D01*
X124098Y243756D01*
X126500Y243598D01*
X128902Y243756D01*
X131263Y244225D01*
X133542Y244999D01*
X135701Y246064D01*
X137702Y247401D01*
X139512Y248988D01*
X141099Y250798D01*
X142436Y252799D01*
X143501Y254958D01*
X144275Y257237D01*
X144497Y258355D01*
X146459Y259003D01*
X146652Y258937D01*
X146943Y258235D01*
X147504Y257504D01*
X148235Y256943D01*
X149086Y256590D01*
X150000Y256470D01*
X150914Y256590D01*
X151765Y256943D01*
X152496Y257504D01*
X153057Y258235D01*
X153410Y259086D01*
X153530Y260000D01*
X153410Y260914D01*
X153057Y261765D01*
X152496Y262496D01*
X151765Y263057D01*
X150914Y263410D01*
X150000Y263530D01*
X149086Y263410D01*
X148235Y263057D01*
X147504Y262496D01*
X146943Y261765D01*
X146881Y261615D01*
X144902Y262000D01*
X144744Y264402D01*
X144275Y266763D01*
X143501Y269042D01*
X142436Y271201D01*
X141099Y273202D01*
X139512Y275012D01*
X137702Y276599D01*
X135701Y277936D01*
X133542Y279001D01*
X131263Y279775D01*
X128902Y280244D01*
X126500Y280402D01*
D02*
G37*
G36*
X160000Y263530D02*
X159086Y263410D01*
X158235Y263057D01*
X157504Y262496D01*
X156943Y261765D01*
X156590Y260914D01*
X156470Y260000D01*
X156590Y259086D01*
X156943Y258235D01*
X157504Y257504D01*
X158235Y256943D01*
X159086Y256590D01*
X160000Y256470D01*
X160914Y256590D01*
X161765Y256943D01*
X162496Y257504D01*
X163057Y258235D01*
X163410Y259086D01*
X163530Y260000D01*
X163410Y260914D01*
X163057Y261765D01*
X162496Y262496D01*
X161765Y263057D01*
X160914Y263410D01*
X160000Y263530D01*
D02*
G37*
G36*
X450000Y257994D02*
X449225Y257892D01*
X448503Y257593D01*
X447883Y257117D01*
X447407Y256497D01*
X447108Y255775D01*
X447006Y255000D01*
X447108Y254225D01*
X447407Y253503D01*
X447883Y252883D01*
X448503Y252407D01*
X449225Y252108D01*
X450000Y252006D01*
X450775Y252108D01*
X451497Y252407D01*
X452117Y252883D01*
X452593Y253503D01*
X452892Y254225D01*
X452994Y255000D01*
X452892Y255775D01*
X452593Y256497D01*
X452117Y257117D01*
X451497Y257593D01*
X450775Y257892D01*
X450000Y257994D01*
D02*
G37*
G36*
X480000D02*
X479225Y257892D01*
X478503Y257593D01*
X477883Y257117D01*
X477407Y256497D01*
X477108Y255775D01*
X477006Y255000D01*
X477108Y254225D01*
X477407Y253503D01*
X477883Y252883D01*
X478503Y252407D01*
X479225Y252108D01*
X480000Y252006D01*
X480775Y252108D01*
X481497Y252407D01*
X482117Y252883D01*
X482593Y253503D01*
X482892Y254225D01*
X482994Y255000D01*
X482892Y255775D01*
X482593Y256497D01*
X482117Y257117D01*
X481497Y257593D01*
X480775Y257892D01*
X480000Y257994D01*
D02*
G37*
G36*
X160500Y243464D02*
Y240500D01*
X163464D01*
X163410Y240914D01*
X163057Y241765D01*
X162496Y242496D01*
X161765Y243057D01*
X160914Y243410D01*
X160500Y243464D01*
D02*
G37*
G36*
X149500Y239500D02*
X146536D01*
X146590Y239086D01*
X146943Y238235D01*
X147504Y237504D01*
X148235Y236943D01*
X149086Y236590D01*
X149500Y236536D01*
Y239500D01*
D02*
G37*
G36*
X153464D02*
X150500D01*
Y236536D01*
X150914Y236590D01*
X151765Y236943D01*
X152496Y237504D01*
X153057Y238235D01*
X153410Y239086D01*
X153464Y239500D01*
D02*
G37*
G36*
X589000Y269902D02*
X586598Y269744D01*
X584237Y269275D01*
X581958Y268501D01*
X579799Y267436D01*
X577798Y266099D01*
X575988Y264512D01*
X574401Y262702D01*
X573064Y260701D01*
X571999Y258542D01*
X571225Y256263D01*
X570756Y253902D01*
X570598Y251500D01*
X570756Y249098D01*
X571225Y246737D01*
X571999Y244458D01*
X573064Y242299D01*
X574401Y240298D01*
X575988Y238488D01*
X577798Y236901D01*
X579799Y235564D01*
X581958Y234499D01*
X584237Y233725D01*
X586598Y233256D01*
X589000Y233098D01*
X591402Y233256D01*
X593763Y233725D01*
X596042Y234499D01*
X598201Y235564D01*
X600202Y236901D01*
X602012Y238488D01*
X603599Y240298D01*
X604936Y242299D01*
X606001Y244458D01*
X606775Y246737D01*
X607244Y249098D01*
X607402Y251500D01*
X607244Y253902D01*
X606775Y256263D01*
X606001Y258542D01*
X604936Y260701D01*
X603599Y262702D01*
X602012Y264512D01*
X600202Y266099D01*
X598201Y267436D01*
X596042Y268501D01*
X593763Y269275D01*
X591402Y269744D01*
X589000Y269902D01*
D02*
G37*
G36*
X159500Y239500D02*
X156536D01*
X156590Y239086D01*
X156943Y238235D01*
X157504Y237504D01*
X158235Y236943D01*
X159086Y236590D01*
X159500Y236536D01*
Y239500D01*
D02*
G37*
G36*
X149500Y243464D02*
X149086Y243410D01*
X148235Y243057D01*
X147504Y242496D01*
X146943Y241765D01*
X146590Y240914D01*
X146536Y240500D01*
X149500D01*
Y243464D01*
D02*
G37*
G36*
X150500D02*
Y240500D01*
X153464D01*
X153410Y240914D01*
X153057Y241765D01*
X152496Y242496D01*
X151765Y243057D01*
X150914Y243410D01*
X150500Y243464D01*
D02*
G37*
G36*
X163464Y239500D02*
X160500D01*
Y236536D01*
X160914Y236590D01*
X161765Y236943D01*
X162496Y237504D01*
X163057Y238235D01*
X163410Y239086D01*
X163464Y239500D01*
D02*
G37*
G36*
X159500Y243464D02*
X159086Y243410D01*
X158235Y243057D01*
X157504Y242496D01*
X156943Y241765D01*
X156590Y240914D01*
X156536Y240500D01*
X159500D01*
Y243464D01*
D02*
G37*
G36*
X285500Y288325D02*
Y285500D01*
X288325D01*
X288276Y285878D01*
X287937Y286696D01*
X287398Y287398D01*
X286696Y287937D01*
X285878Y288276D01*
X285500Y288325D01*
D02*
G37*
G36*
X355500D02*
Y285500D01*
X358325D01*
X358276Y285878D01*
X357937Y286696D01*
X357398Y287398D01*
X356696Y287937D01*
X355878Y288276D01*
X355500Y288325D01*
D02*
G37*
G36*
X354500D02*
X354122Y288276D01*
X353304Y287937D01*
X352602Y287398D01*
X352063Y286696D01*
X351724Y285878D01*
X351675Y285500D01*
X354500D01*
Y288325D01*
D02*
G37*
G36*
X215500D02*
Y285500D01*
X218325D01*
X218276Y285878D01*
X217937Y286696D01*
X217398Y287398D01*
X216696Y287937D01*
X215878Y288276D01*
X215500Y288325D01*
D02*
G37*
G36*
X519500Y314500D02*
X516675D01*
X516724Y314122D01*
X517063Y313304D01*
X517602Y312602D01*
X518304Y312063D01*
X519122Y311724D01*
X519500Y311675D01*
Y314500D01*
D02*
G37*
G36*
X584500D02*
X581675D01*
X581724Y314122D01*
X582063Y313304D01*
X582602Y312602D01*
X583304Y312063D01*
X584122Y311724D01*
X584500Y311675D01*
Y314500D01*
D02*
G37*
G36*
X129000Y315185D02*
X127917Y315043D01*
X126907Y314625D01*
X126040Y313960D01*
X125375Y313093D01*
X124957Y312083D01*
X124815Y311000D01*
X124957Y309917D01*
X125375Y308907D01*
X126040Y308040D01*
X126907Y307375D01*
X127728Y307035D01*
X127917Y306513D01*
Y305487D01*
X127728Y304965D01*
X126907Y304625D01*
X126040Y303959D01*
X125375Y303093D01*
X124957Y302083D01*
X124815Y301000D01*
X124957Y299917D01*
X125375Y298907D01*
X126040Y298041D01*
X126907Y297375D01*
X127917Y296957D01*
X129000Y296815D01*
X130083Y296957D01*
X131093Y297375D01*
X131959Y298041D01*
X132625Y298907D01*
X133043Y299917D01*
X133185Y301000D01*
X133043Y302083D01*
X132625Y303093D01*
X131959Y303959D01*
X131093Y304625D01*
X130272Y304965D01*
X130083Y305487D01*
Y306513D01*
X130272Y307035D01*
X131093Y307375D01*
X131959Y308040D01*
X132625Y308907D01*
X133043Y309917D01*
X133185Y311000D01*
X133043Y312083D01*
X132625Y313093D01*
X131959Y313960D01*
X131093Y314625D01*
X130083Y315043D01*
X129000Y315185D01*
D02*
G37*
G36*
X454500Y314500D02*
X451675D01*
X451724Y314122D01*
X452063Y313304D01*
X452602Y312602D01*
X453304Y312063D01*
X454122Y311724D01*
X454500Y311675D01*
Y314500D01*
D02*
G37*
G36*
X284500Y288325D02*
X284122Y288276D01*
X283304Y287937D01*
X282602Y287398D01*
X282063Y286696D01*
X281724Y285878D01*
X281675Y285500D01*
X284500D01*
Y288325D01*
D02*
G37*
G36*
Y284500D02*
X281675D01*
X281724Y284122D01*
X282063Y283304D01*
X282602Y282602D01*
X283304Y282063D01*
X284122Y281724D01*
X284500Y281675D01*
Y284500D01*
D02*
G37*
G36*
X354500D02*
X351675D01*
X351724Y284122D01*
X352063Y283304D01*
X352602Y282602D01*
X353304Y282063D01*
X354122Y281724D01*
X354500Y281675D01*
Y284500D01*
D02*
G37*
G36*
X480000Y267994D02*
X479225Y267892D01*
X478503Y267593D01*
X477883Y267117D01*
X477407Y266497D01*
X477108Y265775D01*
X477006Y265000D01*
X477108Y264225D01*
X477407Y263503D01*
X477883Y262883D01*
X478503Y262407D01*
X479225Y262108D01*
X480000Y262006D01*
X480775Y262108D01*
X481497Y262407D01*
X482117Y262883D01*
X482593Y263503D01*
X482892Y264225D01*
X482994Y265000D01*
X482892Y265775D01*
X482593Y266497D01*
X482117Y267117D01*
X481497Y267593D01*
X480775Y267892D01*
X480000Y267994D01*
D02*
G37*
G36*
X214500Y284500D02*
X211675D01*
X211724Y284122D01*
X212063Y283304D01*
X212602Y282602D01*
X213304Y282063D01*
X214122Y281724D01*
X214500Y281675D01*
Y284500D01*
D02*
G37*
G36*
X358325D02*
X355500D01*
Y281675D01*
X355878Y281724D01*
X356696Y282063D01*
X357398Y282602D01*
X357937Y283304D01*
X358276Y284122D01*
X358325Y284500D01*
D02*
G37*
G36*
X214500Y288325D02*
X214122Y288276D01*
X213304Y287937D01*
X212602Y287398D01*
X212063Y286696D01*
X211724Y285878D01*
X211675Y285500D01*
X214500D01*
Y288325D01*
D02*
G37*
G36*
X218325Y284500D02*
X215500D01*
Y281675D01*
X215878Y281724D01*
X216696Y282063D01*
X217398Y282602D01*
X217937Y283304D01*
X218276Y284122D01*
X218325Y284500D01*
D02*
G37*
G36*
X288325D02*
X285500D01*
Y281675D01*
X285878Y281724D01*
X286696Y282063D01*
X287398Y282602D01*
X287937Y283304D01*
X288276Y284122D01*
X288325Y284500D01*
D02*
G37*
G36*
X168894Y443500D02*
X162702D01*
X162782Y442685D01*
X163166Y441420D01*
X163789Y440255D01*
X164627Y439233D01*
X165649Y438395D01*
X166814Y437772D01*
X168079Y437388D01*
X168894Y437308D01*
Y443500D01*
D02*
G37*
G36*
X176086D02*
X169894D01*
Y437308D01*
X170709Y437388D01*
X171974Y437772D01*
X173139Y438395D01*
X174161Y439233D01*
X174999Y440255D01*
X175622Y441420D01*
X176005Y442685D01*
X176086Y443500D01*
D02*
G37*
G36*
X573898Y441709D02*
X560480D01*
Y428291D01*
X573898D01*
Y441709D01*
D02*
G37*
G36*
X119000Y452323D02*
X117376Y452164D01*
X115815Y451690D01*
X114376Y450921D01*
X113114Y449886D01*
X112079Y448624D01*
X111310Y447185D01*
X110836Y445624D01*
X110677Y444000D01*
X110836Y442376D01*
X111310Y440815D01*
X112079Y439376D01*
X113114Y438114D01*
X114376Y437079D01*
X115815Y436310D01*
X117376Y435836D01*
X119000Y435676D01*
X120624Y435836D01*
X122185Y436310D01*
X123624Y437079D01*
X124886Y438114D01*
X125921Y439376D01*
X126690Y440815D01*
X127164Y442376D01*
X127323Y444000D01*
X127164Y445624D01*
X126690Y447185D01*
X125921Y448624D01*
X124886Y449886D01*
X123624Y450921D01*
X122185Y451690D01*
X120624Y452164D01*
X119000Y452323D01*
D02*
G37*
G36*
X594000Y496902D02*
X591598Y496744D01*
X589237Y496275D01*
X586958Y495501D01*
X584799Y494436D01*
X582798Y493099D01*
X580988Y491512D01*
X579401Y489702D01*
X578064Y487701D01*
X576999Y485542D01*
X576225Y483263D01*
X575756Y480902D01*
X575598Y478500D01*
X575756Y476098D01*
X576225Y473737D01*
X576999Y471458D01*
X578064Y469299D01*
X579401Y467298D01*
X580988Y465488D01*
X582798Y463901D01*
X584799Y462564D01*
X586958Y461499D01*
X589237Y460725D01*
X591598Y460256D01*
X594000Y460098D01*
X596402Y460256D01*
X598763Y460725D01*
X601042Y461499D01*
X603201Y462564D01*
X605202Y463901D01*
X607012Y465488D01*
X608599Y467298D01*
X609936Y469299D01*
X611001Y471458D01*
X611775Y473737D01*
X612244Y476098D01*
X612402Y478500D01*
X612244Y480902D01*
X611775Y483263D01*
X611001Y485542D01*
X609936Y487701D01*
X608599Y489702D01*
X607012Y491512D01*
X605202Y493099D01*
X603201Y494436D01*
X601042Y495501D01*
X598763Y496275D01*
X596402Y496744D01*
X594000Y496902D01*
D02*
G37*
G36*
X121000Y497402D02*
X118598Y497244D01*
X116237Y496775D01*
X113958Y496001D01*
X111799Y494936D01*
X109798Y493599D01*
X107988Y492012D01*
X106401Y490202D01*
X105064Y488201D01*
X103999Y486042D01*
X103225Y483763D01*
X102756Y481402D01*
X102598Y479000D01*
X102756Y476598D01*
X103225Y474237D01*
X103999Y471958D01*
X105064Y469799D01*
X106401Y467798D01*
X107988Y465988D01*
X109798Y464401D01*
X111799Y463064D01*
X113958Y461999D01*
X116237Y461225D01*
X118598Y460756D01*
X121000Y460598D01*
X123402Y460756D01*
X125763Y461225D01*
X128042Y461999D01*
X130201Y463064D01*
X132202Y464401D01*
X134012Y465988D01*
X135599Y467798D01*
X136936Y469799D01*
X138001Y471958D01*
X138775Y474237D01*
X139244Y476598D01*
X139402Y479000D01*
X139244Y481402D01*
X138775Y483763D01*
X138001Y486042D01*
X136936Y488201D01*
X135599Y490202D01*
X134012Y492012D01*
X132202Y493599D01*
X130201Y494936D01*
X128042Y496001D01*
X125763Y496775D01*
X123402Y497244D01*
X121000Y497402D01*
D02*
G37*
G36*
X168894Y450692D02*
X168079Y450612D01*
X166814Y450228D01*
X165649Y449605D01*
X164627Y448767D01*
X163789Y447745D01*
X163166Y446580D01*
X162782Y445315D01*
X162702Y444500D01*
X168894D01*
Y450692D01*
D02*
G37*
G36*
X169894D02*
Y444500D01*
X176086D01*
X176005Y445315D01*
X175622Y446580D01*
X174999Y447745D01*
X174161Y448767D01*
X173139Y449605D01*
X171974Y450228D01*
X170709Y450612D01*
X169894Y450692D01*
D02*
G37*
G36*
X595929Y443324D02*
X594305Y443164D01*
X592744Y442690D01*
X591305Y441921D01*
X590043Y440886D01*
X589008Y439624D01*
X588239Y438185D01*
X587766Y436624D01*
X587606Y435000D01*
X587766Y433376D01*
X588239Y431815D01*
X589008Y430376D01*
X590043Y429114D01*
X591305Y428079D01*
X592744Y427310D01*
X594305Y426836D01*
X595929Y426677D01*
X597553Y426836D01*
X599114Y427310D01*
X600553Y428079D01*
X601815Y429114D01*
X602850Y430376D01*
X603619Y431815D01*
X604093Y433376D01*
X604253Y435000D01*
X604093Y436624D01*
X603619Y438185D01*
X602850Y439624D01*
X601815Y440886D01*
X600553Y441921D01*
X599114Y442690D01*
X597553Y443164D01*
X595929Y443324D01*
D02*
G37*
G36*
X467000Y418530D02*
X466086Y418410D01*
X465235Y418057D01*
X464504Y417496D01*
X463943Y416765D01*
X463845Y416529D01*
X455000D01*
X454415Y416413D01*
X453919Y416081D01*
X445000Y407163D01*
X438500Y413663D01*
Y418500D01*
X431500D01*
Y411500D01*
X436337D01*
X443471Y404366D01*
Y390000D01*
X443587Y389415D01*
X443919Y388919D01*
X473471Y359366D01*
Y350634D01*
X459367Y336529D01*
X440000D01*
X439415Y336413D01*
X438919Y336081D01*
X416149Y313312D01*
X415914Y313410D01*
X415000Y313530D01*
X414086Y313410D01*
X413235Y313057D01*
X412504Y312496D01*
X411943Y311765D01*
X411590Y310914D01*
X411470Y310000D01*
X411532Y309529D01*
X410788Y308264D01*
X410070Y307529D01*
X407133D01*
X381632Y333031D01*
X382271Y335220D01*
X382554Y335283D01*
X388919Y328919D01*
X389415Y328587D01*
X390000Y328471D01*
X401845D01*
X401943Y328235D01*
X402504Y327504D01*
X403235Y326943D01*
X404086Y326590D01*
X405000Y326470D01*
X405914Y326590D01*
X406765Y326943D01*
X407496Y327504D01*
X408057Y328235D01*
X408410Y329086D01*
X408530Y330000D01*
X408410Y330914D01*
X408057Y331765D01*
X407496Y332496D01*
X406765Y333057D01*
X405914Y333410D01*
X405000Y333530D01*
X404086Y333410D01*
X403235Y333057D01*
X402504Y332496D01*
X401943Y331765D01*
X401845Y331529D01*
X390634D01*
X383312Y338851D01*
X383410Y339086D01*
X383530Y340000D01*
X383410Y340914D01*
X383057Y341765D01*
X382496Y342496D01*
X381765Y343057D01*
X380914Y343410D01*
X380000Y343530D01*
X379086Y343410D01*
X378235Y343057D01*
X377504Y342496D01*
X376943Y341765D01*
X376872Y341596D01*
X374872Y341993D01*
Y344523D01*
X374973Y346057D01*
X375914Y346590D01*
X376765Y346943D01*
X377496Y347504D01*
X378057Y348235D01*
X378155Y348471D01*
X380000D01*
X380585Y348587D01*
X381081Y348919D01*
X386081Y353919D01*
X386413Y354415D01*
X386529Y355000D01*
Y369367D01*
X389183Y372021D01*
X390789Y370875D01*
X390361Y369841D01*
X390215Y368732D01*
X390361Y367623D01*
X390789Y366590D01*
X391470Y365703D01*
X392358Y365022D01*
X393391Y364594D01*
X394500Y364448D01*
X395609Y364594D01*
X396642Y365022D01*
X397530Y365703D01*
X398211Y366590D01*
X398639Y367623D01*
X398785Y368732D01*
X398639Y369841D01*
X398211Y370875D01*
X397530Y371762D01*
X396642Y372443D01*
X395609Y372871D01*
X394500Y373017D01*
X393391Y372871D01*
X392358Y372443D01*
X391212Y374049D01*
X392786Y375623D01*
X393118Y376120D01*
X393234Y376705D01*
Y389778D01*
X393369Y390064D01*
X395000Y391470D01*
X395914Y391590D01*
X396765Y391943D01*
X397496Y392504D01*
X398057Y393235D01*
X398410Y394086D01*
X398530Y395000D01*
X398410Y395914D01*
X398057Y396765D01*
X397496Y397496D01*
X396765Y398057D01*
X395914Y398410D01*
X395000Y398530D01*
X394086Y398410D01*
X393235Y398057D01*
X392504Y397496D01*
X391943Y396765D01*
X391590Y395914D01*
X391470Y395000D01*
X391590Y394086D01*
X391688Y393851D01*
X390623Y392786D01*
X390292Y392290D01*
X390176Y391705D01*
Y381877D01*
X388176Y381480D01*
X388057Y381765D01*
X387496Y382496D01*
X386765Y383057D01*
X385914Y383410D01*
X385000Y383530D01*
X384086Y383410D01*
X383235Y383057D01*
X382504Y382496D01*
X381943Y381765D01*
X381845Y381529D01*
X379270D01*
X378589Y382488D01*
X378179Y383529D01*
X378410Y384086D01*
X378496Y384742D01*
X378601Y385071D01*
X379929Y386399D01*
X380258Y386504D01*
X380914Y386590D01*
X381765Y386943D01*
X382496Y387504D01*
X383057Y388235D01*
X383410Y389086D01*
X383530Y390000D01*
X383410Y390914D01*
X383057Y391765D01*
X382496Y392496D01*
X381765Y393057D01*
X380914Y393410D01*
X380000Y393530D01*
X379086Y393410D01*
X378235Y393057D01*
X377504Y392496D01*
X376943Y391765D01*
X376845Y391529D01*
X335633D01*
X328312Y398851D01*
X328410Y399086D01*
X328530Y400000D01*
X328410Y400914D01*
X328057Y401765D01*
X327496Y402496D01*
X326765Y403057D01*
X325914Y403410D01*
X325000Y403530D01*
X324086Y403410D01*
X323235Y403057D01*
X322504Y402496D01*
X321943Y401765D01*
X321590Y400914D01*
X321470Y400000D01*
X321590Y399086D01*
X321943Y398235D01*
X322504Y397504D01*
X323235Y396943D01*
X324086Y396590D01*
X325000Y396470D01*
X325914Y396590D01*
X326149Y396688D01*
X333919Y388919D01*
X334415Y388587D01*
X335000Y388471D01*
X370730D01*
X371411Y387512D01*
X371821Y386471D01*
X371590Y385914D01*
X371536Y385500D01*
X375000D01*
Y384500D01*
X371536D01*
X371590Y384086D01*
X371821Y383529D01*
X371411Y382488D01*
X370730Y381529D01*
X315634D01*
X293500Y403663D01*
Y408500D01*
X286500D01*
Y401500D01*
X291337D01*
X313919Y378919D01*
X314415Y378587D01*
X315000Y378471D01*
X381845D01*
X381943Y378235D01*
X382504Y377504D01*
X383235Y376943D01*
X383471Y376845D01*
Y373462D01*
X369919Y359910D01*
X369587Y359414D01*
X369471Y358828D01*
Y348343D01*
X369587Y347758D01*
X369919Y347262D01*
X371814Y345367D01*
Y339157D01*
X371930Y338572D01*
X372262Y338075D01*
X397788Y312549D01*
X396642Y310943D01*
X395609Y311371D01*
X394500Y311517D01*
X393391Y311371D01*
X392358Y310943D01*
X391470Y310262D01*
X390789Y309375D01*
X390361Y308341D01*
X390215Y307232D01*
X390361Y306123D01*
X390789Y305090D01*
X391470Y304203D01*
X392358Y303522D01*
X392971Y303268D01*
Y295500D01*
X393087Y294915D01*
X393419Y294419D01*
X393915Y294087D01*
X393938Y294082D01*
X423259Y264761D01*
X423756Y264429D01*
X424341Y264313D01*
X428524D01*
X447103Y245735D01*
X447006Y245000D01*
X447108Y244225D01*
X447407Y243503D01*
X447883Y242883D01*
X448503Y242407D01*
X449225Y242108D01*
X450000Y242006D01*
X450775Y242108D01*
X451497Y242407D01*
X452117Y242883D01*
X452593Y243503D01*
X452892Y244225D01*
X452994Y245000D01*
X452892Y245775D01*
X452593Y246497D01*
X452117Y247117D01*
X451497Y247593D01*
X450775Y247892D01*
X450000Y247994D01*
X449265Y247897D01*
X432668Y264495D01*
X433433Y266342D01*
X435432D01*
X437856Y263919D01*
X438352Y263587D01*
X438937Y263471D01*
X447432D01*
X447883Y262883D01*
X448503Y262407D01*
X449225Y262108D01*
X450000Y262006D01*
X450775Y262108D01*
X451497Y262407D01*
X452117Y262883D01*
X452593Y263503D01*
X452892Y264225D01*
X452994Y265000D01*
X452892Y265775D01*
X452593Y266497D01*
X452117Y267117D01*
X451497Y267593D01*
X450775Y267892D01*
X450000Y267994D01*
X449225Y267892D01*
X448503Y267593D01*
X447883Y267117D01*
X447432Y266529D01*
X439571D01*
X437595Y268505D01*
Y273657D01*
X430279D01*
Y273657D01*
X428555Y272993D01*
X428279Y272909D01*
X427908Y273195D01*
X427018Y273563D01*
X426563Y273623D01*
Y270000D01*
X425563D01*
Y273623D01*
X425108Y273563D01*
X424219Y273195D01*
X423454Y272609D01*
X423069Y272106D01*
X422329Y271808D01*
X420652Y271694D01*
X396029Y296317D01*
Y303268D01*
X396642Y303522D01*
X397530Y304203D01*
X398211Y305090D01*
X398639Y306123D01*
X398785Y307232D01*
X398639Y308341D01*
X398211Y309375D01*
X399816Y310521D01*
X405419Y304919D01*
X405915Y304587D01*
X406500Y304471D01*
X418366D01*
X477103Y245735D01*
X477006Y245000D01*
X477108Y244225D01*
X477407Y243503D01*
X477883Y242883D01*
X478503Y242407D01*
X479225Y242108D01*
X480000Y242006D01*
X480775Y242108D01*
X481497Y242407D01*
X482117Y242883D01*
X482593Y243503D01*
X482892Y244225D01*
X482994Y245000D01*
X482892Y245775D01*
X482593Y246497D01*
X482117Y247117D01*
X481497Y247593D01*
X480775Y247892D01*
X480000Y247994D01*
X479265Y247897D01*
X420081Y307081D01*
X419585Y307413D01*
X418693Y308683D01*
X418468Y309529D01*
X418530Y310000D01*
X418410Y310914D01*
X418312Y311149D01*
X440633Y333471D01*
X460000D01*
X460585Y333587D01*
X461081Y333919D01*
X476081Y348919D01*
X476413Y349415D01*
X476529Y350000D01*
Y360000D01*
X476413Y360585D01*
X476081Y361081D01*
X446529Y390634D01*
Y404366D01*
X455633Y413471D01*
X463845D01*
X463943Y413235D01*
X464504Y412504D01*
X465235Y411943D01*
X466086Y411590D01*
X467000Y411470D01*
X467914Y411590D01*
X468765Y411943D01*
X469496Y412504D01*
X470057Y413235D01*
X470410Y414086D01*
X470530Y415000D01*
X470410Y415914D01*
X470057Y416765D01*
X469496Y417496D01*
X468765Y418057D01*
X467914Y418410D01*
X467000Y418530D01*
D02*
G37*
G36*
X154449Y450709D02*
X141032D01*
Y441571D01*
X134644Y435183D01*
X134163Y434556D01*
X133861Y433826D01*
X133758Y433043D01*
Y415855D01*
X133371Y415738D01*
X131830Y414914D01*
X130478Y413805D01*
X129369Y412454D01*
X128545Y410912D01*
X128428Y410526D01*
X125060D01*
X124943Y410912D01*
X124119Y412454D01*
X123010Y413805D01*
X121659Y414914D01*
X120117Y415738D01*
X118444Y416246D01*
X116705Y416417D01*
X114965Y416246D01*
X113292Y415738D01*
X111751Y414914D01*
X110399Y413805D01*
X109291Y412454D01*
X108466Y410912D01*
X107959Y409240D01*
X107788Y407500D01*
X107959Y405760D01*
X108466Y404088D01*
X109291Y402546D01*
X110399Y401195D01*
X111751Y400086D01*
X113292Y399262D01*
X114965Y398754D01*
X116705Y398583D01*
X118444Y398754D01*
X120117Y399262D01*
X121659Y400086D01*
X123010Y401195D01*
X124119Y402546D01*
X124943Y404088D01*
X125060Y404474D01*
X128428D01*
X128545Y404088D01*
X129369Y402546D01*
X130478Y401195D01*
X131830Y400086D01*
X133371Y399262D01*
X135044Y398754D01*
X136784Y398583D01*
X138523Y398754D01*
X140196Y399262D01*
X141737Y400086D01*
X143089Y401195D01*
X144198Y402546D01*
X144508Y403126D01*
X146776D01*
X147086Y402546D01*
X148195Y401195D01*
X149546Y400086D01*
X151088Y399262D01*
X152760Y398754D01*
X154500Y398583D01*
X156240Y398754D01*
X157912Y399262D01*
X159454Y400086D01*
X160805Y401195D01*
X161914Y402546D01*
X162738Y404088D01*
X163000Y404951D01*
X166079D01*
X166341Y404088D01*
X167165Y402546D01*
X168273Y401195D01*
X169625Y400086D01*
X171166Y399262D01*
X172839Y398754D01*
X174579Y398583D01*
X176318Y398754D01*
X177991Y399262D01*
X178787Y399687D01*
X202451Y376023D01*
Y370000D01*
X202645Y369024D01*
X203198Y368198D01*
X228289Y343107D01*
X227114Y341453D01*
X225593Y341453D01*
X219547D01*
Y333547D01*
X227453D01*
Y339484D01*
X227453Y341114D01*
X229106Y342289D01*
X238198Y333198D01*
X239024Y332645D01*
X240000Y332451D01*
X272451D01*
Y320000D01*
X272645Y319024D01*
X273198Y318198D01*
X358198Y233198D01*
X359025Y232645D01*
X360000Y232451D01*
X530000D01*
X530975Y232645D01*
X531802Y233198D01*
X546802Y248198D01*
X547355Y249025D01*
X547549Y250000D01*
Y347451D01*
X578944D01*
X581638Y344757D01*
Y341638D01*
X588362D01*
Y348362D01*
X585243D01*
X581802Y351802D01*
X580975Y352355D01*
X580000Y352549D01*
X546056D01*
X520352Y378253D01*
X520261Y378659D01*
X520449Y380607D01*
X521072Y381085D01*
X521958Y382240D01*
X522515Y383585D01*
X522705Y385028D01*
Y385972D01*
X522515Y387415D01*
X521958Y388760D01*
X521072Y389915D01*
X519918Y390801D01*
X518573Y391358D01*
X517130Y391548D01*
X515687Y391358D01*
X514342Y390801D01*
X513188Y389915D01*
X513014Y389688D01*
X512977Y389668D01*
X510653D01*
X510616Y389688D01*
X510442Y389915D01*
X509288Y390801D01*
X507943Y391358D01*
X507000Y391482D01*
Y385500D01*
Y379518D01*
X507943Y379642D01*
X509288Y380199D01*
X510442Y381085D01*
X510616Y381312D01*
X510653Y381332D01*
X512977D01*
X513014Y381312D01*
X513188Y381085D01*
X514342Y380199D01*
X514581Y380100D01*
Y377870D01*
X514775Y376895D01*
X515328Y376068D01*
X542451Y348944D01*
Y251056D01*
X528944Y237549D01*
X361056D01*
X277549Y321056D01*
Y326233D01*
X279397Y326998D01*
X286233Y320162D01*
X286212Y320000D01*
X286341Y319020D01*
X286719Y318106D01*
X287321Y317321D01*
X288106Y316719D01*
X289019Y316341D01*
X290000Y316212D01*
X290981Y316341D01*
X291894Y316719D01*
X292679Y317321D01*
X293281Y318106D01*
X293659Y319020D01*
X293788Y320000D01*
X293659Y320981D01*
X293281Y321894D01*
X292679Y322679D01*
X291894Y323281D01*
X290981Y323659D01*
X290000Y323788D01*
X289838Y323767D01*
X276802Y336802D01*
X275975Y337355D01*
X275000Y337549D01*
X241056D01*
X215625Y362980D01*
X215796Y363874D01*
X216429Y365004D01*
X217109Y365094D01*
X218142Y365522D01*
X219030Y366203D01*
X219711Y367090D01*
X220139Y368123D01*
X220285Y369232D01*
X220139Y370341D01*
X219711Y371375D01*
X219030Y372262D01*
X218142Y372943D01*
X217109Y373371D01*
X216000Y373517D01*
X214891Y373371D01*
X213858Y372943D01*
X212970Y372262D01*
X212289Y371375D01*
X211861Y370341D01*
X211772Y369661D01*
X210642Y369028D01*
X209747Y368857D01*
X207549Y371056D01*
Y377079D01*
X207355Y378054D01*
X206802Y378881D01*
X182392Y403292D01*
X182817Y404088D01*
X183324Y405760D01*
X183496Y407500D01*
X183324Y409240D01*
X182817Y410912D01*
X181993Y412454D01*
X180884Y413805D01*
X179533Y414914D01*
X177991Y415738D01*
X176318Y416246D01*
X174579Y416417D01*
X172839Y416246D01*
X171166Y415738D01*
X169625Y414914D01*
X168273Y413805D01*
X167165Y412454D01*
X166341Y410912D01*
X166079Y410049D01*
X163000D01*
X162738Y410912D01*
X161914Y412454D01*
X160805Y413805D01*
X159454Y414914D01*
X157912Y415738D01*
X156240Y416246D01*
X154500Y416417D01*
X152760Y416246D01*
X151088Y415738D01*
X149546Y414914D01*
X148195Y413805D01*
X147086Y412454D01*
X146776Y411874D01*
X144508D01*
X144198Y412454D01*
X143089Y413805D01*
X141737Y414914D01*
X140196Y415738D01*
X139809Y415855D01*
Y431790D01*
X145311Y437291D01*
X154449D01*
Y450709D01*
D02*
G37*
G36*
X236500Y415052D02*
X235391Y414906D01*
X234358Y414478D01*
X233470Y413797D01*
X232789Y412910D01*
X232361Y411877D01*
X232215Y410768D01*
X232361Y409659D01*
X232789Y408625D01*
X233470Y407738D01*
X234358Y407057D01*
X235391Y406629D01*
X236500Y406483D01*
X237609Y406629D01*
X238642Y407057D01*
X239530Y407738D01*
X240211Y408625D01*
X240639Y409659D01*
X240785Y410768D01*
X240639Y411877D01*
X240211Y412910D01*
X239530Y413797D01*
X238642Y414478D01*
X237609Y414906D01*
X236500Y415052D01*
D02*
G37*
G36*
X315000Y415052D02*
X313891Y414906D01*
X312858Y414478D01*
X311970Y413798D01*
X311289Y412910D01*
X310861Y411877D01*
X310715Y410768D01*
X310861Y409659D01*
X311289Y408625D01*
X311970Y407738D01*
X312858Y407057D01*
X313891Y406629D01*
X315000Y406483D01*
X316109Y406629D01*
X317142Y407057D01*
X318030Y407738D01*
X318711Y408625D01*
X319139Y409659D01*
X319285Y410768D01*
X319139Y411877D01*
X318711Y412910D01*
X318030Y413798D01*
X317142Y414478D01*
X316109Y414906D01*
X315000Y415052D01*
D02*
G37*
G36*
X384500Y418464D02*
X384086Y418410D01*
X383235Y418057D01*
X382504Y417496D01*
X381943Y416765D01*
X381590Y415914D01*
X381536Y415500D01*
X384500D01*
Y418464D01*
D02*
G37*
G36*
X385500D02*
Y415500D01*
X388464D01*
X388410Y415914D01*
X388057Y416765D01*
X387496Y417496D01*
X386765Y418057D01*
X385914Y418410D01*
X385500Y418464D01*
D02*
G37*
G36*
X484232Y419285D02*
X483123Y419139D01*
X482090Y418711D01*
X481203Y418030D01*
X480522Y417142D01*
X480094Y416109D01*
X479948Y415000D01*
X480094Y413891D01*
X480522Y412858D01*
X481203Y411970D01*
X482090Y411289D01*
X483123Y410861D01*
X484232Y410715D01*
X485341Y410861D01*
X486375Y411289D01*
X487262Y411970D01*
X487943Y412858D01*
X488371Y413891D01*
X488517Y415000D01*
X488371Y416109D01*
X487943Y417142D01*
X487262Y418030D01*
X486375Y418711D01*
X485341Y419139D01*
X484232Y419285D01*
D02*
G37*
G36*
X525768D02*
X524659Y419139D01*
X523625Y418711D01*
X522738Y418030D01*
X522057Y417142D01*
X521629Y416109D01*
X521483Y415000D01*
X521629Y413891D01*
X522057Y412858D01*
X522738Y411970D01*
X523625Y411289D01*
X524659Y410861D01*
X525768Y410715D01*
X526877Y410861D01*
X527910Y411289D01*
X528797Y411970D01*
X529478Y412858D01*
X529906Y413891D01*
X530052Y415000D01*
X529906Y416109D01*
X529478Y417142D01*
X528797Y418030D01*
X527910Y418711D01*
X526877Y419139D01*
X525768Y419285D01*
D02*
G37*
G36*
X205449Y483874D02*
X191638D01*
Y466126D01*
X205449D01*
Y483874D01*
D02*
G37*
G36*
X320957Y483858D02*
X320103Y483774D01*
X318801Y483379D01*
X317602Y482738D01*
X316550Y481875D01*
X315687Y480824D01*
X315046Y479624D01*
X314651Y478322D01*
X314518Y476968D01*
Y475500D01*
X320957D01*
Y483858D01*
D02*
G37*
G36*
X321957D02*
Y475500D01*
X328396D01*
Y476968D01*
X328262Y478322D01*
X327867Y479624D01*
X327226Y480824D01*
X326363Y481875D01*
X325312Y482738D01*
X324112Y483379D01*
X322810Y483774D01*
X321957Y483858D01*
D02*
G37*
G36*
X240957D02*
X240103Y483774D01*
X238801Y483379D01*
X237602Y482738D01*
X236550Y481875D01*
X235687Y480824D01*
X235046Y479624D01*
X234651Y478322D01*
X234518Y476968D01*
Y475500D01*
X240957D01*
Y483858D01*
D02*
G37*
G36*
X241957D02*
Y475500D01*
X248396D01*
Y476968D01*
X248262Y478322D01*
X247867Y479624D01*
X247226Y480824D01*
X246363Y481875D01*
X245312Y482738D01*
X244112Y483379D01*
X242810Y483774D01*
X241957Y483858D01*
D02*
G37*
G36*
X485957D02*
X485103Y483774D01*
X483801Y483379D01*
X482602Y482738D01*
X481550Y481875D01*
X480687Y480824D01*
X480046Y479624D01*
X479651Y478322D01*
X479518Y476968D01*
Y475500D01*
X485957D01*
Y483858D01*
D02*
G37*
G36*
X486957D02*
Y475500D01*
X493396D01*
Y476968D01*
X493262Y478322D01*
X492867Y479624D01*
X492226Y480824D01*
X491363Y481875D01*
X490312Y482738D01*
X489112Y483379D01*
X487810Y483774D01*
X486957Y483858D01*
D02*
G37*
G36*
X404500D02*
X403646Y483774D01*
X402345Y483379D01*
X401145Y482738D01*
X400093Y481875D01*
X399231Y480824D01*
X398589Y479624D01*
X398194Y478322D01*
X398061Y476968D01*
Y475500D01*
X404500D01*
Y483858D01*
D02*
G37*
G36*
X405500D02*
Y475500D01*
X411939D01*
Y476968D01*
X411806Y478322D01*
X411411Y479624D01*
X410770Y480824D01*
X409907Y481875D01*
X408855Y482738D01*
X407655Y483379D01*
X406354Y483774D01*
X405500Y483858D01*
D02*
G37*
G36*
X493396Y474500D02*
X486957D01*
Y466142D01*
X487810Y466226D01*
X489112Y466621D01*
X490312Y467262D01*
X491363Y468125D01*
X492226Y469176D01*
X492867Y470376D01*
X493262Y471678D01*
X493396Y473032D01*
Y474500D01*
D02*
G37*
G36*
X450449Y483874D02*
X436638D01*
Y466126D01*
X450449D01*
Y483874D01*
D02*
G37*
G36*
X248396Y474500D02*
X241957D01*
Y466142D01*
X242810Y466226D01*
X244112Y466621D01*
X245312Y467262D01*
X246363Y468125D01*
X247226Y469176D01*
X247867Y470376D01*
X248262Y471678D01*
X248396Y473032D01*
Y474500D01*
D02*
G37*
G36*
X285449Y483874D02*
X271638D01*
Y466126D01*
X285449D01*
Y483874D01*
D02*
G37*
G36*
X368992D02*
X355181D01*
Y466126D01*
X368992D01*
Y483874D01*
D02*
G37*
G36*
X411939Y474500D02*
X405500D01*
Y466142D01*
X406354Y466226D01*
X407655Y466621D01*
X408855Y467262D01*
X409907Y468125D01*
X410770Y469176D01*
X411411Y470376D01*
X411806Y471678D01*
X411939Y473032D01*
Y474500D01*
D02*
G37*
G36*
X485957D02*
X479518D01*
Y473032D01*
X479651Y471678D01*
X480046Y470376D01*
X480687Y469176D01*
X481550Y468125D01*
X482602Y467262D01*
X483801Y466621D01*
X485103Y466226D01*
X485957Y466142D01*
Y474500D01*
D02*
G37*
G36*
X328396D02*
X321957D01*
Y466142D01*
X322810Y466226D01*
X324112Y466621D01*
X325312Y467262D01*
X326363Y468125D01*
X327226Y469176D01*
X327867Y470376D01*
X328262Y471678D01*
X328396Y473032D01*
Y474500D01*
D02*
G37*
G36*
X465000Y483907D02*
X463646Y483774D01*
X462345Y483379D01*
X461145Y482738D01*
X460093Y481875D01*
X459231Y480824D01*
X458589Y479624D01*
X458194Y478322D01*
X458061Y476968D01*
Y473032D01*
X458194Y471678D01*
X458589Y470376D01*
X459231Y469176D01*
X459957Y468291D01*
Y465000D01*
X460129Y463695D01*
X460633Y462478D01*
X460966Y462043D01*
X460147Y460043D01*
X405632D01*
X399996Y465680D01*
X401145Y467262D01*
X402345Y466621D01*
X403646Y466226D01*
X404500Y466142D01*
Y474500D01*
X398061D01*
Y473032D01*
X398194Y471678D01*
X398589Y470376D01*
X399231Y469176D01*
X397648Y468027D01*
X390482Y475193D01*
Y476968D01*
X390349Y478322D01*
X389954Y479624D01*
X389313Y480824D01*
X388450Y481875D01*
X387398Y482738D01*
X386199Y483379D01*
X384897Y483774D01*
X383543Y483907D01*
X382190Y483774D01*
X380888Y483379D01*
X379688Y482738D01*
X378637Y481875D01*
X377774Y480824D01*
X377133Y479624D01*
X376738Y478322D01*
X376604Y476968D01*
Y473032D01*
X376738Y471678D01*
X377133Y470376D01*
X377774Y469176D01*
X378637Y468125D01*
X379688Y467262D01*
X380888Y466621D01*
X382190Y466226D01*
X383543Y466093D01*
X384897Y466226D01*
X385118Y466293D01*
X389520Y461891D01*
X388755Y460043D01*
X322089D01*
X316452Y465680D01*
X317602Y467262D01*
X318801Y466621D01*
X320103Y466226D01*
X320957Y466142D01*
Y474500D01*
X314518D01*
Y473032D01*
X314651Y471678D01*
X315046Y470376D01*
X315687Y469176D01*
X314105Y468027D01*
X306939Y475193D01*
Y476968D01*
X306806Y478322D01*
X306411Y479624D01*
X305769Y480824D01*
X304907Y481875D01*
X303855Y482738D01*
X302655Y483379D01*
X301354Y483774D01*
X300000Y483907D01*
X298646Y483774D01*
X297345Y483379D01*
X296145Y482738D01*
X295093Y481875D01*
X294231Y480824D01*
X293589Y479624D01*
X293194Y478322D01*
X293061Y476968D01*
Y473032D01*
X293194Y471678D01*
X293589Y470376D01*
X294231Y469176D01*
X295093Y468125D01*
X296145Y467262D01*
X297345Y466621D01*
X298646Y466226D01*
X300000Y466093D01*
X301354Y466226D01*
X301575Y466293D01*
X305977Y461891D01*
X305212Y460043D01*
X242089D01*
X236452Y465680D01*
X237602Y467262D01*
X238801Y466621D01*
X240103Y466226D01*
X240957Y466142D01*
Y474500D01*
X234518D01*
Y473032D01*
X234651Y471678D01*
X235046Y470376D01*
X235687Y469176D01*
X234105Y468027D01*
X226939Y475193D01*
Y476968D01*
X226806Y478322D01*
X226411Y479624D01*
X225769Y480824D01*
X224907Y481875D01*
X223855Y482738D01*
X222655Y483379D01*
X221354Y483774D01*
X220000Y483907D01*
X218646Y483774D01*
X217345Y483379D01*
X216145Y482738D01*
X215093Y481875D01*
X214230Y480824D01*
X213589Y479624D01*
X213194Y478322D01*
X213061Y476968D01*
Y473032D01*
X213194Y471678D01*
X213589Y470376D01*
X214230Y469176D01*
X215093Y468125D01*
X216145Y467262D01*
X217345Y466621D01*
X218646Y466226D01*
X220000Y466093D01*
X221354Y466226D01*
X221575Y466293D01*
X236434Y451434D01*
X237478Y450632D01*
X238695Y450129D01*
X240000Y449957D01*
X475000D01*
X475000Y449957D01*
X475000Y449957D01*
X524446D01*
X538849Y435554D01*
X538794Y435000D01*
X538924Y433685D01*
X539307Y432420D01*
X539930Y431255D01*
X540769Y430233D01*
X541790Y429395D01*
X542956Y428772D01*
X544220Y428388D01*
X545535Y428259D01*
X546850Y428388D01*
X548115Y428772D01*
X549281Y429395D01*
X550302Y430233D01*
X551140Y431255D01*
X551763Y432420D01*
X552147Y433685D01*
X552277Y435000D01*
X552147Y436315D01*
X551763Y437580D01*
X551140Y438745D01*
X550302Y439767D01*
X549281Y440605D01*
X548115Y441228D01*
X547145Y441522D01*
X530101Y458566D01*
X529057Y459368D01*
X527841Y459871D01*
X526535Y460043D01*
X477089D01*
X470043Y467089D01*
Y468291D01*
X470770Y469176D01*
X471411Y470376D01*
X471806Y471678D01*
X471939Y473032D01*
Y476968D01*
X471806Y478322D01*
X471411Y479624D01*
X470770Y480824D01*
X469907Y481875D01*
X468855Y482738D01*
X467655Y483379D01*
X466354Y483774D01*
X465000Y483907D01*
D02*
G37*
G36*
X216000Y415052D02*
X214891Y414906D01*
X213858Y414478D01*
X212970Y413797D01*
X212289Y412910D01*
X211861Y411877D01*
X211715Y410768D01*
X211861Y409659D01*
X212289Y408625D01*
X212970Y407738D01*
X213858Y407057D01*
X214891Y406629D01*
X216000Y406483D01*
X217109Y406629D01*
X218142Y407057D01*
X219030Y407738D01*
X219711Y408625D01*
X220139Y409659D01*
X220285Y410768D01*
X220139Y411877D01*
X219711Y412910D01*
X219030Y413797D01*
X218142Y414478D01*
X217109Y414906D01*
X216000Y415052D01*
D02*
G37*
G36*
X290000Y388530D02*
X289086Y388410D01*
X288235Y388057D01*
X287504Y387496D01*
X286943Y386765D01*
X286590Y385914D01*
X286470Y385000D01*
X286590Y384086D01*
X286943Y383235D01*
X287504Y382504D01*
X288235Y381943D01*
X289086Y381590D01*
X290000Y381470D01*
X290914Y381590D01*
X291765Y381943D01*
X292496Y382504D01*
X293057Y383235D01*
X293410Y384086D01*
X293530Y385000D01*
X293410Y385914D01*
X293057Y386765D01*
X292496Y387496D01*
X291765Y388057D01*
X290914Y388410D01*
X290000Y388530D01*
D02*
G37*
G36*
X434500Y384500D02*
X431536D01*
X431590Y384086D01*
X431943Y383235D01*
X432504Y382504D01*
X433235Y381943D01*
X434086Y381590D01*
X434500Y381536D01*
Y384500D01*
D02*
G37*
G36*
X495870Y391548D02*
X494427Y391358D01*
X493082Y390801D01*
X491928Y389915D01*
X491042Y388760D01*
X490485Y387415D01*
X490295Y385972D01*
Y385028D01*
X490485Y383585D01*
X491042Y382240D01*
X491928Y381085D01*
X493082Y380199D01*
X494427Y379642D01*
X495870Y379452D01*
X497313Y379642D01*
X498658Y380199D01*
X499812Y381085D01*
X499986Y381312D01*
X500023Y381332D01*
X502347D01*
X502384Y381312D01*
X502558Y381085D01*
X503712Y380199D01*
X505057Y379642D01*
X506000Y379518D01*
Y385500D01*
Y391482D01*
X505057Y391358D01*
X503712Y390801D01*
X502558Y389915D01*
X502384Y389688D01*
X502347Y389668D01*
X500023D01*
X499986Y389688D01*
X499812Y389915D01*
X498658Y390801D01*
X497313Y391358D01*
X495870Y391548D01*
D02*
G37*
G36*
X258000Y388530D02*
X257086Y388410D01*
X256235Y388057D01*
X255504Y387496D01*
X254943Y386765D01*
X254590Y385914D01*
X254470Y385000D01*
X254590Y384086D01*
X254943Y383235D01*
X255504Y382504D01*
X256235Y381943D01*
X257086Y381590D01*
X258000Y381470D01*
X258914Y381590D01*
X259765Y381943D01*
X260496Y382504D01*
X261057Y383235D01*
X261410Y384086D01*
X261530Y385000D01*
X261410Y385914D01*
X261057Y386765D01*
X260496Y387496D01*
X259765Y388057D01*
X258914Y388410D01*
X258000Y388530D01*
D02*
G37*
G36*
X470464Y384500D02*
X467500D01*
Y381536D01*
X467914Y381590D01*
X468765Y381943D01*
X469496Y382504D01*
X470057Y383235D01*
X470410Y384086D01*
X470464Y384500D01*
D02*
G37*
G36*
X434500Y388464D02*
X434086Y388410D01*
X433235Y388057D01*
X432504Y387496D01*
X431943Y386765D01*
X431590Y385914D01*
X431536Y385500D01*
X434500D01*
Y388464D01*
D02*
G37*
G36*
X438464Y384500D02*
X435500D01*
Y381536D01*
X435914Y381590D01*
X436765Y381943D01*
X437496Y382504D01*
X438057Y383235D01*
X438410Y384086D01*
X438464Y384500D01*
D02*
G37*
G36*
X466500D02*
X463536D01*
X463590Y384086D01*
X463943Y383235D01*
X464504Y382504D01*
X465235Y381943D01*
X466086Y381590D01*
X466500Y381536D01*
Y384500D01*
D02*
G37*
G36*
X290500Y378464D02*
Y375500D01*
X293464D01*
X293410Y375914D01*
X293057Y376765D01*
X292496Y377496D01*
X291765Y378057D01*
X290914Y378410D01*
X290500Y378464D01*
D02*
G37*
G36*
X289500Y368464D02*
X289086Y368410D01*
X288235Y368057D01*
X287504Y367496D01*
X286943Y366765D01*
X286590Y365914D01*
X286536Y365500D01*
X289500D01*
Y368464D01*
D02*
G37*
G36*
X290500D02*
Y365500D01*
X293464D01*
X293410Y365914D01*
X293057Y366765D01*
X292496Y367496D01*
X291765Y368057D01*
X290914Y368410D01*
X290500Y368464D01*
D02*
G37*
G36*
X315000Y373517D02*
X313891Y373371D01*
X312858Y372943D01*
X311970Y372262D01*
X311289Y371375D01*
X310861Y370341D01*
X310715Y369232D01*
X310861Y368123D01*
X311289Y367090D01*
X311970Y366203D01*
X312858Y365522D01*
X313891Y365094D01*
X315000Y364948D01*
X316109Y365094D01*
X317142Y365522D01*
X318030Y366203D01*
X318711Y367090D01*
X319139Y368123D01*
X319285Y369232D01*
X319139Y370341D01*
X318711Y371375D01*
X318030Y372262D01*
X317142Y372943D01*
X316109Y373371D01*
X315000Y373517D01*
D02*
G37*
G36*
X335500D02*
X334391Y373371D01*
X333358Y372943D01*
X332470Y372262D01*
X331789Y371375D01*
X331361Y370341D01*
X331215Y369232D01*
X331361Y368123D01*
X331789Y367090D01*
X332470Y366203D01*
X333358Y365522D01*
X334391Y365094D01*
X335500Y364948D01*
X336609Y365094D01*
X337642Y365522D01*
X338530Y366203D01*
X339211Y367090D01*
X339639Y368123D01*
X339785Y369232D01*
X339639Y370341D01*
X339211Y371375D01*
X338530Y372262D01*
X337642Y372943D01*
X336609Y373371D01*
X335500Y373517D01*
D02*
G37*
G36*
X293464Y374500D02*
X290500D01*
Y371536D01*
X290914Y371590D01*
X291765Y371943D01*
X292496Y372504D01*
X293057Y373235D01*
X293410Y374086D01*
X293464Y374500D01*
D02*
G37*
G36*
X289500Y378464D02*
X289086Y378410D01*
X288235Y378057D01*
X287504Y377496D01*
X286943Y376765D01*
X286590Y375914D01*
X286536Y375500D01*
X289500D01*
Y378464D01*
D02*
G37*
G36*
X258000Y378530D02*
X257086Y378410D01*
X256235Y378057D01*
X255504Y377496D01*
X254943Y376765D01*
X254590Y375914D01*
X254470Y375000D01*
X254590Y374086D01*
X254943Y373235D01*
X255504Y372504D01*
X256235Y371943D01*
X257086Y371590D01*
X258000Y371470D01*
X258914Y371590D01*
X259765Y371943D01*
X260496Y372504D01*
X261057Y373235D01*
X261410Y374086D01*
X261530Y375000D01*
X261410Y375914D01*
X261057Y376765D01*
X260496Y377496D01*
X259765Y378057D01*
X258914Y378410D01*
X258000Y378530D01*
D02*
G37*
G36*
X289500Y374500D02*
X286536D01*
X286590Y374086D01*
X286943Y373235D01*
X287504Y372504D01*
X288235Y371943D01*
X289086Y371590D01*
X289500Y371536D01*
Y374500D01*
D02*
G37*
G36*
X467000Y398530D02*
X466086Y398410D01*
X465235Y398057D01*
X464504Y397496D01*
X463943Y396765D01*
X463590Y395914D01*
X463470Y395000D01*
X463590Y394086D01*
X463943Y393235D01*
X464504Y392504D01*
X465235Y391943D01*
X466086Y391590D01*
X467000Y391470D01*
X467914Y391590D01*
X468765Y391943D01*
X469496Y392504D01*
X470057Y393235D01*
X470410Y394086D01*
X470530Y395000D01*
X470410Y395914D01*
X470057Y396765D01*
X469496Y397496D01*
X468765Y398057D01*
X467914Y398410D01*
X467000Y398530D01*
D02*
G37*
G36*
X545535Y401692D02*
X544720Y401612D01*
X543456Y401228D01*
X542290Y400605D01*
X541269Y399767D01*
X540430Y398745D01*
X539807Y397580D01*
X539424Y396315D01*
X539344Y395500D01*
X545535D01*
Y401692D01*
D02*
G37*
G36*
X290000Y398530D02*
X289086Y398410D01*
X288235Y398057D01*
X287504Y397496D01*
X286943Y396765D01*
X286590Y395914D01*
X286470Y395000D01*
X286590Y394086D01*
X286943Y393235D01*
X287504Y392504D01*
X288235Y391943D01*
X289086Y391590D01*
X290000Y391470D01*
X290914Y391590D01*
X291765Y391943D01*
X292496Y392504D01*
X293057Y393235D01*
X293410Y394086D01*
X293530Y395000D01*
X293410Y395914D01*
X293057Y396765D01*
X292496Y397496D01*
X291765Y398057D01*
X290914Y398410D01*
X290000Y398530D01*
D02*
G37*
G36*
X435000D02*
X434086Y398410D01*
X433235Y398057D01*
X432504Y397496D01*
X431943Y396765D01*
X431590Y395914D01*
X431470Y395000D01*
X431590Y394086D01*
X431943Y393235D01*
X432504Y392504D01*
X433235Y391943D01*
X434086Y391590D01*
X435000Y391470D01*
X435914Y391590D01*
X436765Y391943D01*
X437496Y392504D01*
X438057Y393235D01*
X438410Y394086D01*
X438530Y395000D01*
X438410Y395914D01*
X438057Y396765D01*
X437496Y397496D01*
X436765Y398057D01*
X435914Y398410D01*
X435000Y398530D01*
D02*
G37*
G36*
X546535Y401692D02*
Y395500D01*
X552727D01*
X552647Y396315D01*
X552263Y397580D01*
X551640Y398745D01*
X550802Y399767D01*
X549781Y400605D01*
X548615Y401228D01*
X547351Y401612D01*
X546535Y401692D01*
D02*
G37*
G36*
X435000Y408530D02*
X434086Y408410D01*
X433235Y408057D01*
X432504Y407496D01*
X431943Y406765D01*
X431590Y405914D01*
X431470Y405000D01*
X431590Y404086D01*
X431943Y403235D01*
X432504Y402504D01*
X433235Y401943D01*
X434086Y401590D01*
X435000Y401470D01*
X435914Y401590D01*
X436765Y401943D01*
X437496Y402504D01*
X438057Y403235D01*
X438410Y404086D01*
X438530Y405000D01*
X438410Y405914D01*
X438057Y406765D01*
X437496Y407496D01*
X436765Y408057D01*
X435914Y408410D01*
X435000Y408530D01*
D02*
G37*
G36*
X467000D02*
X466086Y408410D01*
X465235Y408057D01*
X464504Y407496D01*
X463943Y406765D01*
X463590Y405914D01*
X463470Y405000D01*
X463590Y404086D01*
X463943Y403235D01*
X464504Y402504D01*
X465235Y401943D01*
X466086Y401590D01*
X467000Y401470D01*
X467914Y401590D01*
X468765Y401943D01*
X469496Y402504D01*
X470057Y403235D01*
X470410Y404086D01*
X470530Y405000D01*
X470410Y405914D01*
X470057Y406765D01*
X469496Y407496D01*
X468765Y408057D01*
X467914Y408410D01*
X467000Y408530D01*
D02*
G37*
G36*
X345000Y403530D02*
X344086Y403410D01*
X343235Y403057D01*
X342504Y402496D01*
X341943Y401765D01*
X341590Y400914D01*
X341470Y400000D01*
X341590Y399086D01*
X341943Y398235D01*
X342504Y397504D01*
X343235Y396943D01*
X344086Y396590D01*
X345000Y396470D01*
X345914Y396590D01*
X346765Y396943D01*
X347496Y397504D01*
X348057Y398235D01*
X348410Y399086D01*
X348530Y400000D01*
X348410Y400914D01*
X348057Y401765D01*
X347496Y402496D01*
X346765Y403057D01*
X345914Y403410D01*
X345000Y403530D01*
D02*
G37*
G36*
X258000Y421530D02*
X257086Y421410D01*
X256235Y421057D01*
X255504Y420496D01*
X254943Y419765D01*
X254590Y418914D01*
X254470Y418000D01*
X254590Y417086D01*
X254943Y416235D01*
X255504Y415504D01*
X256235Y414943D01*
X256471Y414845D01*
Y408155D01*
X256235Y408057D01*
X255504Y407496D01*
X254943Y406765D01*
X254590Y405914D01*
X254470Y405000D01*
X254590Y404086D01*
X254943Y403235D01*
X255504Y402504D01*
X256235Y401943D01*
X257086Y401590D01*
X258000Y401470D01*
X258914Y401590D01*
X259765Y401943D01*
X260496Y402504D01*
X261057Y403235D01*
X261410Y404086D01*
X261530Y405000D01*
X261410Y405914D01*
X261057Y406765D01*
X260496Y407496D01*
X259765Y408057D01*
X259529Y408155D01*
Y414845D01*
X259765Y414943D01*
X260496Y415504D01*
X261057Y416235D01*
X261410Y417086D01*
X261530Y418000D01*
X261410Y418914D01*
X261057Y419765D01*
X260496Y420496D01*
X259765Y421057D01*
X258914Y421410D01*
X258000Y421530D01*
D02*
G37*
G36*
X467500Y388464D02*
Y385500D01*
X470464D01*
X470410Y385914D01*
X470057Y386765D01*
X469496Y387496D01*
X468765Y388057D01*
X467914Y388410D01*
X467500Y388464D01*
D02*
G37*
G36*
X596429Y403324D02*
X594805Y403164D01*
X593244Y402690D01*
X591805Y401921D01*
X590544Y400886D01*
X589508Y399624D01*
X588739Y398185D01*
X588266Y396624D01*
X588106Y395000D01*
X588266Y393376D01*
X588739Y391815D01*
X589508Y390376D01*
X590544Y389114D01*
X591805Y388079D01*
X593244Y387310D01*
X594805Y386836D01*
X596429Y386677D01*
X598053Y386836D01*
X599614Y387310D01*
X601053Y388079D01*
X602315Y389114D01*
X603350Y390376D01*
X604119Y391815D01*
X604593Y393376D01*
X604753Y395000D01*
X604593Y396624D01*
X604119Y398185D01*
X603350Y399624D01*
X602315Y400886D01*
X601053Y401921D01*
X599614Y402690D01*
X598053Y403164D01*
X596429Y403324D01*
D02*
G37*
G36*
X435500Y388464D02*
Y385500D01*
X438464D01*
X438410Y385914D01*
X438057Y386765D01*
X437496Y387496D01*
X436765Y388057D01*
X435914Y388410D01*
X435500Y388464D01*
D02*
G37*
G36*
X466500D02*
X466086Y388410D01*
X465235Y388057D01*
X464504Y387496D01*
X463943Y386765D01*
X463590Y385914D01*
X463536Y385500D01*
X466500D01*
Y388464D01*
D02*
G37*
G36*
X574398Y401709D02*
X560980D01*
Y388291D01*
X574398D01*
Y401709D01*
D02*
G37*
G36*
X545535Y394500D02*
X539344D01*
X539424Y393685D01*
X539807Y392420D01*
X540430Y391255D01*
X541269Y390233D01*
X542290Y389395D01*
X543456Y388772D01*
X544720Y388388D01*
X545535Y388308D01*
Y394500D01*
D02*
G37*
G36*
X258000Y398530D02*
X257086Y398410D01*
X256235Y398057D01*
X255504Y397496D01*
X254943Y396765D01*
X254590Y395914D01*
X254470Y395000D01*
X254590Y394086D01*
X254943Y393235D01*
X255504Y392504D01*
X256235Y391943D01*
X257086Y391590D01*
X258000Y391470D01*
X258914Y391590D01*
X259765Y391943D01*
X260496Y392504D01*
X261057Y393235D01*
X261410Y394086D01*
X261530Y395000D01*
X261410Y395914D01*
X261057Y396765D01*
X260496Y397496D01*
X259765Y398057D01*
X258914Y398410D01*
X258000Y398530D01*
D02*
G37*
G36*
X552727Y394500D02*
X546535D01*
Y388308D01*
X547351Y388388D01*
X548615Y388772D01*
X549781Y389395D01*
X550802Y390233D01*
X551640Y391255D01*
X552263Y392420D01*
X552647Y393685D01*
X552727Y394500D01*
D02*
G37*
%LPD*%
G36*
X383471Y366523D02*
Y355633D01*
X380003Y352166D01*
X379602Y352083D01*
X377672Y352267D01*
X377496Y352496D01*
X376765Y353057D01*
X375914Y353410D01*
X375000Y353530D01*
X374529Y353468D01*
X373264Y354212D01*
X372529Y354930D01*
Y358195D01*
X381623Y367288D01*
X383471Y366523D01*
D02*
G37*
D14*
X433937Y270000D02*
X438937Y265000D01*
X450000D01*
X394500Y295500D02*
X394683D01*
X424341Y265843D01*
X429157D01*
X450000Y245000D01*
X406500Y306000D02*
X419000D01*
X373343Y339157D02*
X406500Y306000D01*
X373343Y339157D02*
Y346000D01*
X419000Y306000D02*
X480000Y245000D01*
X415000Y310000D02*
X440000Y335000D01*
X455000Y415000D02*
X467000D01*
X445000Y405000D02*
X455000Y415000D01*
X435000D02*
X445000Y405000D01*
Y390000D02*
Y405000D01*
Y390000D02*
X475000Y360000D01*
Y350000D02*
Y360000D01*
X460000Y335000D02*
X475000Y350000D01*
X440000Y335000D02*
X460000D01*
X394500Y295500D02*
Y307232D01*
X174579Y407500D02*
X174579Y407500D01*
X136783Y407500D02*
X136784Y407500D01*
X290000Y405000D02*
X315000Y380000D01*
X385000D01*
X380000Y340000D02*
X390000Y330000D01*
X405000D01*
X258000Y405000D02*
Y418000D01*
X371000Y348343D02*
X373343Y346000D01*
X371000Y348343D02*
Y358828D01*
X385000Y372828D01*
Y380000D01*
X391705Y376705D02*
Y391705D01*
X385000Y370000D02*
X391705Y376705D01*
Y391705D02*
X395000Y395000D01*
X394480Y405520D02*
X455000Y345000D01*
X392533Y405520D02*
X394480D01*
X385000Y355000D02*
Y370000D01*
X380000Y350000D02*
X385000Y355000D01*
X375000Y350000D02*
X380000D01*
X335000Y390000D02*
X380000D01*
X325000Y400000D02*
X335000Y390000D01*
X387285Y410768D02*
X392533Y405520D01*
X335500Y410768D02*
X387285D01*
D15*
X526535Y455000D02*
X546535Y435000D01*
X475000Y455000D02*
X526535D01*
X220000Y475000D02*
X240000Y455000D01*
X320000D01*
X300000Y475000D02*
X320000Y455000D01*
X403543D01*
X383543Y475000D02*
X403543Y455000D01*
X465000Y465000D02*
Y475000D01*
Y465000D02*
X475000Y455000D01*
X403543D02*
X475000D01*
D16*
X290000Y320000D02*
D03*
X370000D02*
D03*
D17*
X467000Y385000D02*
D03*
Y395000D02*
D03*
Y405000D02*
D03*
Y415000D02*
D03*
X435000Y385000D02*
D03*
Y395000D02*
D03*
Y405000D02*
D03*
X258000Y375000D02*
D03*
Y385000D02*
D03*
Y395000D02*
D03*
Y405000D02*
D03*
X290000Y375000D02*
D03*
Y385000D02*
D03*
Y395000D02*
D03*
X160000Y260000D02*
D03*
Y240000D02*
D03*
Y250000D02*
D03*
X415000Y310000D02*
D03*
X150000Y240000D02*
D03*
Y260000D02*
D03*
X380000Y340000D02*
D03*
X405000Y330000D02*
D03*
X290000Y365000D02*
D03*
X258000Y418000D02*
D03*
X385000Y380000D02*
D03*
X395000Y395000D02*
D03*
X375000Y350000D02*
D03*
Y385000D02*
D03*
X353740Y351260D02*
D03*
X325000Y400000D02*
D03*
X380000Y390000D02*
D03*
X345000Y400000D02*
D03*
X385000Y415000D02*
D03*
D18*
X435000D02*
D03*
X290000Y405000D02*
D03*
D19*
X450000Y265000D02*
D03*
Y245000D02*
D03*
Y255000D02*
D03*
X480000Y265000D02*
D03*
Y245000D02*
D03*
Y255000D02*
D03*
D20*
X129000Y301000D02*
D03*
Y311000D02*
D03*
D21*
X156768Y326000D02*
D03*
X115232D02*
D03*
X345768Y350000D02*
D03*
X304232D02*
D03*
X236500Y410768D02*
D03*
Y369232D02*
D03*
X335500Y410768D02*
D03*
Y369232D02*
D03*
X315000Y410768D02*
D03*
Y369232D02*
D03*
X394500Y410268D02*
D03*
Y368732D02*
D03*
X484232Y415000D02*
D03*
X525768D02*
D03*
X394500Y307232D02*
D03*
Y348768D02*
D03*
X216000Y410768D02*
D03*
Y369232D02*
D03*
D22*
X355000Y285000D02*
D03*
X285000D02*
D03*
X215000D02*
D03*
X585000Y315000D02*
D03*
X520000D02*
D03*
X455000D02*
D03*
D23*
X355000Y255000D02*
D03*
X285000D02*
D03*
X215000D02*
D03*
X585000Y345000D02*
D03*
X520000D02*
D03*
X455000D02*
D03*
D24*
X203815Y337500D02*
D03*
D25*
X223500D02*
D03*
D26*
X268874Y352500D02*
D03*
X433937Y270000D02*
D03*
D27*
X261000Y352500D02*
D03*
X426063Y270000D02*
D03*
D28*
X124000Y358000D02*
D03*
X151000D02*
D03*
D29*
X121000Y479000D02*
D03*
X594000Y478500D02*
D03*
X589000Y251500D02*
D03*
X126500Y262000D02*
D03*
D30*
X278543Y475000D02*
D03*
X198543D02*
D03*
X362087D02*
D03*
X443543D02*
D03*
D31*
X300000D02*
D03*
X321457D02*
D03*
X220000D02*
D03*
X241457D02*
D03*
X383543D02*
D03*
X405000D02*
D03*
X465000D02*
D03*
X486457D02*
D03*
D32*
X169394Y444000D02*
D03*
X546035Y395000D02*
D03*
X545535Y435000D02*
D03*
D33*
X147740Y444000D02*
D03*
X567689Y395000D02*
D03*
X567189Y435000D02*
D03*
D34*
X119000Y444000D02*
D03*
X596429Y395000D02*
D03*
X595929Y435000D02*
D03*
D35*
X136784Y407500D02*
D03*
X154500D02*
D03*
X116705Y407500D02*
D03*
X174579Y407500D02*
D03*
D36*
X517130Y385500D02*
D03*
X506500D02*
D03*
X495870D02*
D03*
D37*
X240000Y335000D02*
X275000D01*
X205000Y370000D02*
X240000Y335000D01*
X205000Y370000D02*
Y377079D01*
X174579Y407500D02*
X205000Y377079D01*
X545000Y250000D02*
Y350000D01*
X530000Y235000D02*
X545000Y250000D01*
X517130Y377870D02*
X545000Y350000D01*
X580000D02*
X585000Y345000D01*
X545000Y350000D02*
X580000D01*
X517130Y377870D02*
Y385500D01*
X360000Y235000D02*
X530000D01*
X275000Y320000D02*
X360000Y235000D01*
X275000Y320000D02*
Y335000D01*
X290000Y320000D01*
X154500Y407500D02*
X174579D01*
D38*
X116705Y407500D02*
X136783D01*
X136784Y407500D02*
Y433043D01*
X147740Y444000D01*
M02*
