G04 Layer_Color=8388736*
%FSLAX25Y25*%
%MOIN*%
G70*
G01*
G75*
%ADD41C,0.03800*%
%ADD42R,0.04343X0.02572*%
%ADD43R,0.11824X0.11824*%
%ADD44R,0.09461X0.11800*%
%ADD45C,0.15367*%
%ADD46R,0.12217X0.12217*%
%ADD47C,0.12217*%
%ADD48O,0.12611X0.16548*%
%ADD49R,0.12611X0.16548*%
%ADD50R,0.06706X0.06706*%
%ADD51C,0.06706*%
%ADD52C,0.07296*%
%ADD53O,0.09855X0.10800*%
%ADD54C,0.16248*%
%ADD55C,0.35524*%
%ADD56C,0.12217*%
%ADD57C,0.06115*%
%ADD58R,0.06115X0.06115*%
%ADD59R,0.06706X0.06706*%
%ADD60C,0.07099*%
%ADD61C,0.05800*%
%ADD62R,0.05800X0.05800*%
%ADD63C,0.06312*%
D41*
X545000Y375000D02*
D03*
X293000Y422500D02*
D03*
X194500Y411000D02*
D03*
D42*
X353740Y415000D02*
D03*
Y410000D02*
D03*
Y405000D02*
D03*
Y400000D02*
D03*
X375000Y405000D02*
D03*
Y415000D02*
D03*
Y410000D02*
D03*
Y400000D02*
D03*
X353740Y375000D02*
D03*
Y370000D02*
D03*
Y365000D02*
D03*
Y360000D02*
D03*
X375000Y365000D02*
D03*
Y375000D02*
D03*
Y370000D02*
D03*
Y360000D02*
D03*
D43*
X172000Y362000D02*
D03*
X156500Y342500D02*
D03*
D44*
X119500D02*
D03*
D45*
X597000Y280000D02*
D03*
Y322000D02*
D03*
X596929Y353000D02*
D03*
X595929Y435000D02*
D03*
X596429Y395000D02*
D03*
X119000Y444000D02*
D03*
D46*
X568260Y280000D02*
D03*
Y322000D02*
D03*
X568189Y353000D02*
D03*
X567189Y435000D02*
D03*
X567689Y395000D02*
D03*
X147740Y444000D02*
D03*
D47*
X546606Y280000D02*
D03*
Y322000D02*
D03*
X546535Y353000D02*
D03*
X545535Y435000D02*
D03*
X546035Y395000D02*
D03*
X169394Y444000D02*
D03*
D48*
X487957Y473500D02*
D03*
X466500D02*
D03*
X405000Y474000D02*
D03*
X383543D02*
D03*
X322957D02*
D03*
X301500D02*
D03*
X243500Y472000D02*
D03*
X222043D02*
D03*
D49*
X445043Y473500D02*
D03*
X362087Y474000D02*
D03*
X280043D02*
D03*
X200587Y472000D02*
D03*
D50*
X309500Y255658D02*
D03*
X263000Y256658D02*
D03*
X215000D02*
D03*
X469185Y310000D02*
D03*
X355000Y255315D02*
D03*
X518000Y309157D02*
D03*
D51*
X309500Y275342D02*
D03*
X263000Y276343D02*
D03*
X215000D02*
D03*
X469185Y329685D02*
D03*
X355000Y275000D02*
D03*
X518000Y328842D02*
D03*
X203815Y337500D02*
D03*
D52*
X216000Y369232D02*
D03*
Y410768D02*
D03*
X394500Y348768D02*
D03*
Y307232D02*
D03*
X525768Y415000D02*
D03*
X484232D02*
D03*
X394500Y368732D02*
D03*
Y410268D02*
D03*
X315000Y369232D02*
D03*
Y410768D02*
D03*
X335500Y369232D02*
D03*
Y410768D02*
D03*
X236500Y369232D02*
D03*
Y410768D02*
D03*
X304232Y350000D02*
D03*
X345768D02*
D03*
X115232Y326000D02*
D03*
X156768D02*
D03*
D53*
X496870Y383500D02*
D03*
X507500D02*
D03*
X518130D02*
D03*
D54*
X174579Y407500D02*
D03*
X116705Y407500D02*
D03*
X154500Y407500D02*
D03*
X136784D02*
D03*
D55*
X126500Y262000D02*
D03*
X589000Y251500D02*
D03*
X594000Y478500D02*
D03*
X121000Y479000D02*
D03*
D56*
X151000Y358000D02*
D03*
X124000D02*
D03*
D57*
X401563Y253500D02*
D03*
X261000Y352500D02*
D03*
D58*
X409437Y253500D02*
D03*
X268874Y352500D02*
D03*
D59*
X223500Y337500D02*
D03*
D60*
X129000Y311000D02*
D03*
Y301000D02*
D03*
D61*
X160000Y250000D02*
D03*
Y240000D02*
D03*
Y260000D02*
D03*
X480000Y255000D02*
D03*
Y245000D02*
D03*
Y265000D02*
D03*
X450641Y255000D02*
D03*
Y245000D02*
D03*
Y265000D02*
D03*
X290000Y395000D02*
D03*
Y385000D02*
D03*
Y375000D02*
D03*
X258000Y405000D02*
D03*
Y395000D02*
D03*
Y385000D02*
D03*
Y375000D02*
D03*
X435000Y405000D02*
D03*
Y395000D02*
D03*
Y385000D02*
D03*
X467000Y415000D02*
D03*
Y405000D02*
D03*
Y395000D02*
D03*
Y385000D02*
D03*
X385000Y415000D02*
D03*
X345000Y400000D02*
D03*
X380000Y390000D02*
D03*
X325000Y400000D02*
D03*
X353740Y351260D02*
D03*
X375000Y385000D02*
D03*
Y350000D02*
D03*
X395000Y395000D02*
D03*
X385000Y380000D02*
D03*
X258000Y418000D02*
D03*
X290000Y365000D02*
D03*
X405000Y330000D02*
D03*
X380000Y340000D02*
D03*
X150000Y260000D02*
D03*
Y240000D02*
D03*
X415000Y310000D02*
D03*
D62*
X290000Y405000D02*
D03*
X435000Y415000D02*
D03*
D63*
X370000Y320000D02*
D03*
X290000D02*
D03*
M02*
