G04 Layer_Color=65535*
%FSLAX25Y25*%
%MOIN*%
G70*
G01*
G75*
%ADD14C,0.01000*%
%ADD39C,0.00787*%
%ADD40C,0.00500*%
%ADD41C,0.00591*%
%ADD42C,0.00591*%
D14*
X448500Y420000D02*
G03*
X453500Y420000I2500J0D01*
G01*
X271500Y410000D02*
G03*
X276500Y410000I2500J0D01*
G01*
X197541Y411000D02*
G03*
X197541Y411000I-3041J0D01*
G01*
X296041Y422500D02*
G03*
X296041Y422500I-3041J0D01*
G01*
X548041Y375000D02*
G03*
X548041Y375000I-3041J0D01*
G01*
X441000Y380000D02*
Y420000D01*
Y380000D02*
X461000D01*
Y420000D01*
X453500D02*
X461000D01*
X441000D02*
X448500D01*
X284000Y370000D02*
Y410000D01*
X264000Y370000D02*
X284000D01*
X264000D02*
Y410000D01*
X271500D01*
X276500D02*
X284000D01*
X356500Y355378D02*
X361378D01*
X366500Y355500D02*
X371878D01*
X163000Y345000D02*
X168000D01*
Y356000D01*
Y368000D02*
Y374500D01*
X106000D02*
X168000D01*
X104000Y372500D02*
X106000Y374500D01*
X104000Y347000D02*
Y372500D01*
Y347000D02*
X106000Y345000D01*
X114500D01*
X124500D02*
X150000D01*
X266543Y462500D02*
Y487500D01*
Y462500D02*
X333543D01*
Y487500D01*
X266543D02*
X333543D01*
X186543Y462500D02*
Y487500D01*
Y462500D02*
X253543D01*
Y487500D01*
X186543D02*
X253543D01*
X100496Y433665D02*
Y454236D01*
X139669Y433272D02*
Y454138D01*
X93803Y433272D02*
X139669D01*
X93803Y433370D02*
Y454236D01*
X139669D01*
X614933Y384764D02*
Y405335D01*
X575760Y384862D02*
Y405728D01*
X621626D01*
Y384764D02*
Y405630D01*
X575760Y384764D02*
X621626D01*
X350087Y462500D02*
Y487500D01*
Y462500D02*
X417087D01*
Y487500D01*
X350087D02*
X417087D01*
X431543Y462500D02*
Y487500D01*
Y462500D02*
X498543D01*
Y487500D01*
X431543D02*
X498543D01*
X356500Y395378D02*
X361378D01*
X366500Y395500D02*
X371878D01*
X614433Y424764D02*
Y445335D01*
X575260Y424862D02*
Y445728D01*
X621126D01*
Y424764D02*
Y445630D01*
X575260Y424764D02*
X621126D01*
X429250Y430250D02*
Y436248D01*
X431249Y434249D01*
X433249Y436248D01*
Y430250D01*
X435248Y436248D02*
X437247D01*
X436248D01*
Y430250D01*
X435248D01*
X437247D01*
X444245Y435248D02*
X443246Y436248D01*
X441246D01*
X440246Y435248D01*
Y431250D01*
X441246Y430250D01*
X443246D01*
X444245Y431250D01*
X449243Y430250D02*
Y436248D01*
X446244Y433249D01*
X450243D01*
X455242Y430250D02*
Y436248D01*
X452243Y433249D01*
X456241D01*
X462239Y436248D02*
X458241D01*
Y433249D01*
X460240Y434249D01*
X461240D01*
X462239Y433249D01*
Y431250D01*
X461240Y430250D01*
X459240D01*
X458241Y431250D01*
X468237Y430250D02*
X464239D01*
X468237Y434249D01*
Y435248D01*
X467238Y436248D01*
X465238D01*
X464239Y435248D01*
X470237Y436248D02*
Y435248D01*
X472236Y433249D01*
X474235Y435248D01*
Y436248D01*
X472236Y433249D02*
Y430250D01*
X476235D02*
Y436248D01*
X480233Y430250D01*
Y436248D01*
X265000Y420998D02*
Y416000D01*
X266000Y415000D01*
X267999D01*
X268999Y416000D01*
Y420998D01*
X274997D02*
X270998D01*
Y417999D01*
X272997Y418999D01*
X273997D01*
X274997Y417999D01*
Y416000D01*
X273997Y415000D01*
X271998D01*
X270998Y416000D01*
X352600Y388398D02*
Y383400D01*
X353600Y382400D01*
X355599D01*
X356599Y383400D01*
Y388398D01*
X358598Y387398D02*
X359598Y388398D01*
X361597D01*
X362597Y387398D01*
Y386399D01*
X361597Y385399D01*
X360597D01*
X361597D01*
X362597Y384399D01*
Y383400D01*
X361597Y382400D01*
X359598D01*
X358598Y383400D01*
X478650Y270350D02*
Y276348D01*
X481649D01*
X482649Y275348D01*
Y273349D01*
X481649Y272349D01*
X478650D01*
X487647Y276348D02*
X485648D01*
X484648Y275348D01*
Y271350D01*
X485648Y270350D01*
X487647D01*
X488647Y271350D01*
Y275348D01*
X487647Y276348D01*
X490646D02*
X494645D01*
X492646D01*
Y270350D01*
X496644Y275348D02*
X497644Y276348D01*
X499643D01*
X500643Y275348D01*
Y274349D01*
X499643Y273349D01*
X498643D01*
X499643D01*
X500643Y272349D01*
Y271350D01*
X499643Y270350D01*
X497644D01*
X496644Y271350D01*
X158650Y265350D02*
Y271348D01*
X161649D01*
X162649Y270348D01*
Y268349D01*
X161649Y267349D01*
X158650D01*
X167647Y271348D02*
X165648D01*
X164648Y270348D01*
Y266350D01*
X165648Y265350D01*
X167647D01*
X168647Y266350D01*
Y270348D01*
X167647Y271348D01*
X170646D02*
X174645D01*
X172645D01*
Y265350D01*
X180643D02*
X176644D01*
X180643Y269349D01*
Y270348D01*
X179643Y271348D01*
X177644D01*
X176644Y270348D01*
X448650Y270350D02*
Y276348D01*
X451649D01*
X452649Y275348D01*
Y273349D01*
X451649Y272349D01*
X448650D01*
X457647Y276348D02*
X455648D01*
X454648Y275348D01*
Y271350D01*
X455648Y270350D01*
X457647D01*
X458647Y271350D01*
Y275348D01*
X457647Y276348D01*
X460646D02*
X464645D01*
X462645D01*
Y270350D01*
X466644D02*
X468644D01*
X467644D01*
Y276348D01*
X466644Y275348D01*
X169000Y321000D02*
X163002D01*
Y323999D01*
X164002Y324999D01*
X166001D01*
X167001Y323999D01*
Y321000D01*
Y322999D02*
X169000Y324999D01*
X168000Y326998D02*
X169000Y327998D01*
Y329997D01*
X168000Y330997D01*
X164002D01*
X163002Y329997D01*
Y327998D01*
X164002Y326998D01*
X165001D01*
X166001Y327998D01*
Y330997D01*
X141002Y302500D02*
X147000D01*
Y305499D01*
X146000Y306499D01*
X142002D01*
X141002Y305499D01*
Y302500D01*
X147000Y308498D02*
Y310497D01*
Y309498D01*
X141002D01*
X142002Y308498D01*
X583999Y294998D02*
X582999Y295998D01*
X581000D01*
X580000Y294998D01*
Y291000D01*
X581000Y290000D01*
X582999D01*
X583999Y291000D01*
X585998Y290000D02*
X587997D01*
X586998D01*
Y295998D01*
X585998Y294998D01*
X453999D02*
X452999Y295998D01*
X451000D01*
X450000Y294998D01*
Y291000D01*
X451000Y290000D01*
X452999D01*
X453999Y291000D01*
X459997Y290000D02*
X455998D01*
X459997Y293999D01*
Y294998D01*
X458997Y295998D01*
X456998D01*
X455998Y294998D01*
X519499Y292502D02*
X518499Y291502D01*
X516500D01*
X515500Y292502D01*
Y296500D01*
X516500Y297500D01*
X518499D01*
X519499Y296500D01*
X521498Y292502D02*
X522498Y291502D01*
X524497D01*
X525497Y292502D01*
Y293501D01*
X524497Y294501D01*
X523497D01*
X524497D01*
X525497Y295501D01*
Y296500D01*
X524497Y297500D01*
X522498D01*
X521498Y296500D01*
X214499Y307498D02*
X213499Y308498D01*
X211500D01*
X210500Y307498D01*
Y303500D01*
X211500Y302500D01*
X213499D01*
X214499Y303500D01*
X219497Y302500D02*
Y308498D01*
X216498Y305499D01*
X220497D01*
X283999Y306998D02*
X282999Y307998D01*
X281000D01*
X280000Y306998D01*
Y303000D01*
X281000Y302000D01*
X282999D01*
X283999Y303000D01*
X289997Y307998D02*
X285998D01*
Y304999D01*
X287997Y305999D01*
X288997D01*
X289997Y304999D01*
Y303000D01*
X288997Y302000D01*
X286998D01*
X285998Y303000D01*
X353499Y306998D02*
X352499Y307998D01*
X350500D01*
X349500Y306998D01*
Y303000D01*
X350500Y302000D01*
X352499D01*
X353499Y303000D01*
X359497Y307998D02*
X357497Y306998D01*
X355498Y304999D01*
Y303000D01*
X356498Y302000D01*
X358497D01*
X359497Y303000D01*
Y303999D01*
X358497Y304999D01*
X355498D01*
X412062Y270998D02*
X411062Y271998D01*
X409063D01*
X408063Y270998D01*
Y267000D01*
X409063Y266000D01*
X411062D01*
X412062Y267000D01*
X414061Y271998D02*
X418060D01*
Y270998D01*
X414061Y267000D01*
Y266000D01*
X246499Y354998D02*
X245499Y355998D01*
X243500D01*
X242500Y354998D01*
Y351000D01*
X243500Y350000D01*
X245499D01*
X246499Y351000D01*
X248498Y354998D02*
X249498Y355998D01*
X251497D01*
X252497Y354998D01*
Y353999D01*
X251497Y352999D01*
X252497Y351999D01*
Y351000D01*
X251497Y350000D01*
X249498D01*
X248498Y351000D01*
Y351999D01*
X249498Y352999D01*
X248498Y353999D01*
Y354998D01*
X249498Y352999D02*
X251497D01*
X184814Y339498D02*
X183814Y340498D01*
X181815D01*
X180815Y339498D01*
Y335500D01*
X181815Y334500D01*
X183814D01*
X184814Y335500D01*
X186813D02*
X187813Y334500D01*
X189812D01*
X190812Y335500D01*
Y339498D01*
X189812Y340498D01*
X187813D01*
X186813Y339498D01*
Y338499D01*
X187813Y337499D01*
X190812D01*
X110799Y426798D02*
X106800D01*
Y423799D01*
X108799D01*
X106800D01*
Y420800D01*
X112798D02*
X114797D01*
X113798D01*
Y426798D01*
X112798Y425798D01*
X137929Y458500D02*
Y464498D01*
X139928Y462499D01*
X141928Y464498D01*
Y458500D01*
X144927Y462499D02*
X146926D01*
X147926Y461499D01*
Y458500D01*
X144927D01*
X143927Y459500D01*
X144927Y460499D01*
X147926D01*
X149925Y458500D02*
X151925D01*
X150925D01*
Y462499D01*
X149925D01*
X154924Y458500D02*
Y462499D01*
X157923D01*
X158922Y461499D01*
Y458500D01*
X166920Y464498D02*
X168919D01*
X167919D01*
Y458500D01*
X166920D01*
X168919D01*
X171918D02*
Y462499D01*
X174917D01*
X175917Y461499D01*
Y458500D01*
X540929Y420498D02*
X544928D01*
X542929D01*
Y414500D01*
X550926Y419498D02*
X549926Y420498D01*
X547927D01*
X546927Y419498D01*
Y415500D01*
X547927Y414500D01*
X549926D01*
X550926Y415500D01*
X558923Y420498D02*
X560923D01*
X559923D01*
Y414500D01*
X558923D01*
X560923D01*
X563922D02*
Y418499D01*
X566921D01*
X567920Y417499D01*
Y414500D01*
X529002Y437499D02*
Y435499D01*
Y436499D01*
X534000D01*
X535000Y435499D01*
Y434500D01*
X534000Y433500D01*
X530002Y439498D02*
X529002Y440498D01*
Y442497D01*
X530002Y443497D01*
X531001D01*
X532001Y442497D01*
Y441497D01*
Y442497D01*
X533001Y443497D01*
X534000D01*
X535000Y442497D01*
Y440498D01*
X534000Y439498D01*
X305000Y335998D02*
Y330000D01*
X308999D01*
X310998D02*
X312997D01*
X311998D01*
Y335998D01*
X310998Y334998D01*
X464999Y443500D02*
Y447498D01*
X463999Y448498D01*
X462000D01*
X461000Y447498D01*
Y443500D01*
X462000Y442500D01*
X463999D01*
X462999Y444499D02*
X464999Y442500D01*
X463999D02*
X464999Y443500D01*
X466998Y442500D02*
X468997D01*
X467998D01*
Y448498D01*
X466998Y447498D01*
X383085Y443000D02*
Y446998D01*
X382086Y447998D01*
X380086D01*
X379087Y446998D01*
Y443000D01*
X380086Y442000D01*
X382086D01*
X381086Y443999D02*
X383085Y442000D01*
X382086D02*
X383085Y443000D01*
X389083Y442000D02*
X385085D01*
X389083Y445999D01*
Y446998D01*
X388084Y447998D01*
X386084D01*
X385085Y446998D01*
X296999Y442500D02*
Y446498D01*
X295999Y447498D01*
X294000D01*
X293000Y446498D01*
Y442500D01*
X294000Y441500D01*
X295999D01*
X294999Y443499D02*
X296999Y441500D01*
X295999D02*
X296999Y442500D01*
X298998Y446498D02*
X299998Y447498D01*
X301997D01*
X302997Y446498D01*
Y445499D01*
X301997Y444499D01*
X300997D01*
X301997D01*
X302997Y443499D01*
Y442500D01*
X301997Y441500D01*
X299998D01*
X298998Y442500D01*
X203999Y440000D02*
Y443998D01*
X202999Y444998D01*
X201000D01*
X200000Y443998D01*
Y440000D01*
X201000Y439000D01*
X202999D01*
X201999Y440999D02*
X203999Y439000D01*
X202999D02*
X203999Y440000D01*
X208997Y439000D02*
Y444998D01*
X205998Y441999D01*
X209997D01*
X389600Y355400D02*
Y361398D01*
X392599D01*
X393599Y360398D01*
Y358399D01*
X392599Y357399D01*
X389600D01*
X391599D02*
X393599Y355400D01*
X395598D02*
X397597D01*
X396598D01*
Y361398D01*
X395598Y360398D01*
X330550Y417450D02*
Y423448D01*
X333549D01*
X334549Y422448D01*
Y420449D01*
X333549Y419449D01*
X330550D01*
X332549D02*
X334549Y417450D01*
X340547D02*
X336548D01*
X340547Y421449D01*
Y422448D01*
X339547Y423448D01*
X337548D01*
X336548Y422448D01*
X301600Y358900D02*
Y364898D01*
X304599D01*
X305599Y363898D01*
Y361899D01*
X304599Y360899D01*
X301600D01*
X303599D02*
X305599Y358900D01*
X307598Y363898D02*
X308598Y364898D01*
X310597D01*
X311597Y363898D01*
Y362899D01*
X310597Y361899D01*
X309597D01*
X310597D01*
X311597Y360899D01*
Y359900D01*
X310597Y358900D01*
X308598D01*
X307598Y359900D01*
X310050Y417450D02*
Y423448D01*
X313049D01*
X314049Y422448D01*
Y420449D01*
X313049Y419449D01*
X310050D01*
X312049D02*
X314049Y417450D01*
X319047D02*
Y423448D01*
X316048Y420449D01*
X320047D01*
X389600Y416900D02*
Y422898D01*
X392599D01*
X393599Y421898D01*
Y419899D01*
X392599Y418899D01*
X389600D01*
X391599D02*
X393599Y416900D01*
X399597Y422898D02*
X395598D01*
Y419899D01*
X397597Y420899D01*
X398597D01*
X399597Y419899D01*
Y417900D01*
X398597Y416900D01*
X396598D01*
X395598Y417900D01*
X481600Y423900D02*
Y429898D01*
X484599D01*
X485599Y428898D01*
Y426899D01*
X484599Y425899D01*
X481600D01*
X483599D02*
X485599Y423900D01*
X491597Y429898D02*
X489597Y428898D01*
X487598Y426899D01*
Y424900D01*
X488598Y423900D01*
X490597D01*
X491597Y424900D01*
Y425899D01*
X490597Y426899D01*
X487598D01*
X231600Y417400D02*
Y423398D01*
X234599D01*
X235599Y422398D01*
Y420399D01*
X234599Y419399D01*
X231600D01*
X233599D02*
X235599Y417400D01*
X237598Y423398D02*
X241597D01*
Y422398D01*
X237598Y418400D01*
Y417400D01*
X550000Y370998D02*
X553999D01*
X551999D01*
Y365000D01*
X555998D02*
Y370998D01*
X558997D01*
X559997Y369998D01*
Y367999D01*
X558997Y366999D01*
X555998D01*
X561996Y365000D02*
X563996D01*
X562996D01*
Y370998D01*
X561996Y369998D01*
X188500Y423498D02*
X192499D01*
X190499D01*
Y417500D01*
X194498D02*
Y423498D01*
X197497D01*
X198497Y422498D01*
Y420499D01*
X197497Y419499D01*
X194498D01*
X204495Y417500D02*
X200496D01*
X204495Y421499D01*
Y422498D01*
X203495Y423498D01*
X201496D01*
X200496Y422498D01*
X290450Y435048D02*
X294449D01*
X292449D01*
Y429050D01*
X296448D02*
Y435048D01*
X299447D01*
X300447Y434048D01*
Y432049D01*
X299447Y431049D01*
X296448D01*
X302446Y434048D02*
X303446Y435048D01*
X305445D01*
X306445Y434048D01*
Y433049D01*
X305445Y432049D01*
X304446D01*
X305445D01*
X306445Y431049D01*
Y430050D01*
X305445Y429050D01*
X303446D01*
X302446Y430050D01*
X491900Y399898D02*
Y394900D01*
X492900Y393900D01*
X494899D01*
X495899Y394900D01*
Y399898D01*
X497898Y393900D02*
X499897D01*
X498898D01*
Y399898D01*
X497898Y398898D01*
X352600Y428398D02*
Y423400D01*
X353600Y422400D01*
X355599D01*
X356599Y423400D01*
Y428398D01*
X362597Y422400D02*
X358598D01*
X362597Y426399D01*
Y427398D01*
X361597Y428398D01*
X359598D01*
X358598Y427398D01*
X211100Y417400D02*
Y423398D01*
X214099D01*
X215099Y422398D01*
Y420399D01*
X214099Y419399D01*
X211100D01*
X213099D02*
X215099Y417400D01*
X217098Y422398D02*
X218098Y423398D01*
X220097D01*
X221097Y422398D01*
Y421399D01*
X220097Y420399D01*
X221097Y419399D01*
Y418400D01*
X220097Y417400D01*
X218098D01*
X217098Y418400D01*
Y419399D01*
X218098Y420399D01*
X217098Y421399D01*
Y422398D01*
X218098Y420399D02*
X220097D01*
X109499Y384498D02*
X108499Y385498D01*
X106500D01*
X105500Y384498D01*
Y380500D01*
X106500Y379500D01*
X108499D01*
X109499Y380500D01*
X112498Y379500D02*
X114497D01*
X115497Y380500D01*
Y382499D01*
X114497Y383499D01*
X112498D01*
X111498Y382499D01*
Y380500D01*
X112498Y379500D01*
X117496D02*
Y383499D01*
X118496D01*
X119495Y382499D01*
Y379500D01*
Y382499D01*
X120495Y383499D01*
X121495Y382499D01*
Y379500D01*
X123494Y377501D02*
Y383499D01*
X126493D01*
X127493Y382499D01*
Y380500D01*
X126493Y379500D01*
X123494D01*
X130492D02*
X132491D01*
X133491Y380500D01*
Y382499D01*
X132491Y383499D01*
X130492D01*
X129492Y382499D01*
Y380500D01*
X130492Y379500D01*
X135490D02*
Y383499D01*
X138489D01*
X139489Y382499D01*
Y379500D01*
X144487D02*
X142488D01*
X141488Y380500D01*
Y382499D01*
X142488Y383499D01*
X144487D01*
X145487Y382499D01*
Y381499D01*
X141488D01*
X147486Y379500D02*
Y383499D01*
X150485D01*
X151485Y382499D01*
Y379500D01*
X154484Y384498D02*
Y383499D01*
X153484D01*
X155484D01*
X154484D01*
Y380500D01*
X155484Y379500D01*
X158483Y378500D02*
X162482D01*
X164481Y379500D02*
X166480D01*
X165481D01*
Y385498D01*
X164481Y384498D01*
X498332Y239998D02*
X496666D01*
X497499D01*
Y235833D01*
X496666Y235000D01*
X495833D01*
X495000Y235833D01*
X500831Y238332D02*
X502498D01*
X503331Y237499D01*
Y235000D01*
X500831D01*
X499998Y235833D01*
X500831Y236666D01*
X503331D01*
X504997Y235000D02*
X507496D01*
X508329Y235833D01*
X507496Y236666D01*
X505830D01*
X504997Y237499D01*
X505830Y238332D01*
X508329D01*
X510828Y235000D02*
X512494D01*
X513327Y235833D01*
Y237499D01*
X512494Y238332D01*
X510828D01*
X509995Y237499D01*
Y235833D01*
X510828Y235000D01*
X514993D02*
Y238332D01*
X517493D01*
X518326Y237499D01*
Y235000D01*
X520825Y234167D02*
X521658Y235000D01*
Y235833D01*
X520825D01*
Y235000D01*
X521658D01*
X520825Y234167D01*
X519992Y233334D01*
X524990Y239998D02*
X528323D01*
Y239165D01*
X524990Y235833D01*
Y235000D01*
X528323D01*
X530822Y238332D02*
X532488D01*
X533321Y237499D01*
Y235000D01*
X530822D01*
X529989Y235833D01*
X530822Y236666D01*
X533321D01*
X538319Y238332D02*
X535820D01*
X534987Y237499D01*
Y235833D01*
X535820Y235000D01*
X538319D01*
X539985D02*
Y239998D01*
Y236666D02*
X542485Y238332D01*
X539985Y236666D02*
X542485Y235000D01*
X545817Y234167D02*
X546650Y235000D01*
Y235833D01*
X545817D01*
Y235000D01*
X546650D01*
X545817Y234167D01*
X544984Y233334D01*
X549982Y239998D02*
Y235000D01*
Y237499D01*
X553314D01*
Y239998D01*
Y235000D01*
X555814Y238332D02*
X557480D01*
X558313Y237499D01*
Y235000D01*
X555814D01*
X554981Y235833D01*
X555814Y236666D01*
X558313D01*
X559979Y238332D02*
Y235000D01*
Y236666D01*
X560812Y237499D01*
X561645Y238332D01*
X562478D01*
X567477Y235000D02*
X565810D01*
X564977Y235833D01*
Y237499D01*
X565810Y238332D01*
X567477D01*
X568310Y237499D01*
Y236666D01*
X564977D01*
X569976Y235000D02*
X571642D01*
X570809D01*
Y239998D01*
X569976D01*
X498332Y249998D02*
X495000D01*
Y245000D01*
X498332D01*
X495000Y247499D02*
X496666D01*
X503331Y249998D02*
X499998D01*
Y245000D01*
X503331D01*
X499998Y247499D02*
X501664D01*
X509995Y245000D02*
X511661D01*
X510828D01*
Y249998D01*
X509995Y249165D01*
X514160D02*
X514993Y249998D01*
X516660D01*
X517493Y249165D01*
Y248332D01*
X516660Y247499D01*
X517493Y246666D01*
Y245833D01*
X516660Y245000D01*
X514993D01*
X514160Y245833D01*
Y246666D01*
X514993Y247499D01*
X514160Y248332D01*
Y249165D01*
X514993Y247499D02*
X516660D01*
X522491Y249998D02*
X520825Y249165D01*
X519159Y247499D01*
Y245833D01*
X519992Y245000D01*
X521658D01*
X522491Y245833D01*
Y246666D01*
X521658Y247499D01*
X519159D01*
X495000Y259998D02*
X498332D01*
X496666D01*
Y255000D01*
X502498D02*
X500831D01*
X499998Y255833D01*
Y257499D01*
X500831Y258332D01*
X502498D01*
X503331Y257499D01*
Y256666D01*
X499998D01*
X504997Y255000D02*
X507496D01*
X508329Y255833D01*
X507496Y256666D01*
X505830D01*
X504997Y257499D01*
X505830Y258332D01*
X508329D01*
X509995Y255000D02*
X511661D01*
X510828D01*
Y259998D01*
X509995D01*
X514993Y258332D02*
X516660D01*
X517493Y257499D01*
Y255000D01*
X514993D01*
X514160Y255833D01*
X514993Y256666D01*
X517493D01*
X527490Y259165D02*
X526656Y259998D01*
X524990D01*
X524157Y259165D01*
Y255833D01*
X524990Y255000D01*
X526656D01*
X527490Y255833D01*
X529989Y255000D02*
X531655D01*
X532488Y255833D01*
Y257499D01*
X531655Y258332D01*
X529989D01*
X529156Y257499D01*
Y255833D01*
X529989Y255000D01*
X534154D02*
X535820D01*
X534987D01*
Y258332D01*
X534154D01*
X538319Y255000D02*
X539985D01*
X539152D01*
Y259998D01*
X538319D01*
X547483Y255000D02*
Y259998D01*
X549982D01*
X550815Y259165D01*
Y257499D01*
X549982Y256666D01*
X547483D01*
X555814Y259165D02*
X554981Y259998D01*
X553314D01*
X552481Y259165D01*
Y255833D01*
X553314Y255000D01*
X554981D01*
X555814Y255833D01*
X557480Y259998D02*
Y255000D01*
X559979D01*
X560812Y255833D01*
Y256666D01*
X559979Y257499D01*
X557480D01*
X559979D01*
X560812Y258332D01*
Y259165D01*
X559979Y259998D01*
X557480D01*
X275043Y492500D02*
X277043D01*
X276043D01*
Y498498D01*
X275043Y497498D01*
X303542Y492500D02*
X299543D01*
X303542Y496499D01*
Y497498D01*
X302542Y498498D01*
X300543D01*
X299543Y497498D01*
X320543D02*
X321543Y498498D01*
X323542D01*
X324542Y497498D01*
Y496499D01*
X323542Y495499D01*
X322543D01*
X323542D01*
X324542Y494499D01*
Y493500D01*
X323542Y492500D01*
X321543D01*
X320543Y493500D01*
X195043Y492500D02*
X197043D01*
X196043D01*
Y498498D01*
X195043Y497498D01*
X223542Y492500D02*
X219543D01*
X223542Y496499D01*
Y497498D01*
X222542Y498498D01*
X220543D01*
X219543Y497498D01*
X240543D02*
X241543Y498498D01*
X243542D01*
X244542Y497498D01*
Y496499D01*
X243542Y495499D01*
X242543D01*
X243542D01*
X244542Y494499D01*
Y493500D01*
X243542Y492500D01*
X241543D01*
X240543Y493500D01*
X145595Y433114D02*
Y431115D01*
Y432115D01*
X151593D01*
X150593Y433114D01*
X166244Y430159D02*
Y434158D01*
X170243Y430159D01*
X171242D01*
X172242Y431158D01*
Y433158D01*
X171242Y434158D01*
X569835Y405886D02*
Y407885D01*
Y406885D01*
X563837D01*
X564836Y405886D01*
X549185Y408841D02*
Y404843D01*
X545186Y408841D01*
X544187D01*
X543187Y407842D01*
Y405842D01*
X544187Y404843D01*
X358587Y492500D02*
X360586D01*
X359586D01*
Y498498D01*
X358587Y497498D01*
X387085Y492500D02*
X383087D01*
X387085Y496499D01*
Y497498D01*
X386086Y498498D01*
X384086D01*
X383087Y497498D01*
X404087D02*
X405086Y498498D01*
X407086D01*
X408085Y497498D01*
Y496499D01*
X407086Y495499D01*
X406086D01*
X407086D01*
X408085Y494499D01*
Y493500D01*
X407086Y492500D01*
X405086D01*
X404087Y493500D01*
X440043Y492500D02*
X442043D01*
X441043D01*
Y498498D01*
X440043Y497498D01*
X468542Y492500D02*
X464543D01*
X468542Y496499D01*
Y497498D01*
X467542Y498498D01*
X465543D01*
X464543Y497498D01*
X485543D02*
X486543Y498498D01*
X488542D01*
X489542Y497498D01*
Y496499D01*
X488542Y495499D01*
X487543D01*
X488542D01*
X489542Y494499D01*
Y493500D01*
X488542Y492500D01*
X486543D01*
X485543Y493500D01*
X569335Y445886D02*
Y447885D01*
Y446885D01*
X563337D01*
X564336Y445886D01*
X548685Y448841D02*
Y444842D01*
X544686Y448841D01*
X543687D01*
X542687Y447842D01*
Y445842D01*
X543687Y444842D01*
X550000Y454998D02*
X553332D01*
X551666D01*
Y450000D01*
X557498D02*
X555831D01*
X554998Y450833D01*
Y452499D01*
X555831Y453332D01*
X557498D01*
X558331Y452499D01*
Y451666D01*
X554998D01*
X559997Y450000D02*
X562496D01*
X563329Y450833D01*
X562496Y451666D01*
X560830D01*
X559997Y452499D01*
X560830Y453332D01*
X563329D01*
X564995Y450000D02*
X566661D01*
X565828D01*
Y454998D01*
X564995D01*
X569993Y453332D02*
X571660D01*
X572493Y452499D01*
Y450000D01*
X569993D01*
X569161Y450833D01*
X569993Y451666D01*
X572493D01*
X582489Y454165D02*
X581656Y454998D01*
X579990D01*
X579157Y454165D01*
Y450833D01*
X579990Y450000D01*
X581656D01*
X582489Y450833D01*
X584989Y450000D02*
X586655D01*
X587488Y450833D01*
Y452499D01*
X586655Y453332D01*
X584989D01*
X584156Y452499D01*
Y450833D01*
X584989Y450000D01*
X589154D02*
X590820D01*
X589987D01*
Y453332D01*
X589154D01*
X593319Y450000D02*
X594985D01*
X594152D01*
Y454998D01*
X593319D01*
X604982D02*
X603316D01*
X602483Y454165D01*
Y450833D01*
X603316Y450000D01*
X604982D01*
X605815Y450833D01*
Y454165D01*
X604982Y454998D01*
X607481Y453332D02*
Y450833D01*
X608314Y450000D01*
X610814D01*
Y453332D01*
X613313Y454165D02*
Y453332D01*
X612480D01*
X614146D01*
X613313D01*
Y450833D01*
X614146Y450000D01*
D39*
X366500Y355500D02*
G03*
X361500Y355500I-2500J0D01*
G01*
X385000Y270000D02*
G03*
X385000Y270000I-30000J0D01*
G01*
X315000D02*
G03*
X315000Y270000I-30000J0D01*
G01*
X245000D02*
G03*
X245000Y270000I-30000J0D01*
G01*
X615000Y330000D02*
G03*
X615000Y330000I-30000J0D01*
G01*
X550000D02*
G03*
X550000Y330000I-30000J0D01*
G01*
X485000D02*
G03*
X485000Y330000I-30000J0D01*
G01*
X233343Y337500D02*
G03*
X233343Y337500I-19685J0D01*
G01*
X274780Y352500D02*
G03*
X274780Y352500I-9843J0D01*
G01*
X439843Y270000D02*
G03*
X439843Y270000I-9843J0D01*
G01*
X366500Y395500D02*
G03*
X361500Y395500I-2500J0D01*
G01*
X355000Y320000D02*
X365000D01*
X295000D02*
X305000D01*
Y312000D02*
Y328000D01*
X355000D01*
Y312000D02*
Y328000D01*
X305000Y312000D02*
X355000D01*
X356500Y355378D02*
Y379000D01*
X356646D02*
X372000D01*
Y355378D02*
Y379000D01*
X122221Y320488D02*
X149779D01*
X122221Y331512D02*
X149779D01*
Y320488D02*
Y331512D01*
X122221Y320488D02*
Y331512D01*
X152827Y417441D02*
X184716D01*
X152925Y397657D02*
X184815D01*
X106173Y397362D02*
X138063D01*
X106173Y417343D02*
X138063D01*
X338779Y344488D02*
Y355512D01*
X311221Y344488D02*
Y355512D01*
Y344488D02*
X338779D01*
X311221Y355512D02*
X338779D01*
X242012Y376220D02*
Y403780D01*
X230988Y376220D02*
Y403780D01*
X242012D01*
X230988Y376220D02*
X242012D01*
X329988Y403780D02*
X341012D01*
X329988Y376220D02*
X341012D01*
Y403780D01*
X329988Y376220D02*
Y403780D01*
X309488D02*
X320512D01*
X309488Y376220D02*
X320512D01*
Y403780D01*
X309488Y376220D02*
Y403780D01*
X400012Y375721D02*
Y403279D01*
X388988Y375721D02*
Y403279D01*
X400012D01*
X388988Y375721D02*
X400012D01*
X356500Y395378D02*
Y419000D01*
X356646D02*
X372000D01*
Y395378D02*
Y419000D01*
X491221Y420512D02*
X518780D01*
X491221Y409488D02*
X518780D01*
X491221D02*
Y420512D01*
X518780Y409488D02*
Y420512D01*
X388988Y314220D02*
X400012D01*
X388988Y341779D02*
X400012D01*
X388988Y314220D02*
Y341779D01*
X400012Y314220D02*
Y341779D01*
X221512Y376220D02*
Y403780D01*
X210488Y376220D02*
Y403780D01*
X221512D01*
X210488Y376220D02*
X221512D01*
X429000Y422500D02*
Y426436D01*
X430312Y425124D01*
X431624Y426436D01*
Y422500D01*
X434904Y426436D02*
X433592D01*
X432936Y425780D01*
Y423156D01*
X433592Y422500D01*
X434904D01*
X435560Y423156D01*
Y425780D01*
X434904Y426436D01*
X439495Y425780D02*
X438839Y426436D01*
X437527D01*
X436871Y425780D01*
Y425124D01*
X437527Y424468D01*
X438839D01*
X439495Y423812D01*
Y423156D01*
X438839Y422500D01*
X437527D01*
X436871Y423156D01*
X443431Y426436D02*
X440807D01*
Y424468D01*
X442119D01*
X440807D01*
Y422500D01*
X447367Y426436D02*
X444743D01*
Y422500D01*
X447367D01*
X444743Y424468D02*
X446055D01*
X448679Y426436D02*
X451302D01*
X449991D01*
Y422500D01*
X456550Y426436D02*
Y422500D01*
X458518D01*
X459174Y423156D01*
Y425780D01*
X458518Y426436D01*
X456550D01*
X460486Y425124D02*
Y422500D01*
Y423812D01*
X461142Y424468D01*
X461798Y425124D01*
X462454D01*
X464422Y422500D02*
X465734D01*
X465078D01*
Y425124D01*
X464422D01*
X467701D02*
X469013Y422500D01*
X470325Y425124D01*
X473605Y422500D02*
X472293D01*
X471637Y423156D01*
Y424468D01*
X472293Y425124D01*
X473605D01*
X474261Y424468D01*
Y423812D01*
X471637D01*
X475573Y425124D02*
Y422500D01*
Y423812D01*
X476229Y424468D01*
X476885Y425124D01*
X477541D01*
X269543Y455500D02*
Y459436D01*
X270855Y458124D01*
X272167Y459436D01*
Y455500D01*
X275447Y459436D02*
X274135D01*
X273479Y458780D01*
Y456156D01*
X274135Y455500D01*
X275447D01*
X276103Y456156D01*
Y458780D01*
X275447Y459436D01*
X280039Y458780D02*
X279383Y459436D01*
X278071D01*
X277415Y458780D01*
Y458124D01*
X278071Y457468D01*
X279383D01*
X280039Y456812D01*
Y456156D01*
X279383Y455500D01*
X278071D01*
X277415Y456156D01*
X283974Y459436D02*
X281350D01*
Y457468D01*
X282662D01*
X281350D01*
Y455500D01*
X287910Y459436D02*
X285286D01*
Y455500D01*
X287910D01*
X285286Y457468D02*
X286598D01*
X289222Y459436D02*
X291846D01*
X290534D01*
Y455500D01*
X297094D02*
X298405D01*
X297749D01*
Y459436D01*
X297094Y458780D01*
X300373D02*
X301029Y459436D01*
X302341D01*
X302997Y458780D01*
Y456156D01*
X302341Y455500D01*
X301029D01*
X300373Y456156D01*
Y458780D01*
X304309Y455500D02*
Y458124D01*
X305621Y459436D01*
X306933Y458124D01*
Y455500D01*
Y457468D01*
X304309D01*
X312180Y455500D02*
X313492D01*
X312837D01*
Y459436D01*
X312180Y458780D01*
X318084Y455500D02*
X315460D01*
X318084Y458124D01*
Y458780D01*
X317428Y459436D01*
X316116D01*
X315460Y458780D01*
X319396D02*
X320052Y459436D01*
X321364D01*
X322020Y458780D01*
Y456156D01*
X321364Y455500D01*
X320052D01*
X319396Y456156D01*
Y458780D01*
X323332D02*
X323988Y459436D01*
X325300D01*
X325956Y458780D01*
Y456156D01*
X325300Y455500D01*
X323988D01*
X323332Y456156D01*
Y458780D01*
X327268Y459436D02*
Y456812D01*
X328579Y455500D01*
X329891Y456812D01*
Y459436D01*
X189543Y455500D02*
Y459436D01*
X190855Y458124D01*
X192167Y459436D01*
Y455500D01*
X195447Y459436D02*
X194135D01*
X193479Y458780D01*
Y456156D01*
X194135Y455500D01*
X195447D01*
X196103Y456156D01*
Y458780D01*
X195447Y459436D01*
X200039Y458780D02*
X199383Y459436D01*
X198071D01*
X197415Y458780D01*
Y458124D01*
X198071Y457468D01*
X199383D01*
X200039Y456812D01*
Y456156D01*
X199383Y455500D01*
X198071D01*
X197415Y456156D01*
X203974Y459436D02*
X201350D01*
Y457468D01*
X202662D01*
X201350D01*
Y455500D01*
X207910Y459436D02*
X205286D01*
Y455500D01*
X207910D01*
X205286Y457468D02*
X206598D01*
X209222Y459436D02*
X211846D01*
X210534D01*
Y455500D01*
X217093D02*
X218405D01*
X217749D01*
Y459436D01*
X217093Y458780D01*
X220373D02*
X221029Y459436D01*
X222341D01*
X222997Y458780D01*
Y456156D01*
X222341Y455500D01*
X221029D01*
X220373Y456156D01*
Y458780D01*
X224309Y455500D02*
Y458124D01*
X225621Y459436D01*
X226933Y458124D01*
Y455500D01*
Y457468D01*
X224309D01*
X232181Y455500D02*
X233492D01*
X232837D01*
Y459436D01*
X232181Y458780D01*
X238084Y455500D02*
X235460D01*
X238084Y458124D01*
Y458780D01*
X237428Y459436D01*
X236116D01*
X235460Y458780D01*
X239396D02*
X240052Y459436D01*
X241364D01*
X242020Y458780D01*
Y456156D01*
X241364Y455500D01*
X240052D01*
X239396Y456156D01*
Y458780D01*
X243332D02*
X243988Y459436D01*
X245300D01*
X245956Y458780D01*
Y456156D01*
X245300Y455500D01*
X243988D01*
X243332Y456156D01*
Y458780D01*
X247268Y459436D02*
Y456812D01*
X248579Y455500D01*
X249891Y456812D01*
Y459436D01*
X353087Y455500D02*
Y459436D01*
X354398Y458124D01*
X355710Y459436D01*
Y455500D01*
X358990Y459436D02*
X357678D01*
X357022Y458780D01*
Y456156D01*
X357678Y455500D01*
X358990D01*
X359646Y456156D01*
Y458780D01*
X358990Y459436D01*
X363582Y458780D02*
X362926Y459436D01*
X361614D01*
X360958Y458780D01*
Y458124D01*
X361614Y457468D01*
X362926D01*
X363582Y456812D01*
Y456156D01*
X362926Y455500D01*
X361614D01*
X360958Y456156D01*
X367518Y459436D02*
X364894D01*
Y457468D01*
X366206D01*
X364894D01*
Y455500D01*
X371453Y459436D02*
X368830D01*
Y455500D01*
X371453D01*
X368830Y457468D02*
X370142D01*
X372765Y459436D02*
X375389D01*
X374077D01*
Y455500D01*
X380637D02*
X381949D01*
X381293D01*
Y459436D01*
X380637Y458780D01*
X383917D02*
X384573Y459436D01*
X385884D01*
X386540Y458780D01*
Y456156D01*
X385884Y455500D01*
X384573D01*
X383917Y456156D01*
Y458780D01*
X387852Y455500D02*
Y458124D01*
X389164Y459436D01*
X390476Y458124D01*
Y455500D01*
Y457468D01*
X387852D01*
X395724Y455500D02*
X397036D01*
X396380D01*
Y459436D01*
X395724Y458780D01*
X401627Y455500D02*
X399004D01*
X401627Y458124D01*
Y458780D01*
X400972Y459436D01*
X399659D01*
X399004Y458780D01*
X402939D02*
X403595Y459436D01*
X404907D01*
X405563Y458780D01*
Y456156D01*
X404907Y455500D01*
X403595D01*
X402939Y456156D01*
Y458780D01*
X406875D02*
X407531Y459436D01*
X408843D01*
X409499Y458780D01*
Y456156D01*
X408843Y455500D01*
X407531D01*
X406875Y456156D01*
Y458780D01*
X410811Y459436D02*
Y456812D01*
X412123Y455500D01*
X413435Y456812D01*
Y459436D01*
X434543Y455500D02*
Y459436D01*
X435855Y458124D01*
X437167Y459436D01*
Y455500D01*
X440447Y459436D02*
X439135D01*
X438479Y458780D01*
Y456156D01*
X439135Y455500D01*
X440447D01*
X441103Y456156D01*
Y458780D01*
X440447Y459436D01*
X445039Y458780D02*
X444383Y459436D01*
X443071D01*
X442415Y458780D01*
Y458124D01*
X443071Y457468D01*
X444383D01*
X445039Y456812D01*
Y456156D01*
X444383Y455500D01*
X443071D01*
X442415Y456156D01*
X448974Y459436D02*
X446350D01*
Y457468D01*
X447662D01*
X446350D01*
Y455500D01*
X452910Y459436D02*
X450286D01*
Y455500D01*
X452910D01*
X450286Y457468D02*
X451598D01*
X454222Y459436D02*
X456846D01*
X455534D01*
Y455500D01*
X462093D02*
X463405D01*
X462749D01*
Y459436D01*
X462093Y458780D01*
X465373D02*
X466029Y459436D01*
X467341D01*
X467997Y458780D01*
Y456156D01*
X467341Y455500D01*
X466029D01*
X465373Y456156D01*
Y458780D01*
X469309Y455500D02*
Y458124D01*
X470621Y459436D01*
X471933Y458124D01*
Y455500D01*
Y457468D01*
X469309D01*
X477180Y455500D02*
X478492D01*
X477836D01*
Y459436D01*
X477180Y458780D01*
X483084Y455500D02*
X480460D01*
X483084Y458124D01*
Y458780D01*
X482428Y459436D01*
X481116D01*
X480460Y458780D01*
X484396D02*
X485052Y459436D01*
X486364D01*
X487020Y458780D01*
Y456156D01*
X486364Y455500D01*
X485052D01*
X484396Y456156D01*
Y458780D01*
X488332D02*
X488988Y459436D01*
X490300D01*
X490956Y458780D01*
Y456156D01*
X490300Y455500D01*
X488988D01*
X488332Y456156D01*
Y458780D01*
X492268Y459436D02*
Y456812D01*
X493579Y455500D01*
X494891Y456812D01*
Y459436D01*
D40*
X107346Y311709D02*
G03*
X107346Y300291I0J-5709D01*
G01*
X136874Y297339D02*
Y314661D01*
X111677Y297339D02*
X136874D01*
X111677D02*
Y314661D01*
X136874D01*
X107346Y300291D02*
X111677D01*
X107346Y311709D02*
X111677D01*
D41*
X355051Y237985D02*
Y234049D01*
X357019Y236017D02*
X353083D01*
X285051Y237985D02*
Y234049D01*
X287019Y236017D02*
X283083D01*
X215051Y237985D02*
Y234049D01*
X217019Y236017D02*
X213083D01*
X585051Y362015D02*
Y365951D01*
X587019Y363983D02*
X583083D01*
X520051Y362015D02*
Y365951D01*
X522019Y363983D02*
X518083D01*
X455051Y362015D02*
Y365951D01*
X457019Y363983D02*
X453083D01*
D42*
X239150Y337501D02*
X235214D01*
X237182Y335533D02*
Y339469D01*
X280587Y352501D02*
X276651D01*
X278619Y350533D02*
Y354469D01*
X445650Y270001D02*
X441714D01*
X443682Y268033D02*
Y271969D01*
M02*
