G04 Layer_Physical_Order=1*
G04 Layer_Color=255*
%FSLAX25Y25*%
%MOIN*%
G70*
G01*
G75*
%ADD10C,0.03000*%
%ADD11R,0.03543X0.01772*%
%ADD12R,0.11024X0.11024*%
%ADD13R,0.08661X0.11000*%
%ADD14C,0.01000*%
%ADD15C,0.08000*%
%ADD16C,0.03000*%
%ADD17C,0.02000*%
%ADD18C,0.06496*%
%ADD19C,0.14567*%
%ADD20R,0.11417X0.11417*%
%ADD21C,0.11417*%
%ADD22O,0.11811X0.15748*%
%ADD23R,0.11811X0.15748*%
%ADD24R,0.05906X0.05906*%
%ADD25C,0.05906*%
%ADD26O,0.09055X0.10000*%
%ADD27C,0.15748*%
%ADD28C,0.34724*%
%ADD29C,0.11417*%
%ADD30C,0.05315*%
%ADD31R,0.05315X0.05315*%
%ADD32R,0.05906X0.05906*%
%ADD33C,0.06299*%
%ADD34C,0.05000*%
%ADD35R,0.05000X0.05000*%
%ADD36C,0.05512*%
G36*
X615500Y500146D02*
Y229000D01*
X614500Y228000D01*
X100000D01*
Y499500D01*
X615146Y500499D01*
X615500Y500146D01*
D02*
G37*
%LPC*%
G36*
X517500Y332764D02*
X516968Y332694D01*
X516007Y332295D01*
X515181Y331662D01*
X514547Y330836D01*
X514149Y329874D01*
X514079Y329343D01*
X517500D01*
Y332764D01*
D02*
G37*
G36*
X518500D02*
Y329343D01*
X521921D01*
X521851Y329874D01*
X521453Y330836D01*
X520819Y331662D01*
X519993Y332295D01*
X519032Y332694D01*
X518500Y332764D01*
D02*
G37*
G36*
X156268Y330219D02*
X155659Y330139D01*
X154625Y329711D01*
X153738Y329030D01*
X153057Y328142D01*
X152629Y327109D01*
X152549Y326500D01*
X156268D01*
Y330219D01*
D02*
G37*
G36*
X157268D02*
Y326500D01*
X160987D01*
X160906Y327109D01*
X160478Y328142D01*
X159797Y329030D01*
X158910Y329711D01*
X157877Y330139D01*
X157268Y330219D01*
D02*
G37*
G36*
X236500Y373517D02*
X235391Y373371D01*
X234358Y372943D01*
X233470Y372262D01*
X232789Y371375D01*
X232361Y370341D01*
X232215Y369232D01*
X232361Y368123D01*
X232789Y367090D01*
X233470Y366203D01*
X234358Y365522D01*
X234971Y365268D01*
Y351133D01*
X225290Y341453D01*
X219547D01*
Y333547D01*
X227453D01*
Y339290D01*
X237581Y349419D01*
X237913Y349915D01*
X238029Y350500D01*
Y365268D01*
X238642Y365522D01*
X239530Y366203D01*
X240211Y367090D01*
X240639Y368123D01*
X240785Y369232D01*
X240639Y370341D01*
X240211Y371375D01*
X239530Y372262D01*
X238642Y372943D01*
X237609Y373371D01*
X236500Y373517D01*
D02*
G37*
G36*
X119000Y349000D02*
X114169D01*
Y343000D01*
X119000D01*
Y349000D01*
D02*
G37*
G36*
X124831D02*
X120000D01*
Y343000D01*
X124831D01*
Y349000D01*
D02*
G37*
G36*
Y342000D02*
X120000D01*
Y336000D01*
X124831D01*
Y342000D01*
D02*
G37*
G36*
X236500Y415052D02*
X235391Y414906D01*
X234358Y414478D01*
X233470Y413797D01*
X232789Y412910D01*
X232361Y411877D01*
X232215Y410768D01*
X232361Y409659D01*
X232789Y408625D01*
X233470Y407738D01*
X234358Y407057D01*
X235391Y406629D01*
X236500Y406483D01*
X237609Y406629D01*
X238222Y406883D01*
X256491Y388614D01*
X256394Y388123D01*
X256235Y388057D01*
X255504Y387496D01*
X254943Y386765D01*
X254590Y385914D01*
X254470Y385000D01*
X254590Y384086D01*
X254943Y383235D01*
X255504Y382504D01*
X256235Y381943D01*
X257086Y381590D01*
X258000Y381470D01*
X258914Y381590D01*
X259765Y381943D01*
X260496Y382504D01*
X261057Y383235D01*
X261410Y384086D01*
X261530Y385000D01*
X261410Y385914D01*
X261057Y386765D01*
X260860Y387022D01*
X261081Y387471D01*
X286919D01*
X287140Y387022D01*
X286943Y386765D01*
X286590Y385914D01*
X286470Y385000D01*
X286590Y384086D01*
X286688Y383851D01*
X267793Y364955D01*
X261024Y358187D01*
X259278D01*
X258693Y358070D01*
X258196Y357739D01*
X173919Y273461D01*
X173587Y272965D01*
X173471Y272380D01*
Y265634D01*
X161149Y253312D01*
X160914Y253410D01*
X160000Y253530D01*
X159086Y253410D01*
X158235Y253057D01*
X157504Y252496D01*
X156943Y251765D01*
X156590Y250914D01*
X156470Y250000D01*
X156590Y249086D01*
X156943Y248235D01*
X157504Y247504D01*
X158235Y246943D01*
X159086Y246590D01*
X160000Y246470D01*
X160914Y246590D01*
X161765Y246943D01*
X162496Y247504D01*
X163057Y248235D01*
X163410Y249086D01*
X163530Y250000D01*
X163410Y250914D01*
X163312Y251149D01*
X176081Y263919D01*
X176413Y264415D01*
X176529Y265000D01*
Y271746D01*
X256862Y352079D01*
X257390Y351900D01*
X257437Y351545D01*
X257805Y350656D01*
X258391Y349891D01*
X259156Y349305D01*
X260045Y348937D01*
X260500Y348877D01*
Y352500D01*
X261000D01*
Y353000D01*
X264623D01*
X264563Y353455D01*
X264195Y354345D01*
X263609Y355109D01*
X263153Y355458D01*
X263120Y355957D01*
X266883Y359720D01*
X267345Y359528D01*
Y356157D01*
X265216D01*
Y348843D01*
X272532D01*
Y356157D01*
X270403D01*
Y363241D01*
X288851Y381688D01*
X289086Y381590D01*
X290000Y381470D01*
X290914Y381590D01*
X291765Y381943D01*
X292496Y382504D01*
X293057Y383235D01*
X293410Y384086D01*
X293452Y384408D01*
X293926Y384568D01*
X294575Y383919D01*
X295072Y383587D01*
X295657Y383471D01*
X298471D01*
Y370000D01*
X298587Y369415D01*
X298919Y368919D01*
X328919Y338919D01*
X329415Y338587D01*
X330000Y338471D01*
X376845D01*
X376943Y338235D01*
X377504Y337504D01*
X378235Y336943D01*
X379086Y336590D01*
X380000Y336470D01*
X380914Y336590D01*
X381765Y336943D01*
X382496Y337504D01*
X383057Y338235D01*
X383410Y339086D01*
X383530Y340000D01*
X383410Y340914D01*
X383057Y341765D01*
X382496Y342496D01*
X381765Y343057D01*
X380914Y343410D01*
X380000Y343530D01*
X379086Y343410D01*
X378235Y343057D01*
X377504Y342496D01*
X376943Y341765D01*
X376845Y341529D01*
X330633D01*
X301529Y370634D01*
Y385000D01*
X301413Y385585D01*
X301081Y386081D01*
X293312Y393851D01*
X293410Y394086D01*
X293530Y395000D01*
X293410Y395914D01*
X293057Y396765D01*
X292496Y397496D01*
X291765Y398057D01*
X290914Y398410D01*
X290000Y398530D01*
X289086Y398410D01*
X288235Y398057D01*
X287504Y397496D01*
X286943Y396765D01*
X286590Y395914D01*
X286470Y395000D01*
X286590Y394086D01*
X286943Y393235D01*
X287504Y392504D01*
X288235Y391943D01*
X289086Y391590D01*
X290000Y391470D01*
X290914Y391590D01*
X291149Y391688D01*
X291833Y391004D01*
X291706Y390661D01*
X291601Y390529D01*
X258901D01*
X258411Y391020D01*
X258590Y391547D01*
X258914Y391590D01*
X259765Y391943D01*
X260496Y392504D01*
X261057Y393235D01*
X261410Y394086D01*
X261530Y395000D01*
X261410Y395914D01*
X261057Y396765D01*
X260496Y397496D01*
X259765Y398057D01*
X258914Y398410D01*
X258000Y398530D01*
X257086Y398410D01*
X256235Y398057D01*
X255504Y397496D01*
X254943Y396765D01*
X254590Y395914D01*
X254548Y395590D01*
X254020Y395411D01*
X240385Y409046D01*
X240639Y409659D01*
X240785Y410768D01*
X240639Y411877D01*
X240211Y412910D01*
X239530Y413797D01*
X238642Y414478D01*
X237609Y414906D01*
X236500Y415052D01*
D02*
G37*
G36*
X521921Y328343D02*
X518500D01*
Y324921D01*
X519032Y324991D01*
X519993Y325390D01*
X520819Y326023D01*
X521453Y326849D01*
X521851Y327811D01*
X521921Y328343D01*
D02*
G37*
G36*
X553298Y321500D02*
X547106D01*
Y315308D01*
X547921Y315388D01*
X549186Y315772D01*
X550351Y316395D01*
X551373Y317233D01*
X552211Y318255D01*
X552834Y319420D01*
X553218Y320685D01*
X553298Y321500D01*
D02*
G37*
G36*
X290000Y323788D02*
X289019Y323659D01*
X288106Y323281D01*
X287321Y322679D01*
X286719Y321894D01*
X286341Y320981D01*
X286212Y320000D01*
X286341Y319020D01*
X286719Y318106D01*
X287321Y317321D01*
X288106Y316719D01*
X289019Y316341D01*
X290000Y316212D01*
X290981Y316341D01*
X291894Y316719D01*
X292679Y317321D01*
X293281Y318106D01*
X293659Y319020D01*
X293788Y320000D01*
X293659Y320981D01*
X293281Y321894D01*
X292679Y322679D01*
X291894Y323281D01*
X290981Y323659D01*
X290000Y323788D01*
D02*
G37*
G36*
X597000Y330324D02*
X595376Y330164D01*
X593815Y329690D01*
X592376Y328921D01*
X591114Y327886D01*
X590079Y326624D01*
X589310Y325185D01*
X588836Y323624D01*
X588677Y322000D01*
X588836Y320376D01*
X589310Y318815D01*
X590079Y317376D01*
X591114Y316114D01*
X592376Y315079D01*
X593815Y314310D01*
X595376Y313836D01*
X597000Y313677D01*
X598624Y313836D01*
X600185Y314310D01*
X601624Y315079D01*
X602886Y316114D01*
X603921Y317376D01*
X604690Y318815D01*
X605164Y320376D01*
X605324Y322000D01*
X605164Y323624D01*
X604690Y325185D01*
X603921Y326624D01*
X602886Y327886D01*
X601624Y328921D01*
X600185Y329690D01*
X598624Y330164D01*
X597000Y330324D01*
D02*
G37*
G36*
X546106Y321500D02*
X539914D01*
X539995Y320685D01*
X540378Y319420D01*
X541001Y318255D01*
X541840Y317233D01*
X542861Y316395D01*
X544027Y315772D01*
X545291Y315388D01*
X546106Y315308D01*
Y321500D01*
D02*
G37*
G36*
X156268Y325500D02*
X152549D01*
X152629Y324891D01*
X153057Y323858D01*
X153738Y322970D01*
X154625Y322289D01*
X155659Y321861D01*
X156268Y321781D01*
Y325500D01*
D02*
G37*
G36*
X547106Y328692D02*
Y322500D01*
X553298D01*
X553218Y323315D01*
X552834Y324580D01*
X552211Y325745D01*
X551373Y326767D01*
X550351Y327605D01*
X549186Y328228D01*
X547921Y328612D01*
X547106Y328692D01*
D02*
G37*
G36*
X517500Y328343D02*
X514079D01*
X514149Y327811D01*
X514547Y326849D01*
X515181Y326023D01*
X516007Y325390D01*
X516968Y324991D01*
X517500Y324921D01*
Y328343D01*
D02*
G37*
G36*
X160987Y325500D02*
X157268D01*
Y321781D01*
X157877Y321861D01*
X158910Y322289D01*
X159797Y322970D01*
X160478Y323858D01*
X160906Y324891D01*
X160987Y325500D01*
D02*
G37*
G36*
X546106Y328692D02*
X545291Y328612D01*
X544027Y328228D01*
X542861Y327605D01*
X541840Y326767D01*
X541001Y325745D01*
X540378Y324580D01*
X539995Y323315D01*
X539914Y322500D01*
X546106D01*
Y328692D01*
D02*
G37*
G36*
X596929Y361323D02*
X595305Y361164D01*
X593744Y360690D01*
X592305Y359921D01*
X591044Y358886D01*
X590008Y357624D01*
X589239Y356185D01*
X588765Y354624D01*
X588606Y353000D01*
X588765Y351376D01*
X589239Y349815D01*
X590008Y348376D01*
X591044Y347114D01*
X592305Y346079D01*
X593744Y345310D01*
X595305Y344836D01*
X596929Y344676D01*
X598553Y344836D01*
X600114Y345310D01*
X601553Y346079D01*
X602815Y347114D01*
X603850Y348376D01*
X604619Y349815D01*
X605093Y351376D01*
X605253Y353000D01*
X605093Y354624D01*
X604619Y356185D01*
X603850Y357624D01*
X602815Y358886D01*
X601553Y359921D01*
X600114Y360690D01*
X598553Y361164D01*
X596929Y361323D01*
D02*
G37*
G36*
X473421Y355500D02*
X470000D01*
Y352079D01*
X470532Y352149D01*
X471493Y352547D01*
X472319Y353181D01*
X472953Y354007D01*
X473351Y354968D01*
X473421Y355500D01*
D02*
G37*
G36*
X546035Y359692D02*
X545220Y359612D01*
X543956Y359228D01*
X542790Y358605D01*
X541769Y357767D01*
X540930Y356745D01*
X540307Y355580D01*
X539924Y354315D01*
X539844Y353500D01*
X546035D01*
Y359692D01*
D02*
G37*
G36*
X130692Y357500D02*
X124500D01*
Y351308D01*
X125315Y351388D01*
X126580Y351772D01*
X127745Y352395D01*
X128767Y353233D01*
X129605Y354255D01*
X130228Y355420D01*
X130612Y356685D01*
X130692Y357500D01*
D02*
G37*
G36*
X469000Y355500D02*
X465579D01*
X465649Y354968D01*
X466047Y354007D01*
X466681Y353181D01*
X467507Y352547D01*
X468468Y352149D01*
X469000Y352079D01*
Y355500D01*
D02*
G37*
G36*
X547035Y359692D02*
Y353500D01*
X553227D01*
X553147Y354315D01*
X552763Y355580D01*
X552140Y356745D01*
X551302Y357767D01*
X550281Y358605D01*
X549115Y359228D01*
X547851Y359612D01*
X547035Y359692D01*
D02*
G37*
G36*
X123500Y364692D02*
X122685Y364612D01*
X121420Y364228D01*
X120255Y363605D01*
X119233Y362767D01*
X118395Y361745D01*
X117772Y360580D01*
X117388Y359315D01*
X117308Y358500D01*
X123500D01*
Y364692D01*
D02*
G37*
G36*
X124500D02*
Y358500D01*
X130692D01*
X130612Y359315D01*
X130228Y360580D01*
X129605Y361745D01*
X128767Y362767D01*
X127745Y363605D01*
X126580Y364228D01*
X125315Y364612D01*
X124500Y364692D01*
D02*
G37*
G36*
X469000Y359921D02*
X468468Y359851D01*
X467507Y359453D01*
X466681Y358819D01*
X466047Y357993D01*
X465649Y357032D01*
X465579Y356500D01*
X469000D01*
Y359921D01*
D02*
G37*
G36*
X470000D02*
Y356500D01*
X473421D01*
X473351Y357032D01*
X472953Y357993D01*
X472319Y358819D01*
X471493Y359453D01*
X470532Y359851D01*
X470000Y359921D01*
D02*
G37*
G36*
X123500Y357500D02*
X117308D01*
X117388Y356685D01*
X117772Y355420D01*
X118395Y354255D01*
X119233Y353233D01*
X120255Y352395D01*
X121420Y351772D01*
X122685Y351388D01*
X123500Y351308D01*
Y357500D01*
D02*
G37*
G36*
X574898Y359709D02*
X561480D01*
Y346291D01*
X574898D01*
Y359709D01*
D02*
G37*
G36*
X553227Y352500D02*
X547035D01*
Y346308D01*
X547851Y346388D01*
X549115Y346772D01*
X550281Y347395D01*
X551302Y348233D01*
X552140Y349255D01*
X552763Y350420D01*
X553147Y351685D01*
X553227Y352500D01*
D02*
G37*
G36*
X303732Y349500D02*
X300013D01*
X300094Y348891D01*
X300522Y347858D01*
X301203Y346970D01*
X302090Y346289D01*
X303123Y345861D01*
X303732Y345781D01*
Y349500D01*
D02*
G37*
G36*
X308451D02*
X304732D01*
Y345781D01*
X305341Y345861D01*
X306375Y346289D01*
X307262Y346970D01*
X307943Y347858D01*
X308371Y348891D01*
X308451Y349500D01*
D02*
G37*
G36*
X546035Y352500D02*
X539844D01*
X539924Y351685D01*
X540307Y350420D01*
X540930Y349255D01*
X541769Y348233D01*
X542790Y347395D01*
X543956Y346772D01*
X545220Y346388D01*
X546035Y346308D01*
Y352500D01*
D02*
G37*
G36*
X304732Y354219D02*
Y350500D01*
X308451D01*
X308371Y351109D01*
X307943Y352142D01*
X307262Y353030D01*
X306375Y353711D01*
X305341Y354139D01*
X304732Y354219D01*
D02*
G37*
G36*
X151000Y364741D02*
X149685Y364612D01*
X148420Y364228D01*
X147255Y363605D01*
X146233Y362767D01*
X145395Y361745D01*
X144772Y360580D01*
X144388Y359315D01*
X144259Y358000D01*
X144388Y356685D01*
X144772Y355420D01*
X145395Y354255D01*
X146233Y353233D01*
X147255Y352395D01*
X148420Y351772D01*
X149685Y351388D01*
X151000Y351259D01*
X152315Y351388D01*
X153580Y351772D01*
X154745Y352395D01*
X155767Y353233D01*
X156605Y354255D01*
X157228Y355420D01*
X157612Y356685D01*
X157741Y358000D01*
X157612Y359315D01*
X157228Y360580D01*
X156605Y361745D01*
X155767Y362767D01*
X154745Y363605D01*
X153580Y364228D01*
X152315Y364612D01*
X151000Y364741D01*
D02*
G37*
G36*
X264623Y352000D02*
X261500D01*
Y348877D01*
X261955Y348937D01*
X262844Y349305D01*
X263609Y349891D01*
X264195Y350656D01*
X264563Y351545D01*
X264623Y352000D01*
D02*
G37*
G36*
X303732Y354219D02*
X303123Y354139D01*
X302090Y353711D01*
X301203Y353030D01*
X300522Y352142D01*
X300094Y351109D01*
X300013Y350500D01*
X303732D01*
Y354219D01*
D02*
G37*
G36*
X115232Y330285D02*
X114123Y330139D01*
X113090Y329711D01*
X112203Y329030D01*
X111522Y328142D01*
X111094Y327109D01*
X110948Y326000D01*
X111094Y324891D01*
X111522Y323858D01*
X112203Y322970D01*
X113090Y322289D01*
X114123Y321861D01*
X115232Y321715D01*
X116018Y321819D01*
X125190Y312647D01*
X124957Y312083D01*
X124815Y311000D01*
X124957Y309917D01*
X125375Y308907D01*
X126040Y308040D01*
X126907Y307375D01*
X127917Y306957D01*
X129000Y306815D01*
X130083Y306957D01*
X131093Y307375D01*
X131959Y308040D01*
X132625Y308907D01*
X133043Y309917D01*
X133185Y311000D01*
X133043Y312083D01*
X132625Y313093D01*
X131959Y313960D01*
X131093Y314625D01*
X130083Y315043D01*
X129000Y315185D01*
X127917Y315043D01*
X127353Y314809D01*
X118666Y323497D01*
X118943Y323858D01*
X119371Y324891D01*
X119517Y326000D01*
X119371Y327109D01*
X118943Y328142D01*
X118262Y329030D01*
X117375Y329711D01*
X116341Y330139D01*
X115232Y330285D01*
D02*
G37*
G36*
X401063Y257123D02*
X400608Y257063D01*
X399718Y256695D01*
X398954Y256109D01*
X398368Y255345D01*
X398000Y254455D01*
X397940Y254000D01*
X401063D01*
Y257123D01*
D02*
G37*
G36*
X402063D02*
Y254000D01*
X405186D01*
X405126Y254455D01*
X404758Y255345D01*
X404172Y256109D01*
X403407Y256695D01*
X402518Y257063D01*
X402063Y257123D01*
D02*
G37*
G36*
X313453Y259610D02*
X305547D01*
Y251705D01*
X313453D01*
Y259610D01*
D02*
G37*
G36*
X266953Y260610D02*
X259047D01*
Y252705D01*
X266953D01*
Y260610D01*
D02*
G37*
G36*
X150000Y263530D02*
X149086Y263410D01*
X148235Y263057D01*
X147504Y262496D01*
X146943Y261765D01*
X146590Y260914D01*
X146470Y260000D01*
X146590Y259086D01*
X146943Y258235D01*
X147504Y257504D01*
X148235Y256943D01*
X149086Y256590D01*
X150000Y256470D01*
X150914Y256590D01*
X151765Y256943D01*
X152496Y257504D01*
X153057Y258235D01*
X153410Y259086D01*
X153530Y260000D01*
X153410Y260914D01*
X153057Y261765D01*
X152496Y262496D01*
X151765Y263057D01*
X150914Y263410D01*
X150000Y263530D01*
D02*
G37*
G36*
X354500Y274500D02*
X351079D01*
X351149Y273968D01*
X351547Y273007D01*
X352181Y272181D01*
X353007Y271547D01*
X353968Y271149D01*
X354500Y271079D01*
Y274500D01*
D02*
G37*
G36*
X358921D02*
X355500D01*
Y271079D01*
X356032Y271149D01*
X356993Y271547D01*
X357819Y272181D01*
X358453Y273007D01*
X358851Y273968D01*
X358921Y274500D01*
D02*
G37*
G36*
X160000Y263530D02*
X159086Y263410D01*
X158235Y263057D01*
X157504Y262496D01*
X156943Y261765D01*
X156590Y260914D01*
X156470Y260000D01*
X156590Y259086D01*
X156943Y258235D01*
X157504Y257504D01*
X158235Y256943D01*
X159086Y256590D01*
X160000Y256470D01*
X160914Y256590D01*
X161765Y256943D01*
X162496Y257504D01*
X163057Y258235D01*
X163410Y259086D01*
X163530Y260000D01*
X163410Y260914D01*
X163057Y261765D01*
X162496Y262496D01*
X161765Y263057D01*
X160914Y263410D01*
X160000Y263530D01*
D02*
G37*
G36*
X450641Y268530D02*
X449727Y268410D01*
X448876Y268057D01*
X448145Y267496D01*
X447584Y266765D01*
X447231Y265914D01*
X447111Y265000D01*
X447231Y264086D01*
X447584Y263235D01*
X448145Y262504D01*
X448876Y261943D01*
X449727Y261590D01*
X450641Y261470D01*
X451555Y261590D01*
X452406Y261943D01*
X453137Y262504D01*
X453698Y263235D01*
X454051Y264086D01*
X454171Y265000D01*
X454051Y265914D01*
X453698Y266765D01*
X453137Y267496D01*
X452406Y268057D01*
X451555Y268410D01*
X450641Y268530D01*
D02*
G37*
G36*
X480000Y258530D02*
X479086Y258410D01*
X478235Y258057D01*
X477504Y257496D01*
X476943Y256765D01*
X476590Y255914D01*
X476470Y255000D01*
X476590Y254086D01*
X476943Y253235D01*
X477504Y252504D01*
X478235Y251943D01*
X479086Y251590D01*
X480000Y251470D01*
X480914Y251590D01*
X481765Y251943D01*
X482496Y252504D01*
X483057Y253235D01*
X483410Y254086D01*
X483530Y255000D01*
X483410Y255914D01*
X483057Y256765D01*
X482496Y257496D01*
X481765Y258057D01*
X480914Y258410D01*
X480000Y258530D01*
D02*
G37*
G36*
X119000Y342000D02*
X114169D01*
Y339332D01*
X103919Y329081D01*
X103587Y328585D01*
X103471Y328000D01*
Y250000D01*
X103587Y249415D01*
X103919Y248919D01*
X113919Y238919D01*
X114415Y238587D01*
X115000Y238471D01*
X146845D01*
X146943Y238235D01*
X147504Y237504D01*
X148235Y236943D01*
X149086Y236590D01*
X149500Y236536D01*
Y240000D01*
Y243464D01*
X149086Y243410D01*
X148235Y243057D01*
X147504Y242496D01*
X146943Y241765D01*
X146845Y241529D01*
X115633D01*
X106529Y250634D01*
Y327366D01*
X115163Y336000D01*
X119000D01*
Y342000D01*
D02*
G37*
G36*
X163464Y239500D02*
X160500D01*
Y236536D01*
X160914Y236590D01*
X161765Y236943D01*
X162496Y237504D01*
X163057Y238235D01*
X163410Y239086D01*
X163464Y239500D01*
D02*
G37*
G36*
X589000Y269902D02*
X586598Y269744D01*
X584237Y269275D01*
X581958Y268501D01*
X579799Y267436D01*
X577798Y266099D01*
X575988Y264512D01*
X574401Y262702D01*
X573064Y260701D01*
X571999Y258542D01*
X571225Y256263D01*
X570756Y253902D01*
X570598Y251500D01*
X570756Y249098D01*
X571225Y246737D01*
X571999Y244458D01*
X573064Y242299D01*
X574401Y240298D01*
X575988Y238488D01*
X577798Y236901D01*
X579799Y235564D01*
X581958Y234499D01*
X584237Y233725D01*
X586598Y233256D01*
X589000Y233098D01*
X591402Y233256D01*
X593763Y233725D01*
X596042Y234499D01*
X598201Y235564D01*
X600202Y236901D01*
X602012Y238488D01*
X603599Y240298D01*
X604936Y242299D01*
X606001Y244458D01*
X606775Y246737D01*
X607244Y249098D01*
X607402Y251500D01*
X607244Y253902D01*
X606775Y256263D01*
X606001Y258542D01*
X604936Y260701D01*
X603599Y262702D01*
X602012Y264512D01*
X600202Y266099D01*
X598201Y267436D01*
X596042Y268501D01*
X593763Y269275D01*
X591402Y269744D01*
X589000Y269902D01*
D02*
G37*
G36*
X150500Y243464D02*
Y240000D01*
Y236536D01*
X150914Y236590D01*
X151765Y236943D01*
X152496Y237504D01*
X153057Y238235D01*
X153155Y238471D01*
X156845D01*
X156943Y238235D01*
X157504Y237504D01*
X158235Y236943D01*
X159086Y236590D01*
X159500Y236536D01*
Y240000D01*
Y243464D01*
X159086Y243410D01*
X158235Y243057D01*
X157504Y242496D01*
X156943Y241765D01*
X156845Y241529D01*
X153155D01*
X153057Y241765D01*
X152496Y242496D01*
X151765Y243057D01*
X150914Y243410D01*
X150500Y243464D01*
D02*
G37*
G36*
X160500D02*
Y240500D01*
X163464D01*
X163410Y240914D01*
X163057Y241765D01*
X162496Y242496D01*
X161765Y243057D01*
X160914Y243410D01*
X160500Y243464D01*
D02*
G37*
G36*
X401063Y253000D02*
X397940D01*
X398000Y252545D01*
X398368Y251656D01*
X398954Y250891D01*
X399718Y250305D01*
X400608Y249937D01*
X401063Y249877D01*
Y253000D01*
D02*
G37*
G36*
X405186D02*
X402063D01*
Y249877D01*
X402518Y249937D01*
X403407Y250305D01*
X404172Y250891D01*
X404758Y251656D01*
X405126Y252545D01*
X405186Y253000D01*
D02*
G37*
G36*
X473453Y340268D02*
X465547D01*
Y332362D01*
X472033D01*
X490451Y313944D01*
Y244056D01*
X488944Y242549D01*
X483096D01*
X482875Y242997D01*
X483057Y243235D01*
X483410Y244086D01*
X483530Y245000D01*
X483410Y245914D01*
X483057Y246765D01*
X482496Y247496D01*
X481765Y248057D01*
X480914Y248410D01*
X480000Y248530D01*
X479086Y248410D01*
X478235Y248057D01*
X477504Y247496D01*
X476943Y246765D01*
X476590Y245914D01*
X476470Y245000D01*
X476590Y244086D01*
X476943Y243235D01*
X477125Y242997D01*
X476904Y242549D01*
X453737D01*
X453516Y242997D01*
X453698Y243235D01*
X454051Y244086D01*
X454171Y245000D01*
X454051Y245914D01*
X453698Y246765D01*
X453137Y247496D01*
X452406Y248057D01*
X451555Y248410D01*
X450641Y248530D01*
X449727Y248410D01*
X448876Y248057D01*
X448145Y247496D01*
X447584Y246765D01*
X447231Y245914D01*
X447111Y245000D01*
X447231Y244086D01*
X447584Y243235D01*
X447766Y242997D01*
X447545Y242549D01*
X399056D01*
X382549Y259056D01*
Y310000D01*
X382355Y310976D01*
X381802Y311802D01*
X373767Y319838D01*
X373788Y320000D01*
X373659Y320981D01*
X373281Y321894D01*
X372679Y322679D01*
X371894Y323281D01*
X370981Y323659D01*
X370000Y323788D01*
X369020Y323659D01*
X368106Y323281D01*
X367321Y322679D01*
X366719Y321894D01*
X366341Y320981D01*
X366212Y320000D01*
X366233Y319838D01*
X348944Y302549D01*
X260000D01*
X259025Y302355D01*
X258198Y301802D01*
X217005Y260610D01*
X211047D01*
Y252705D01*
X213935D01*
X214024Y252645D01*
X215000Y252451D01*
X215975Y252645D01*
X216065Y252705D01*
X218953D01*
Y255348D01*
X261056Y297451D01*
X332451D01*
Y275000D01*
X332645Y274025D01*
X333198Y273198D01*
X351047Y255348D01*
Y251362D01*
X358953D01*
Y259268D01*
X354337D01*
X337549Y276056D01*
Y297451D01*
X350000D01*
X350975Y297645D01*
X351802Y298198D01*
X369838Y316233D01*
X370000Y316212D01*
X370162Y316233D01*
X377451Y308944D01*
Y258000D01*
X377645Y257025D01*
X378198Y256198D01*
X396198Y238198D01*
X397024Y237645D01*
X398000Y237451D01*
X490000D01*
X490976Y237645D01*
X491802Y238198D01*
X494802Y241198D01*
X495355Y242024D01*
X495549Y243000D01*
Y315000D01*
X495355Y315975D01*
X494802Y316802D01*
X473487Y338117D01*
X473453Y338141D01*
Y340268D01*
D02*
G37*
G36*
X126500Y280402D02*
X124098Y280244D01*
X121737Y279775D01*
X119458Y279001D01*
X117299Y277936D01*
X115298Y276599D01*
X113488Y275012D01*
X111901Y273202D01*
X110564Y271201D01*
X109499Y269042D01*
X108725Y266763D01*
X108256Y264402D01*
X108098Y262000D01*
X108256Y259598D01*
X108725Y257237D01*
X109499Y254958D01*
X110564Y252799D01*
X111901Y250798D01*
X113488Y248988D01*
X115298Y247401D01*
X117299Y246064D01*
X119458Y244999D01*
X121737Y244225D01*
X124098Y243756D01*
X126500Y243598D01*
X128902Y243756D01*
X131263Y244225D01*
X133542Y244999D01*
X135701Y246064D01*
X137702Y247401D01*
X139512Y248988D01*
X141099Y250798D01*
X142436Y252799D01*
X143501Y254958D01*
X144275Y257237D01*
X144744Y259598D01*
X144902Y262000D01*
X144744Y264402D01*
X144275Y266763D01*
X143501Y269042D01*
X142436Y271201D01*
X141099Y273202D01*
X139512Y275012D01*
X137702Y276599D01*
X135701Y277936D01*
X133542Y279001D01*
X131263Y279775D01*
X128902Y280244D01*
X126500Y280402D01*
D02*
G37*
G36*
X309000Y274843D02*
X305579D01*
X305649Y274311D01*
X306047Y273349D01*
X306681Y272523D01*
X307507Y271890D01*
X308468Y271492D01*
X309000Y271422D01*
Y274843D01*
D02*
G37*
G36*
X214500Y280263D02*
X213968Y280193D01*
X213007Y279795D01*
X212181Y279162D01*
X211547Y278336D01*
X211149Y277374D01*
X211079Y276842D01*
X214500D01*
Y280263D01*
D02*
G37*
G36*
X262500D02*
X261968Y280193D01*
X261007Y279795D01*
X260181Y279162D01*
X259547Y278336D01*
X259149Y277374D01*
X259079Y276842D01*
X262500D01*
Y280263D01*
D02*
G37*
G36*
X309000Y279263D02*
X308468Y279193D01*
X307507Y278795D01*
X306681Y278162D01*
X306047Y277336D01*
X305649Y276374D01*
X305579Y275842D01*
X309000D01*
Y279263D01*
D02*
G37*
G36*
X310000D02*
Y275842D01*
X313421D01*
X313351Y276374D01*
X312953Y277336D01*
X312319Y278162D01*
X311493Y278795D01*
X310532Y279193D01*
X310000Y279263D01*
D02*
G37*
G36*
X215500Y280263D02*
Y276842D01*
X218921D01*
X218851Y277374D01*
X218453Y278336D01*
X217819Y279162D01*
X216993Y279795D01*
X216032Y280193D01*
X215500Y280263D01*
D02*
G37*
G36*
X129000Y305185D02*
X127917Y305043D01*
X126907Y304625D01*
X126040Y303959D01*
X125375Y303093D01*
X124957Y302083D01*
X124815Y301000D01*
X124957Y299917D01*
X125375Y298907D01*
X126040Y298041D01*
X126907Y297375D01*
X127917Y296957D01*
X129000Y296815D01*
X130083Y296957D01*
X131093Y297375D01*
X131959Y298041D01*
X132625Y298907D01*
X133043Y299917D01*
X133185Y301000D01*
X133043Y302083D01*
X132625Y303093D01*
X131959Y303959D01*
X131093Y304625D01*
X130083Y305043D01*
X129000Y305185D01*
D02*
G37*
G36*
X394500Y311517D02*
X393391Y311371D01*
X392358Y310943D01*
X391470Y310262D01*
X390789Y309375D01*
X390361Y308341D01*
X390215Y307232D01*
X390361Y306123D01*
X390789Y305090D01*
X391470Y304203D01*
X392358Y303522D01*
X393391Y303094D01*
X394500Y302948D01*
X395609Y303094D01*
X396642Y303522D01*
X397530Y304203D01*
X398211Y305090D01*
X398639Y306123D01*
X398785Y307232D01*
X398639Y308341D01*
X398211Y309375D01*
X397530Y310262D01*
X396642Y310943D01*
X395609Y311371D01*
X394500Y311517D01*
D02*
G37*
G36*
X263500Y280263D02*
Y276842D01*
X266921D01*
X266851Y277374D01*
X266453Y278336D01*
X265819Y279162D01*
X264993Y279795D01*
X264032Y280193D01*
X263500Y280263D01*
D02*
G37*
G36*
X546106Y286692D02*
X545291Y286612D01*
X544027Y286228D01*
X542861Y285605D01*
X541840Y284767D01*
X541001Y283745D01*
X540378Y282580D01*
X539995Y281315D01*
X539914Y280500D01*
X546106D01*
Y286692D01*
D02*
G37*
G36*
X355500Y278921D02*
Y275500D01*
X358921D01*
X358851Y276032D01*
X358453Y276993D01*
X357819Y277819D01*
X356993Y278453D01*
X356032Y278851D01*
X355500Y278921D01*
D02*
G37*
G36*
X214500Y275842D02*
X211079D01*
X211149Y275311D01*
X211547Y274349D01*
X212181Y273523D01*
X213007Y272890D01*
X213968Y272492D01*
X214500Y272422D01*
Y275842D01*
D02*
G37*
G36*
X262500D02*
X259079D01*
X259149Y275311D01*
X259547Y274349D01*
X260181Y273523D01*
X261007Y272890D01*
X261968Y272492D01*
X262500Y272422D01*
Y275842D01*
D02*
G37*
G36*
X313421Y274843D02*
X310000D01*
Y271422D01*
X310532Y271492D01*
X311493Y271890D01*
X312319Y272523D01*
X312953Y273349D01*
X313351Y274311D01*
X313421Y274843D01*
D02*
G37*
G36*
X597000Y288323D02*
X595376Y288164D01*
X593815Y287690D01*
X592376Y286921D01*
X591114Y285886D01*
X590079Y284624D01*
X589310Y283185D01*
X588836Y281624D01*
X588677Y280000D01*
X588836Y278376D01*
X589310Y276815D01*
X590079Y275376D01*
X591114Y274114D01*
X592376Y273079D01*
X593815Y272310D01*
X595376Y271836D01*
X597000Y271676D01*
X598624Y271836D01*
X600185Y272310D01*
X601624Y273079D01*
X602886Y274114D01*
X603921Y275376D01*
X604690Y276815D01*
X605164Y278376D01*
X605324Y280000D01*
X605164Y281624D01*
X604690Y283185D01*
X603921Y284624D01*
X602886Y285886D01*
X601624Y286921D01*
X600185Y287690D01*
X598624Y288164D01*
X597000Y288323D01*
D02*
G37*
G36*
X218921Y275842D02*
X215500D01*
Y272422D01*
X216032Y272492D01*
X216993Y272890D01*
X217819Y273523D01*
X218453Y274349D01*
X218851Y275311D01*
X218921Y275842D01*
D02*
G37*
G36*
X553298Y279500D02*
X547106D01*
Y273308D01*
X547921Y273388D01*
X549186Y273772D01*
X550351Y274395D01*
X551373Y275233D01*
X552211Y276255D01*
X552834Y277420D01*
X553218Y278685D01*
X553298Y279500D01*
D02*
G37*
G36*
X354500Y278921D02*
X353968Y278851D01*
X353007Y278453D01*
X352181Y277819D01*
X351547Y276993D01*
X351149Y276032D01*
X351079Y275500D01*
X354500D01*
Y278921D01*
D02*
G37*
G36*
X266921Y275842D02*
X263500D01*
Y272422D01*
X264032Y272492D01*
X264993Y272890D01*
X265819Y273523D01*
X266453Y274349D01*
X266851Y275311D01*
X266921Y275842D01*
D02*
G37*
G36*
X546106Y279500D02*
X539914D01*
X539995Y278685D01*
X540378Y277420D01*
X541001Y276255D01*
X541840Y275233D01*
X542861Y274395D01*
X544027Y273772D01*
X545291Y273388D01*
X546106Y273308D01*
Y279500D01*
D02*
G37*
G36*
X289500Y364500D02*
X286536D01*
X286590Y364086D01*
X286943Y363235D01*
X287504Y362504D01*
X288235Y361943D01*
X289086Y361590D01*
X289500Y361536D01*
Y364500D01*
D02*
G37*
G36*
X168894Y443500D02*
X162702D01*
X162782Y442685D01*
X163166Y441420D01*
X163789Y440255D01*
X164627Y439233D01*
X165649Y438395D01*
X166814Y437772D01*
X168079Y437388D01*
X168894Y437308D01*
Y443500D01*
D02*
G37*
G36*
X176086D02*
X169894D01*
Y437308D01*
X170709Y437388D01*
X171974Y437772D01*
X173139Y438395D01*
X174161Y439233D01*
X174999Y440255D01*
X175622Y441420D01*
X176005Y442685D01*
X176086Y443500D01*
D02*
G37*
G36*
X154449Y450709D02*
X141032D01*
Y437291D01*
X154449D01*
Y450709D01*
D02*
G37*
G36*
X545535Y441741D02*
X544220Y441612D01*
X542956Y441228D01*
X541790Y440605D01*
X540769Y439767D01*
X539930Y438745D01*
X539307Y437580D01*
X538924Y436315D01*
X538794Y435000D01*
X538924Y433685D01*
X539307Y432420D01*
X539930Y431255D01*
X540769Y430233D01*
X541790Y429395D01*
X542956Y428772D01*
X544220Y428388D01*
X545535Y428259D01*
X546850Y428388D01*
X548115Y428772D01*
X549281Y429395D01*
X550302Y430233D01*
X551140Y431255D01*
X551763Y432420D01*
X552147Y433685D01*
X552277Y435000D01*
X552147Y436315D01*
X551763Y437580D01*
X551140Y438745D01*
X550302Y439767D01*
X549281Y440605D01*
X548115Y441228D01*
X546850Y441612D01*
X545535Y441741D01*
D02*
G37*
G36*
X119000Y452323D02*
X117376Y452164D01*
X115815Y451690D01*
X114376Y450921D01*
X113114Y449886D01*
X112079Y448624D01*
X111310Y447185D01*
X110836Y445624D01*
X110677Y444000D01*
X110836Y442376D01*
X111310Y440815D01*
X112079Y439376D01*
X113114Y438114D01*
X114376Y437079D01*
X115815Y436310D01*
X117376Y435836D01*
X119000Y435676D01*
X120624Y435836D01*
X122185Y436310D01*
X123624Y437079D01*
X124886Y438114D01*
X125921Y439376D01*
X126690Y440815D01*
X127164Y442376D01*
X127323Y444000D01*
X127164Y445624D01*
X126690Y447185D01*
X125921Y448624D01*
X124886Y449886D01*
X123624Y450921D01*
X122185Y451690D01*
X120624Y452164D01*
X119000Y452323D01*
D02*
G37*
G36*
X594000Y496902D02*
X591598Y496744D01*
X589237Y496275D01*
X586958Y495501D01*
X584799Y494436D01*
X582798Y493099D01*
X580988Y491512D01*
X579401Y489702D01*
X578064Y487701D01*
X576999Y485542D01*
X576225Y483263D01*
X575756Y480902D01*
X575598Y478500D01*
X575756Y476098D01*
X576225Y473737D01*
X576999Y471458D01*
X578064Y469299D01*
X579401Y467298D01*
X580988Y465488D01*
X582798Y463901D01*
X584799Y462564D01*
X586958Y461499D01*
X589237Y460725D01*
X591598Y460256D01*
X594000Y460098D01*
X596402Y460256D01*
X598763Y460725D01*
X601042Y461499D01*
X603201Y462564D01*
X605202Y463901D01*
X607012Y465488D01*
X608599Y467298D01*
X609936Y469299D01*
X611001Y471458D01*
X611775Y473737D01*
X612244Y476098D01*
X612402Y478500D01*
X612244Y480902D01*
X611775Y483263D01*
X611001Y485542D01*
X609936Y487701D01*
X608599Y489702D01*
X607012Y491512D01*
X605202Y493099D01*
X603201Y494436D01*
X601042Y495501D01*
X598763Y496275D01*
X596402Y496744D01*
X594000Y496902D01*
D02*
G37*
G36*
X121000Y497402D02*
X118598Y497244D01*
X116237Y496775D01*
X113958Y496001D01*
X111799Y494936D01*
X109798Y493599D01*
X107988Y492012D01*
X106401Y490202D01*
X105064Y488201D01*
X103999Y486042D01*
X103225Y483763D01*
X102756Y481402D01*
X102598Y479000D01*
X102756Y476598D01*
X103225Y474237D01*
X103999Y471958D01*
X105064Y469799D01*
X106401Y467798D01*
X107988Y465988D01*
X109798Y464401D01*
X111799Y463064D01*
X113958Y461999D01*
X116237Y461225D01*
X118598Y460756D01*
X121000Y460598D01*
X123402Y460756D01*
X125763Y461225D01*
X128042Y461999D01*
X130201Y463064D01*
X132202Y464401D01*
X134012Y465988D01*
X135599Y467798D01*
X136936Y469799D01*
X138001Y471958D01*
X138775Y474237D01*
X139244Y476598D01*
X139402Y479000D01*
X139244Y481402D01*
X138775Y483763D01*
X138001Y486042D01*
X136936Y488201D01*
X135599Y490202D01*
X134012Y492012D01*
X132202Y493599D01*
X130201Y494936D01*
X128042Y496001D01*
X125763Y496775D01*
X123402Y497244D01*
X121000Y497402D01*
D02*
G37*
G36*
X368992Y482874D02*
X355181D01*
Y465126D01*
X362742D01*
X372363Y455505D01*
X372171Y455043D01*
X305632D01*
X286949Y473727D01*
Y482874D01*
X273138D01*
Y465126D01*
X281285D01*
X290906Y455505D01*
X290715Y455043D01*
X225632D01*
X207492Y473183D01*
Y480874D01*
X193681D01*
Y476327D01*
X193672Y476305D01*
X193500Y475000D01*
X193672Y473695D01*
X193681Y473673D01*
Y463126D01*
X203285D01*
X219977Y446434D01*
X221022Y445633D01*
X222238Y445129D01*
X223543Y444957D01*
X385000D01*
X385000Y444957D01*
X386043Y445094D01*
X387087Y444957D01*
X488679D01*
X522202Y411434D01*
X523246Y410633D01*
X524462Y410129D01*
X525768Y409957D01*
X527073Y410129D01*
X528289Y410633D01*
X529334Y411434D01*
X530135Y412478D01*
X530639Y413695D01*
X530811Y415000D01*
X530639Y416305D01*
X530135Y417522D01*
X529334Y418566D01*
X494334Y453566D01*
X493289Y454367D01*
X492073Y454871D01*
X490768Y455043D01*
X467089D01*
X451949Y470183D01*
Y482374D01*
X438138D01*
Y464626D01*
X443242D01*
X452363Y455505D01*
X452172Y455043D01*
X387089D01*
X368992Y473140D01*
Y482874D01*
D02*
G37*
G36*
X168894Y450692D02*
X168079Y450612D01*
X166814Y450228D01*
X165649Y449605D01*
X164627Y448767D01*
X163789Y447745D01*
X163166Y446580D01*
X162782Y445315D01*
X162702Y444500D01*
X168894D01*
Y450692D01*
D02*
G37*
G36*
X169894D02*
Y444500D01*
X176086D01*
X176005Y445315D01*
X175622Y446580D01*
X174999Y447745D01*
X174161Y448767D01*
X173139Y449605D01*
X171974Y450228D01*
X170709Y450612D01*
X169894Y450692D01*
D02*
G37*
G36*
X374500Y414500D02*
X372228D01*
Y413114D01*
X374500D01*
Y414500D01*
D02*
G37*
G36*
Y416886D02*
X372228D01*
Y415500D01*
X374500D01*
Y416886D01*
D02*
G37*
G36*
X388464Y414500D02*
X385500D01*
Y411536D01*
X385914Y411590D01*
X386765Y411943D01*
X387496Y412504D01*
X388057Y413235D01*
X388410Y414086D01*
X388464Y414500D01*
D02*
G37*
G36*
X467000Y418530D02*
X466086Y418410D01*
X465235Y418057D01*
X464504Y417496D01*
X463943Y416765D01*
X463590Y415914D01*
X463470Y415000D01*
X463590Y414086D01*
X463943Y413235D01*
X464504Y412504D01*
X465235Y411943D01*
X466086Y411590D01*
X467000Y411470D01*
X467914Y411590D01*
X468765Y411943D01*
X469496Y412504D01*
X470057Y413235D01*
X470410Y414086D01*
X470530Y415000D01*
X470410Y415914D01*
X470057Y416765D01*
X469496Y417496D01*
X468765Y418057D01*
X467914Y418410D01*
X467000Y418530D01*
D02*
G37*
G36*
X438500Y418500D02*
X431500D01*
Y411500D01*
X438500D01*
Y418500D01*
D02*
G37*
G36*
X293000Y425049D02*
X292024Y424855D01*
X291198Y424302D01*
X290645Y423476D01*
X290451Y422500D01*
X290515Y422178D01*
X287866Y419529D01*
X261155D01*
X261057Y419765D01*
X260496Y420496D01*
X259765Y421057D01*
X258914Y421410D01*
X258000Y421530D01*
X257086Y421410D01*
X256235Y421057D01*
X255504Y420496D01*
X254943Y419765D01*
X254590Y418914D01*
X254470Y418000D01*
X254590Y417086D01*
X254943Y416235D01*
X255504Y415504D01*
X256235Y414943D01*
X257086Y414590D01*
X258000Y414470D01*
X258914Y414590D01*
X259765Y414943D01*
X260496Y415504D01*
X261057Y416235D01*
X261155Y416471D01*
X288500D01*
X289085Y416587D01*
X289581Y416919D01*
X292678Y420015D01*
X293000Y419951D01*
X293975Y420145D01*
X294802Y420698D01*
X295355Y421524D01*
X295549Y422500D01*
X295355Y423476D01*
X294802Y424302D01*
X293975Y424855D01*
X293000Y425049D01*
D02*
G37*
G36*
X595929Y443324D02*
X594305Y443164D01*
X592744Y442690D01*
X591305Y441921D01*
X590043Y440886D01*
X589008Y439624D01*
X588239Y438185D01*
X587766Y436624D01*
X587606Y435000D01*
X587766Y433376D01*
X588239Y431815D01*
X589008Y430376D01*
X590043Y429114D01*
X591305Y428079D01*
X592744Y427310D01*
X594305Y426836D01*
X595929Y426677D01*
X597553Y426836D01*
X599114Y427310D01*
X600553Y428079D01*
X601815Y429114D01*
X602850Y430376D01*
X603619Y431815D01*
X604093Y433376D01*
X604253Y435000D01*
X604093Y436624D01*
X603619Y438185D01*
X602850Y439624D01*
X601815Y440886D01*
X600553Y441921D01*
X599114Y442690D01*
X597553Y443164D01*
X595929Y443324D01*
D02*
G37*
G36*
X484500Y425539D02*
X354000D01*
X353220Y425384D01*
X352558Y424942D01*
X343558Y415942D01*
X343116Y415280D01*
X342961Y414500D01*
Y402847D01*
X342504Y402496D01*
X341943Y401765D01*
X341590Y400914D01*
X341470Y400000D01*
X341590Y399086D01*
X341943Y398235D01*
X342504Y397504D01*
X343235Y396943D01*
X344086Y396590D01*
X345000Y396470D01*
X345914Y396590D01*
X346765Y396943D01*
X347496Y397504D01*
X347847Y397961D01*
X353740D01*
X354511Y398114D01*
X356512D01*
Y401886D01*
X354511D01*
X353740Y402039D01*
X347847D01*
X347496Y402496D01*
X347039Y402847D01*
Y413655D01*
X350609Y417225D01*
X350969Y416878D01*
X350969Y416389D01*
Y413114D01*
X356512D01*
Y416886D01*
X351468D01*
X350977Y416886D01*
X350629Y417245D01*
X354845Y421461D01*
X483655D01*
X485515Y419601D01*
X485414Y419331D01*
X485260Y419149D01*
X484232Y419285D01*
X483123Y419139D01*
X482090Y418711D01*
X481203Y418030D01*
X480522Y417142D01*
X480094Y416109D01*
X479948Y415000D01*
X480094Y413891D01*
X480522Y412858D01*
X481203Y411970D01*
X481683Y411601D01*
Y410288D01*
X478944Y407549D01*
X469427D01*
X468765Y408057D01*
X467914Y408410D01*
X467000Y408530D01*
X466086Y408410D01*
X465235Y408057D01*
X464504Y407496D01*
X463943Y406765D01*
X463590Y405914D01*
X463470Y405000D01*
X463590Y404086D01*
X463943Y403235D01*
X464504Y402504D01*
X465235Y401943D01*
X466086Y401590D01*
X467000Y401470D01*
X467914Y401590D01*
X468765Y401943D01*
X469427Y402451D01*
X480000D01*
X480975Y402645D01*
X481802Y403198D01*
X486035Y407430D01*
X486587Y408257D01*
X486781Y409232D01*
Y411601D01*
X487262Y411970D01*
X487943Y412858D01*
X488371Y413891D01*
X488517Y415000D01*
X488382Y416027D01*
X488563Y416181D01*
X488833Y416283D01*
X494831Y410285D01*
Y389111D01*
X494082Y388801D01*
X492928Y387915D01*
X492042Y386760D01*
X491485Y385415D01*
X491295Y383972D01*
Y383028D01*
X491485Y381585D01*
X492042Y380240D01*
X492928Y379085D01*
X494082Y378199D01*
X495427Y377642D01*
X496870Y377452D01*
X498313Y377642D01*
X499658Y378199D01*
X500812Y379085D01*
X501698Y380240D01*
X501935Y380811D01*
X502435D01*
X502672Y380240D01*
X503558Y379085D01*
X504712Y378199D01*
X506057Y377642D01*
X507000Y377518D01*
Y383500D01*
Y389482D01*
X506057Y389358D01*
X504712Y388801D01*
X503558Y387915D01*
X502672Y386760D01*
X502435Y386189D01*
X501935D01*
X501698Y386760D01*
X500812Y387915D01*
X499658Y388801D01*
X498909Y389111D01*
Y411130D01*
X498754Y411910D01*
X498312Y412572D01*
X498312Y412572D01*
X485942Y424942D01*
X485280Y425384D01*
X484500Y425539D01*
D02*
G37*
G36*
X385500Y418464D02*
Y415500D01*
X388464D01*
X388410Y415914D01*
X388057Y416765D01*
X387496Y417496D01*
X386765Y418057D01*
X385914Y418410D01*
X385500Y418464D01*
D02*
G37*
G36*
X384500D02*
X384086Y418410D01*
X383235Y418057D01*
X382504Y417496D01*
X381943Y416765D01*
X381845Y416529D01*
X377772D01*
Y416886D01*
X375500D01*
Y415000D01*
Y413114D01*
X377772D01*
Y413471D01*
X381845D01*
X381943Y413235D01*
X382504Y412504D01*
X383235Y411943D01*
X384086Y411590D01*
X384500Y411536D01*
Y415000D01*
Y418464D01*
D02*
G37*
G36*
X244000Y480858D02*
Y472500D01*
X250439D01*
Y473969D01*
X250306Y475322D01*
X249911Y476624D01*
X249270Y477824D01*
X248407Y478875D01*
X247355Y479738D01*
X246155Y480379D01*
X244854Y480774D01*
X244000Y480858D01*
D02*
G37*
G36*
X487457Y482358D02*
X486603Y482274D01*
X485301Y481879D01*
X484102Y481238D01*
X483050Y480375D01*
X482187Y479324D01*
X481546Y478124D01*
X481151Y476822D01*
X481018Y475468D01*
Y474000D01*
X487457D01*
Y482358D01*
D02*
G37*
G36*
X243000Y480858D02*
X242146Y480774D01*
X240845Y480379D01*
X239645Y479738D01*
X238593Y478875D01*
X237731Y477824D01*
X237089Y476624D01*
X236694Y475322D01*
X236561Y473969D01*
Y472500D01*
X243000D01*
Y480858D01*
D02*
G37*
G36*
X404500Y473500D02*
X398061D01*
Y472031D01*
X398194Y470678D01*
X398589Y469376D01*
X399231Y468176D01*
X400093Y467125D01*
X401145Y466262D01*
X402345Y465621D01*
X403646Y465226D01*
X404500Y465142D01*
Y473500D01*
D02*
G37*
G36*
X411939D02*
X405500D01*
Y465142D01*
X406354Y465226D01*
X407655Y465621D01*
X408855Y466262D01*
X409907Y467125D01*
X410770Y468176D01*
X411411Y469376D01*
X411806Y470678D01*
X411939Y472031D01*
Y473500D01*
D02*
G37*
G36*
X404500Y482858D02*
X403646Y482774D01*
X402345Y482379D01*
X401145Y481738D01*
X400093Y480875D01*
X399231Y479824D01*
X398589Y478624D01*
X398194Y477322D01*
X398061Y475969D01*
Y474500D01*
X404500D01*
Y482858D01*
D02*
G37*
G36*
X405500D02*
Y474500D01*
X411939D01*
Y475969D01*
X411806Y477322D01*
X411411Y478624D01*
X410770Y479824D01*
X409907Y480875D01*
X408855Y481738D01*
X407655Y482379D01*
X406354Y482774D01*
X405500Y482858D01*
D02*
G37*
G36*
X323457D02*
Y474500D01*
X329896D01*
Y475969D01*
X329762Y477322D01*
X329367Y478624D01*
X328726Y479824D01*
X327863Y480875D01*
X326812Y481738D01*
X325612Y482379D01*
X324310Y482774D01*
X323457Y482858D01*
D02*
G37*
G36*
X488457Y482358D02*
Y474000D01*
X494896D01*
Y475468D01*
X494762Y476822D01*
X494367Y478124D01*
X493726Y479324D01*
X492863Y480375D01*
X491812Y481238D01*
X490612Y481879D01*
X489310Y482274D01*
X488457Y482358D01*
D02*
G37*
G36*
X322457Y482858D02*
X321603Y482774D01*
X320301Y482379D01*
X319102Y481738D01*
X318050Y480875D01*
X317187Y479824D01*
X316546Y478624D01*
X316151Y477322D01*
X316018Y475969D01*
Y474500D01*
X322457D01*
Y482858D01*
D02*
G37*
G36*
X466500Y482407D02*
X465146Y482274D01*
X463845Y481879D01*
X462645Y481238D01*
X461593Y480375D01*
X460731Y479324D01*
X460089Y478124D01*
X459694Y476822D01*
X459561Y475468D01*
Y471531D01*
X459694Y470178D01*
X460089Y468876D01*
X460731Y467676D01*
X461593Y466625D01*
X462645Y465762D01*
X463845Y465121D01*
X465146Y464726D01*
X466500Y464593D01*
X467854Y464726D01*
X469155Y465121D01*
X470355Y465762D01*
X471407Y466625D01*
X472269Y467676D01*
X472911Y468876D01*
X473306Y470178D01*
X473439Y471531D01*
Y475468D01*
X473306Y476822D01*
X472911Y478124D01*
X472269Y479324D01*
X471407Y480375D01*
X470355Y481238D01*
X469155Y481879D01*
X467854Y482274D01*
X466500Y482407D01*
D02*
G37*
G36*
X487457Y473000D02*
X481018D01*
Y471531D01*
X481151Y470178D01*
X481546Y468876D01*
X482187Y467676D01*
X483050Y466625D01*
X484102Y465762D01*
X485301Y465121D01*
X486603Y464726D01*
X487457Y464642D01*
Y473000D01*
D02*
G37*
G36*
X250439Y471500D02*
X244000D01*
Y463142D01*
X244854Y463226D01*
X246155Y463621D01*
X247355Y464262D01*
X248407Y465125D01*
X249270Y466176D01*
X249911Y467376D01*
X250306Y468678D01*
X250439Y470031D01*
Y471500D01*
D02*
G37*
G36*
X222043Y480907D02*
X220690Y480774D01*
X219388Y480379D01*
X218188Y479738D01*
X217137Y478875D01*
X216274Y477824D01*
X215633Y476624D01*
X215238Y475322D01*
X215104Y473969D01*
Y470031D01*
X215238Y468678D01*
X215633Y467376D01*
X216274Y466176D01*
X217137Y465125D01*
X218188Y464262D01*
X219388Y463621D01*
X220690Y463226D01*
X222043Y463093D01*
X223397Y463226D01*
X224699Y463621D01*
X225898Y464262D01*
X226950Y465125D01*
X227813Y466176D01*
X228454Y467376D01*
X228849Y468678D01*
X228982Y470031D01*
Y473969D01*
X228849Y475322D01*
X228454Y476624D01*
X227813Y477824D01*
X226950Y478875D01*
X225898Y479738D01*
X224699Y480379D01*
X223397Y480774D01*
X222043Y480907D01*
D02*
G37*
G36*
X243000Y471500D02*
X236561D01*
Y470031D01*
X236694Y468678D01*
X237089Y467376D01*
X237731Y466176D01*
X238593Y465125D01*
X239645Y464262D01*
X240845Y463621D01*
X242146Y463226D01*
X243000Y463142D01*
Y471500D01*
D02*
G37*
G36*
X322457Y473500D02*
X316018D01*
Y472031D01*
X316151Y470678D01*
X316546Y469376D01*
X317187Y468176D01*
X318050Y467125D01*
X319102Y466262D01*
X320301Y465621D01*
X321603Y465226D01*
X322457Y465142D01*
Y473500D01*
D02*
G37*
G36*
X329896D02*
X323457D01*
Y465142D01*
X324310Y465226D01*
X325612Y465621D01*
X326812Y466262D01*
X327863Y467125D01*
X328726Y468176D01*
X329367Y469376D01*
X329762Y470678D01*
X329896Y472031D01*
Y473500D01*
D02*
G37*
G36*
X383543Y482907D02*
X382190Y482774D01*
X380888Y482379D01*
X379688Y481738D01*
X378637Y480875D01*
X377774Y479824D01*
X377133Y478624D01*
X376738Y477322D01*
X376604Y475969D01*
Y472031D01*
X376738Y470678D01*
X377133Y469376D01*
X377774Y468176D01*
X378637Y467125D01*
X379688Y466262D01*
X380888Y465621D01*
X382190Y465226D01*
X383543Y465093D01*
X384897Y465226D01*
X386199Y465621D01*
X387398Y466262D01*
X388450Y467125D01*
X389313Y468176D01*
X389954Y469376D01*
X390349Y470678D01*
X390482Y472031D01*
Y475969D01*
X390349Y477322D01*
X389954Y478624D01*
X389313Y479824D01*
X388450Y480875D01*
X387398Y481738D01*
X386199Y482379D01*
X384897Y482774D01*
X383543Y482907D01*
D02*
G37*
G36*
X494896Y473000D02*
X488457D01*
Y464642D01*
X489310Y464726D01*
X490612Y465121D01*
X491812Y465762D01*
X492863Y466625D01*
X493726Y467676D01*
X494367Y468876D01*
X494762Y470178D01*
X494896Y471531D01*
Y473000D01*
D02*
G37*
G36*
X301500Y482907D02*
X300146Y482774D01*
X298845Y482379D01*
X297645Y481738D01*
X296593Y480875D01*
X295730Y479824D01*
X295089Y478624D01*
X294694Y477322D01*
X294561Y475969D01*
Y472031D01*
X294694Y470678D01*
X295089Y469376D01*
X295730Y468176D01*
X296593Y467125D01*
X297645Y466262D01*
X298845Y465621D01*
X300146Y465226D01*
X301500Y465093D01*
X302854Y465226D01*
X304155Y465621D01*
X305355Y466262D01*
X306407Y467125D01*
X307270Y468176D01*
X307911Y469376D01*
X308306Y470678D01*
X308439Y472031D01*
Y475969D01*
X308306Y477322D01*
X307911Y478624D01*
X307270Y479824D01*
X306407Y480875D01*
X305355Y481738D01*
X304155Y482379D01*
X302854Y482774D01*
X301500Y482907D01*
D02*
G37*
G36*
X154500Y416417D02*
X152760Y416246D01*
X151088Y415738D01*
X149546Y414914D01*
X148195Y413805D01*
X147086Y412454D01*
X146262Y410912D01*
X145903Y409729D01*
X145380D01*
X145022Y410912D01*
X144198Y412454D01*
X143089Y413805D01*
X141737Y414914D01*
X140196Y415738D01*
X138523Y416246D01*
X136784Y416417D01*
X135044Y416246D01*
X133371Y415738D01*
X131830Y414914D01*
X130478Y413805D01*
X129369Y412454D01*
X128545Y410912D01*
X128038Y409240D01*
X127866Y407500D01*
X128038Y405760D01*
X128545Y404088D01*
X129369Y402546D01*
X130478Y401195D01*
X131830Y400086D01*
X133371Y399262D01*
X135044Y398754D01*
X136784Y398583D01*
X138523Y398754D01*
X140196Y399262D01*
X141737Y400086D01*
X143089Y401195D01*
X144198Y402546D01*
X145022Y404088D01*
X145380Y405271D01*
X145903D01*
X146262Y404088D01*
X147086Y402546D01*
X148195Y401195D01*
X149546Y400086D01*
X151088Y399262D01*
X152760Y398754D01*
X154500Y398583D01*
X156240Y398754D01*
X157912Y399262D01*
X159454Y400086D01*
X160805Y401195D01*
X161914Y402546D01*
X162738Y404088D01*
X163246Y405760D01*
X163417Y407500D01*
X163246Y409240D01*
X162738Y410912D01*
X161914Y412454D01*
X160805Y413805D01*
X159454Y414914D01*
X157912Y415738D01*
X156240Y416246D01*
X154500Y416417D01*
D02*
G37*
G36*
X573898Y441709D02*
X560480D01*
Y428291D01*
X562457D01*
Y401709D01*
X560980D01*
Y391883D01*
X546261Y377164D01*
X545975Y377355D01*
X545000Y377549D01*
X544025Y377355D01*
X543198Y376802D01*
X542645Y375975D01*
X542451Y375000D01*
X542645Y374025D01*
X543198Y373198D01*
X544025Y372645D01*
X545000Y372451D01*
X545975Y372645D01*
X546802Y373198D01*
X547238Y373850D01*
X547341Y373919D01*
X561714Y388291D01*
X574398D01*
Y401709D01*
X572543D01*
Y428291D01*
X573898D01*
Y441709D01*
D02*
G37*
G36*
X435000Y388530D02*
X434086Y388410D01*
X433235Y388057D01*
X432504Y387496D01*
X431943Y386765D01*
X431590Y385914D01*
X431470Y385000D01*
X431590Y384086D01*
X431943Y383235D01*
X432504Y382504D01*
X433235Y381943D01*
X434086Y381590D01*
X435000Y381470D01*
X435914Y381590D01*
X436765Y381943D01*
X437496Y382504D01*
X438057Y383235D01*
X438410Y384086D01*
X438530Y385000D01*
X438410Y385914D01*
X438057Y386765D01*
X437496Y387496D01*
X436765Y388057D01*
X435914Y388410D01*
X435000Y388530D01*
D02*
G37*
G36*
X378464Y384500D02*
X371536D01*
X371590Y384086D01*
X371943Y383235D01*
X372504Y382504D01*
X373235Y381943D01*
X373471Y381845D01*
Y376886D01*
X372228D01*
Y375500D01*
X375000D01*
X377772D01*
Y376886D01*
X376529D01*
Y381845D01*
X376765Y381943D01*
X377496Y382504D01*
X378057Y383235D01*
X378410Y384086D01*
X378464Y384500D01*
D02*
G37*
G36*
X290500Y378464D02*
Y375500D01*
X293464D01*
X293410Y375914D01*
X293057Y376765D01*
X292496Y377496D01*
X291765Y378057D01*
X290914Y378410D01*
X290500Y378464D01*
D02*
G37*
G36*
X466500Y384500D02*
X463536D01*
X463590Y384086D01*
X463943Y383235D01*
X464504Y382504D01*
X465235Y381943D01*
X466086Y381590D01*
X466500Y381536D01*
Y384500D01*
D02*
G37*
G36*
Y388464D02*
X466086Y388410D01*
X465235Y388057D01*
X464504Y387496D01*
X463943Y386765D01*
X463590Y385914D01*
X463536Y385500D01*
X466500D01*
Y388464D01*
D02*
G37*
G36*
X467500D02*
Y385500D01*
X470464D01*
X470410Y385914D01*
X470057Y386765D01*
X469496Y387496D01*
X468765Y388057D01*
X467914Y388410D01*
X467500Y388464D01*
D02*
G37*
G36*
X470464Y384500D02*
X467500D01*
Y381536D01*
X467914Y381590D01*
X468765Y381943D01*
X469496Y382504D01*
X470057Y383235D01*
X470410Y384086D01*
X470464Y384500D01*
D02*
G37*
G36*
X374500Y388464D02*
X374086Y388410D01*
X373235Y388057D01*
X372504Y387496D01*
X371943Y386765D01*
X371590Y385914D01*
X371536Y385500D01*
X374500D01*
Y388464D01*
D02*
G37*
G36*
X289500Y378464D02*
X289086Y378410D01*
X288235Y378057D01*
X287504Y377496D01*
X286943Y376765D01*
X286590Y375914D01*
X286536Y375500D01*
X289500D01*
Y378464D01*
D02*
G37*
G36*
X216000Y373517D02*
X214891Y373371D01*
X213858Y372943D01*
X212970Y372262D01*
X212289Y371375D01*
X211861Y370341D01*
X211715Y369232D01*
X211861Y368123D01*
X212115Y367510D01*
X202733Y358129D01*
X188634Y344029D01*
X163012D01*
Y349012D01*
X149988D01*
Y335988D01*
X163012D01*
Y340971D01*
X189268D01*
X189853Y341087D01*
X190349Y341419D01*
X201824Y352893D01*
X202286Y352702D01*
Y341145D01*
X201821Y340953D01*
X200996Y340319D01*
X200362Y339493D01*
X199964Y338532D01*
X199828Y337500D01*
X199964Y336468D01*
X200362Y335507D01*
X200996Y334681D01*
X201821Y334047D01*
X202783Y333649D01*
X203815Y333513D01*
X204847Y333649D01*
X205808Y334047D01*
X206634Y334681D01*
X207268Y335507D01*
X207666Y336468D01*
X207802Y337500D01*
X207666Y338532D01*
X207268Y339493D01*
X206634Y340319D01*
X205808Y340953D01*
X205344Y341145D01*
Y356414D01*
X214278Y365348D01*
X214891Y365094D01*
X216000Y364948D01*
X217109Y365094D01*
X218142Y365522D01*
X219030Y366203D01*
X219711Y367090D01*
X220139Y368123D01*
X220285Y369232D01*
X220139Y370341D01*
X219711Y371375D01*
X219030Y372262D01*
X218142Y372943D01*
X217109Y373371D01*
X216000Y373517D01*
D02*
G37*
G36*
X293464Y374500D02*
X290000D01*
X286536D01*
X286590Y374086D01*
X286943Y373235D01*
X287504Y372504D01*
X288235Y371943D01*
X288471Y371845D01*
Y368155D01*
X288235Y368057D01*
X287504Y367496D01*
X286943Y366765D01*
X286590Y365914D01*
X286536Y365500D01*
X293464D01*
X293410Y365914D01*
X293057Y366765D01*
X292496Y367496D01*
X291765Y368057D01*
X291529Y368155D01*
Y371845D01*
X291765Y371943D01*
X292496Y372504D01*
X293057Y373235D01*
X293410Y374086D01*
X293464Y374500D01*
D02*
G37*
G36*
Y364500D02*
X290500D01*
Y361536D01*
X290914Y361590D01*
X291765Y361943D01*
X292496Y362504D01*
X293057Y363235D01*
X293410Y364086D01*
X293464Y364500D01*
D02*
G37*
G36*
X356512Y366886D02*
X350969D01*
Y363114D01*
X356512D01*
Y366886D01*
D02*
G37*
G36*
Y371886D02*
X350969D01*
Y368114D01*
X356512D01*
Y371886D01*
D02*
G37*
G36*
X374500Y374500D02*
X372228D01*
Y373114D01*
X374500D01*
Y374500D01*
D02*
G37*
G36*
X377772D02*
X375500D01*
Y373114D01*
X377772D01*
Y374500D01*
D02*
G37*
G36*
X258000Y378530D02*
X257086Y378410D01*
X256235Y378057D01*
X255504Y377496D01*
X254943Y376765D01*
X254590Y375914D01*
X254470Y375000D01*
X254590Y374086D01*
X254943Y373235D01*
X255504Y372504D01*
X256235Y371943D01*
X257086Y371590D01*
X258000Y371470D01*
X258914Y371590D01*
X259765Y371943D01*
X260496Y372504D01*
X261057Y373235D01*
X261410Y374086D01*
X261530Y375000D01*
X261410Y375914D01*
X261057Y376765D01*
X260496Y377496D01*
X259765Y378057D01*
X258914Y378410D01*
X258000Y378530D01*
D02*
G37*
G36*
X356512Y376886D02*
X350969D01*
Y373114D01*
X356512D01*
Y376886D01*
D02*
G37*
G36*
X116705Y416417D02*
X114965Y416246D01*
X113292Y415738D01*
X111751Y414914D01*
X110399Y413805D01*
X109291Y412454D01*
X108466Y410912D01*
X107959Y409240D01*
X107788Y407500D01*
X107959Y405760D01*
X108466Y404088D01*
X109291Y402546D01*
X110399Y401195D01*
X111751Y400086D01*
X113292Y399262D01*
X114965Y398754D01*
X116705Y398583D01*
X118444Y398754D01*
X120117Y399262D01*
X121659Y400086D01*
X123010Y401195D01*
X124119Y402546D01*
X124943Y404088D01*
X125450Y405760D01*
X125622Y407500D01*
X125450Y409240D01*
X124943Y410912D01*
X124119Y412454D01*
X123010Y413805D01*
X121659Y414914D01*
X120117Y415738D01*
X118444Y416246D01*
X116705Y416417D01*
D02*
G37*
G36*
X258000Y408530D02*
X257086Y408410D01*
X256235Y408057D01*
X255504Y407496D01*
X254943Y406765D01*
X254590Y405914D01*
X254470Y405000D01*
X254590Y404086D01*
X254943Y403235D01*
X255504Y402504D01*
X256235Y401943D01*
X257086Y401590D01*
X258000Y401470D01*
X258914Y401590D01*
X259765Y401943D01*
X260496Y402504D01*
X261057Y403235D01*
X261410Y404086D01*
X261530Y405000D01*
X261410Y405914D01*
X261057Y406765D01*
X260496Y407496D01*
X259765Y408057D01*
X258914Y408410D01*
X258000Y408530D01*
D02*
G37*
G36*
X356512Y411886D02*
X350969D01*
Y408114D01*
X356512D01*
Y411886D01*
D02*
G37*
G36*
X174579Y416417D02*
X172839Y416246D01*
X171166Y415738D01*
X169625Y414914D01*
X168273Y413805D01*
X167165Y412454D01*
X166341Y410912D01*
X165833Y409240D01*
X165662Y407500D01*
X165833Y405760D01*
X166341Y404088D01*
X167165Y402546D01*
X168273Y401195D01*
X169625Y400086D01*
X171166Y399262D01*
X172839Y398754D01*
X174579Y398583D01*
X176318Y398754D01*
X177991Y399262D01*
X179533Y400086D01*
X180884Y401195D01*
X181993Y402546D01*
X182817Y404088D01*
X183324Y405760D01*
X183345Y405971D01*
X192500D01*
X193085Y406087D01*
X193581Y406419D01*
X195581Y408419D01*
X195913Y408915D01*
X195918Y408941D01*
X196302Y409198D01*
X196855Y410024D01*
X197049Y411000D01*
X196855Y411975D01*
X196302Y412802D01*
X195475Y413355D01*
X194500Y413549D01*
X193525Y413355D01*
X192698Y412802D01*
X192145Y411975D01*
X191951Y411000D01*
X192145Y410024D01*
X192432Y409595D01*
X191867Y409029D01*
X183345D01*
X183324Y409240D01*
X182817Y410912D01*
X181993Y412454D01*
X180884Y413805D01*
X179533Y414914D01*
X177991Y415738D01*
X176318Y416246D01*
X174579Y416417D01*
D02*
G37*
G36*
X335500Y415052D02*
X334391Y414906D01*
X333358Y414478D01*
X332470Y413798D01*
X331789Y412910D01*
X331361Y411877D01*
X331215Y410768D01*
X331361Y409659D01*
X331789Y408625D01*
X332470Y407738D01*
X333358Y407057D01*
X334391Y406629D01*
X335500Y406483D01*
X336609Y406629D01*
X337642Y407057D01*
X338530Y407738D01*
X339211Y408625D01*
X339639Y409659D01*
X339785Y410768D01*
X339639Y411877D01*
X339211Y412910D01*
X338530Y413798D01*
X337642Y414478D01*
X336609Y414906D01*
X335500Y415052D01*
D02*
G37*
G36*
X356512Y406886D02*
X350969D01*
Y403114D01*
X356512D01*
Y406886D01*
D02*
G37*
G36*
X216000Y415052D02*
X214891Y414906D01*
X213858Y414478D01*
X212970Y413797D01*
X212289Y412910D01*
X211861Y411877D01*
X211715Y410768D01*
X211861Y409659D01*
X212115Y409046D01*
X171581Y368512D01*
X165488D01*
Y355488D01*
X178512D01*
Y368512D01*
X176560D01*
X176369Y368974D01*
X214278Y406883D01*
X214891Y406629D01*
X216000Y406483D01*
X217109Y406629D01*
X218142Y407057D01*
X219030Y407738D01*
X219711Y408625D01*
X220139Y409659D01*
X220285Y410768D01*
X220139Y411877D01*
X219711Y412910D01*
X219030Y413797D01*
X218142Y414478D01*
X217109Y414906D01*
X216000Y415052D01*
D02*
G37*
G36*
X377772Y411886D02*
X372228D01*
Y409391D01*
X344686Y381849D01*
X344355Y381353D01*
X344238Y380768D01*
Y363310D01*
X343776Y363119D01*
X339385Y367510D01*
X339639Y368123D01*
X339785Y369232D01*
X339639Y370341D01*
X339211Y371375D01*
X338530Y372262D01*
X337642Y372943D01*
X336609Y373371D01*
X335500Y373517D01*
X334391Y373371D01*
X333358Y372943D01*
X332470Y372262D01*
X331789Y371375D01*
X331361Y370341D01*
X331215Y369232D01*
X331361Y368123D01*
X331789Y367090D01*
X332470Y366203D01*
X333358Y365522D01*
X334391Y365094D01*
X335500Y364948D01*
X336609Y365094D01*
X337222Y365348D01*
X340578Y361991D01*
X340387Y361529D01*
X325634D01*
X319110Y368053D01*
X319139Y368123D01*
X319285Y369232D01*
X319139Y370341D01*
X318711Y371375D01*
X318030Y372262D01*
X317142Y372943D01*
X316109Y373371D01*
X315000Y373517D01*
X313891Y373371D01*
X312858Y372943D01*
X311970Y372262D01*
X311289Y371375D01*
X310861Y370341D01*
X310715Y369232D01*
X310861Y368123D01*
X311289Y367090D01*
X311970Y366203D01*
X312858Y365522D01*
X313891Y365094D01*
X315000Y364948D01*
X316109Y365094D01*
X317142Y365522D01*
X317240Y365597D01*
X323919Y358919D01*
X324415Y358587D01*
X325000Y358471D01*
X344099D01*
X344238Y358331D01*
Y353964D01*
X343625Y353711D01*
X342738Y353030D01*
X342057Y352142D01*
X341629Y351109D01*
X341483Y350000D01*
X341629Y348891D01*
X342057Y347858D01*
X342738Y346970D01*
X343625Y346289D01*
X344659Y345861D01*
X345768Y345715D01*
X346877Y345861D01*
X347910Y346289D01*
X348797Y346970D01*
X349478Y347858D01*
X349906Y348891D01*
X350024Y349780D01*
X350537Y349848D01*
X350683Y349495D01*
X351244Y348764D01*
X351975Y348203D01*
X352826Y347850D01*
X353740Y347730D01*
X354654Y347850D01*
X355505Y348203D01*
X356236Y348764D01*
X356797Y349495D01*
X357150Y350346D01*
X357270Y351260D01*
X357150Y352173D01*
X356797Y353025D01*
X356236Y353756D01*
X355505Y354317D01*
X355270Y354415D01*
Y358114D01*
X356512D01*
Y361886D01*
X350969D01*
Y358114D01*
X352211D01*
Y354415D01*
X351975Y354317D01*
X351244Y353756D01*
X350683Y353025D01*
X350330Y352173D01*
X350252Y351581D01*
X349739Y351513D01*
X349478Y352142D01*
X348797Y353030D01*
X347910Y353711D01*
X347297Y353964D01*
Y358965D01*
X347194Y359482D01*
X347297Y360000D01*
Y380134D01*
X371766Y404603D01*
X372228Y404412D01*
Y403114D01*
X374723D01*
X375489Y402348D01*
X375298Y401886D01*
X372228D01*
Y398114D01*
X374723D01*
X378471Y394367D01*
Y393155D01*
X378235Y393057D01*
X377504Y392496D01*
X376943Y391765D01*
X376590Y390914D01*
X376470Y390000D01*
X376590Y389086D01*
X376798Y388585D01*
X376415Y388202D01*
X375914Y388410D01*
X375500Y388464D01*
Y385500D01*
X378464D01*
X378410Y385914D01*
X378202Y386415D01*
X378585Y386798D01*
X379086Y386590D01*
X380000Y386470D01*
X380914Y386590D01*
X381765Y386943D01*
X382496Y387504D01*
X383057Y388235D01*
X383155Y388471D01*
X384366D01*
X388471Y384366D01*
Y382007D01*
X387971Y381878D01*
X387496Y382496D01*
X386765Y383057D01*
X385914Y383410D01*
X385000Y383530D01*
X384086Y383410D01*
X383235Y383057D01*
X382504Y382496D01*
X381943Y381765D01*
X381590Y380914D01*
X381470Y380000D01*
X381590Y379086D01*
X381943Y378235D01*
X382504Y377504D01*
X383235Y376943D01*
X383471Y376845D01*
Y375634D01*
X379366Y371529D01*
X377772D01*
Y371886D01*
X372228D01*
Y368114D01*
X377772D01*
Y368471D01*
X380000D01*
X380585Y368587D01*
X381081Y368919D01*
X386081Y373919D01*
X386413Y374415D01*
X386529Y375000D01*
Y376845D01*
X386765Y376943D01*
X387496Y377504D01*
X387971Y378122D01*
X388471Y377993D01*
Y374409D01*
X383919Y369857D01*
X383587Y369361D01*
X383471Y368775D01*
Y358268D01*
X383587Y357682D01*
X383919Y357186D01*
X390615Y350490D01*
X390361Y349877D01*
X390215Y348768D01*
X390361Y347659D01*
X390467Y347403D01*
X390043Y347119D01*
X381529Y355633D01*
Y360000D01*
X381413Y360585D01*
X381081Y361081D01*
X377772Y364391D01*
Y366886D01*
X372228D01*
Y363114D01*
X374723D01*
X375489Y362348D01*
X375298Y361886D01*
X372228D01*
Y358114D01*
X373471D01*
Y353155D01*
X373235Y353057D01*
X372504Y352496D01*
X371943Y351765D01*
X371590Y350914D01*
X371470Y350000D01*
X371590Y349086D01*
X371943Y348235D01*
X372504Y347504D01*
X373235Y346943D01*
X374086Y346590D01*
X375000Y346470D01*
X375914Y346590D01*
X376765Y346943D01*
X377496Y347504D01*
X378057Y348235D01*
X378410Y349086D01*
X378530Y350000D01*
X378410Y350914D01*
X378057Y351765D01*
X377496Y352496D01*
X376765Y353057D01*
X376529Y353155D01*
Y358114D01*
X377772D01*
Y359093D01*
X378272Y359340D01*
X378471Y359187D01*
Y355000D01*
X378587Y354415D01*
X378919Y353919D01*
X393919Y338919D01*
X394415Y338587D01*
X395000Y338471D01*
X398471D01*
Y325000D01*
X398587Y324415D01*
X398919Y323919D01*
X402419Y320419D01*
X402915Y320087D01*
X403500Y319971D01*
X408523D01*
X433471Y295023D01*
Y271696D01*
X416804Y255029D01*
X413095D01*
Y257157D01*
X405780D01*
Y249843D01*
X413095D01*
Y251971D01*
X448840D01*
X448876Y251943D01*
X449727Y251590D01*
X450641Y251470D01*
X451555Y251590D01*
X452406Y251943D01*
X453137Y252504D01*
X453698Y253235D01*
X454051Y254086D01*
X454171Y255000D01*
X454051Y255914D01*
X453698Y256765D01*
X453137Y257496D01*
X452406Y258057D01*
X451555Y258410D01*
X450641Y258530D01*
X449727Y258410D01*
X448876Y258057D01*
X448145Y257496D01*
X447584Y256765D01*
X447231Y255914D01*
X447115Y255029D01*
X421783D01*
X421591Y255491D01*
X436081Y269982D01*
X436413Y270478D01*
X436529Y271063D01*
Y295601D01*
X436661Y295706D01*
X437004Y295833D01*
X468919Y263919D01*
X469415Y263587D01*
X470000Y263471D01*
X476845D01*
X476943Y263235D01*
X477504Y262504D01*
X478235Y261943D01*
X479086Y261590D01*
X480000Y261470D01*
X480914Y261590D01*
X481765Y261943D01*
X482496Y262504D01*
X483057Y263235D01*
X483410Y264086D01*
X483530Y265000D01*
X483410Y265914D01*
X483057Y266765D01*
X482496Y267496D01*
X481765Y268057D01*
X480914Y268410D01*
X480000Y268530D01*
X479086Y268410D01*
X478235Y268057D01*
X477504Y267496D01*
X476943Y266765D01*
X476845Y266529D01*
X470634D01*
X408312Y328851D01*
X408410Y329086D01*
X408530Y330000D01*
X408410Y330914D01*
X408057Y331765D01*
X407496Y332496D01*
X406765Y333057D01*
X405914Y333410D01*
X405000Y333530D01*
X404086Y333410D01*
X403235Y333057D01*
X402504Y332496D01*
X402029Y331878D01*
X401529Y332007D01*
Y340000D01*
Y350000D01*
X401413Y350585D01*
X401081Y351081D01*
X391281Y360881D01*
Y365217D01*
X391781Y365464D01*
X392358Y365022D01*
X393391Y364594D01*
X394500Y364448D01*
X395609Y364594D01*
X396642Y365022D01*
X397530Y365703D01*
X398211Y366590D01*
X398639Y367623D01*
X398785Y368732D01*
X398690Y369451D01*
X399109Y369951D01*
X399309D01*
X399894Y370067D01*
X400390Y370399D01*
X432496Y402504D01*
X432504Y402504D01*
X433235Y401943D01*
X434086Y401590D01*
X435000Y401470D01*
X435914Y401590D01*
X436765Y401943D01*
X437496Y402504D01*
X438057Y403235D01*
X438410Y404086D01*
X438530Y405000D01*
X438410Y405914D01*
X438057Y406765D01*
X437496Y407496D01*
X436765Y408057D01*
X435914Y408410D01*
X435000Y408530D01*
X434086Y408410D01*
X433235Y408057D01*
X432504Y407496D01*
X431943Y406765D01*
X431598Y405932D01*
X401991Y376326D01*
X401529Y376517D01*
Y380000D01*
X401413Y380585D01*
X401081Y381081D01*
X377772Y404391D01*
Y406886D01*
X374702D01*
X374511Y407348D01*
X375277Y408114D01*
X377772D01*
Y411886D01*
D02*
G37*
G36*
X293500Y408500D02*
X286500D01*
Y401500D01*
X293500D01*
Y408500D01*
D02*
G37*
G36*
X315000Y415052D02*
X313891Y414906D01*
X312858Y414478D01*
X311970Y413798D01*
X311289Y412910D01*
X310861Y411877D01*
X310715Y410768D01*
X310861Y409659D01*
X311289Y408625D01*
X311970Y407738D01*
X312858Y407057D01*
X313891Y406629D01*
X315000Y406483D01*
X316109Y406629D01*
X316722Y406883D01*
X321913Y401692D01*
X321590Y400914D01*
X321470Y400000D01*
X321590Y399086D01*
X321943Y398235D01*
X322504Y397504D01*
X323235Y396943D01*
X324086Y396590D01*
X325000Y396470D01*
X325914Y396590D01*
X326765Y396943D01*
X327496Y397504D01*
X328057Y398235D01*
X328410Y399086D01*
X328530Y400000D01*
X328410Y400914D01*
X328057Y401765D01*
X327496Y402496D01*
X326765Y403057D01*
X325914Y403410D01*
X325000Y403530D01*
X324470Y403460D01*
X318885Y409046D01*
X319139Y409659D01*
X319285Y410768D01*
X319139Y411877D01*
X318711Y412910D01*
X318030Y413798D01*
X317142Y414478D01*
X316109Y414906D01*
X315000Y415052D01*
D02*
G37*
G36*
X552727Y394500D02*
X546535D01*
Y388308D01*
X547351Y388388D01*
X548615Y388772D01*
X549781Y389395D01*
X550802Y390233D01*
X551640Y391255D01*
X552263Y392420D01*
X552647Y393685D01*
X552727Y394500D01*
D02*
G37*
G36*
X545535D02*
X539344D01*
X539424Y393685D01*
X539807Y392420D01*
X540430Y391255D01*
X541269Y390233D01*
X542290Y389395D01*
X543456Y388772D01*
X544720Y388388D01*
X545535Y388308D01*
Y394500D01*
D02*
G37*
G36*
X518130Y389548D02*
X516687Y389358D01*
X515342Y388801D01*
X514188Y387915D01*
X513302Y386760D01*
X513065Y386189D01*
X512565D01*
X512328Y386760D01*
X511442Y387915D01*
X510288Y388801D01*
X508943Y389358D01*
X508000Y389482D01*
Y383500D01*
Y377518D01*
X508943Y377642D01*
X510288Y378199D01*
X511442Y379085D01*
X512328Y380240D01*
X512565Y380811D01*
X513065D01*
X513302Y380240D01*
X514188Y379085D01*
X515342Y378199D01*
X515581Y378100D01*
Y352186D01*
X494698Y331302D01*
X494145Y330475D01*
X493951Y329500D01*
Y323000D01*
X494145Y322024D01*
X494698Y321198D01*
X508540Y307355D01*
X509367Y306803D01*
X510343Y306609D01*
X514047D01*
Y305205D01*
X518348D01*
X535355Y288198D01*
X536182Y287645D01*
X537157Y287451D01*
X548444D01*
X549127Y286768D01*
X548862Y286326D01*
X547921Y286612D01*
X547106Y286692D01*
Y280500D01*
X553298D01*
X553218Y281315D01*
X552933Y282256D01*
X553375Y282521D01*
X557698Y278198D01*
X558525Y277645D01*
X559500Y277451D01*
X561551D01*
Y273291D01*
X574968D01*
Y286709D01*
X570809D01*
Y315291D01*
X574968D01*
Y328709D01*
X561551D01*
Y315291D01*
X565711D01*
Y286709D01*
X561551D01*
Y282549D01*
X560556D01*
X551302Y291802D01*
X550476Y292355D01*
X549500Y292549D01*
X538213D01*
X521953Y308809D01*
Y313110D01*
X514047D01*
Y311706D01*
X511398D01*
X499049Y324056D01*
Y328444D01*
X519932Y349327D01*
X520485Y350154D01*
X520679Y351130D01*
Y378100D01*
X520918Y378199D01*
X522072Y379085D01*
X522958Y380240D01*
X523515Y381585D01*
X523705Y383028D01*
Y383972D01*
X523515Y385415D01*
X522958Y386760D01*
X522072Y387915D01*
X520918Y388801D01*
X519573Y389358D01*
X518130Y389548D01*
D02*
G37*
G36*
X596429Y403324D02*
X594805Y403164D01*
X593244Y402690D01*
X591805Y401921D01*
X590544Y400886D01*
X589508Y399624D01*
X588739Y398185D01*
X588266Y396624D01*
X588106Y395000D01*
X588266Y393376D01*
X588739Y391815D01*
X589508Y390376D01*
X590544Y389114D01*
X591805Y388079D01*
X593244Y387310D01*
X594805Y386836D01*
X596429Y386677D01*
X598053Y386836D01*
X599614Y387310D01*
X601053Y388079D01*
X602315Y389114D01*
X603350Y390376D01*
X604119Y391815D01*
X604593Y393376D01*
X604753Y395000D01*
X604593Y396624D01*
X604119Y398185D01*
X603350Y399624D01*
X602315Y400886D01*
X601053Y401921D01*
X599614Y402690D01*
X598053Y403164D01*
X596429Y403324D01*
D02*
G37*
G36*
X394500Y414552D02*
X393391Y414406D01*
X392358Y413978D01*
X391470Y413297D01*
X390789Y412410D01*
X390361Y411377D01*
X390215Y410268D01*
X390361Y409159D01*
X390789Y408125D01*
X391470Y407238D01*
X392358Y406557D01*
X392971Y406303D01*
Y397854D01*
X392504Y397496D01*
X391943Y396765D01*
X391590Y395914D01*
X391470Y395000D01*
X391590Y394086D01*
X391943Y393235D01*
X392504Y392504D01*
X393235Y391943D01*
X394086Y391590D01*
X395000Y391470D01*
X395914Y391590D01*
X396765Y391943D01*
X397496Y392504D01*
X398057Y393235D01*
X398410Y394086D01*
X398530Y395000D01*
X398410Y395914D01*
X398057Y396765D01*
X397496Y397496D01*
X396765Y398057D01*
X396029Y398362D01*
Y406303D01*
X396642Y406557D01*
X397530Y407238D01*
X398211Y408125D01*
X398639Y409159D01*
X398785Y410268D01*
X398639Y411377D01*
X398211Y412410D01*
X397530Y413297D01*
X396642Y413978D01*
X395609Y414406D01*
X394500Y414552D01*
D02*
G37*
G36*
X545535Y401692D02*
X544720Y401612D01*
X543456Y401228D01*
X542290Y400605D01*
X541269Y399767D01*
X540430Y398745D01*
X539807Y397580D01*
X539424Y396315D01*
X539344Y395500D01*
X545535D01*
Y401692D01*
D02*
G37*
G36*
X546535D02*
Y395500D01*
X552727D01*
X552647Y396315D01*
X552263Y397580D01*
X551640Y398745D01*
X550802Y399767D01*
X549781Y400605D01*
X548615Y401228D01*
X547351Y401612D01*
X546535Y401692D01*
D02*
G37*
G36*
X435000Y398530D02*
X434086Y398410D01*
X433235Y398057D01*
X432504Y397496D01*
X431943Y396765D01*
X431590Y395914D01*
X431470Y395000D01*
X431590Y394086D01*
X431943Y393235D01*
X432504Y392504D01*
X433235Y391943D01*
X434086Y391590D01*
X435000Y391470D01*
X435914Y391590D01*
X436765Y391943D01*
X437496Y392504D01*
X438057Y393235D01*
X438410Y394086D01*
X438530Y395000D01*
X438410Y395914D01*
X438057Y396765D01*
X437496Y397496D01*
X436765Y398057D01*
X435914Y398410D01*
X435000Y398530D01*
D02*
G37*
G36*
X467000D02*
X466086Y398410D01*
X465235Y398057D01*
X464504Y397496D01*
X463943Y396765D01*
X463590Y395914D01*
X463470Y395000D01*
X463590Y394086D01*
X463943Y393235D01*
X464504Y392504D01*
X465235Y391943D01*
X466086Y391590D01*
X467000Y391470D01*
X467914Y391590D01*
X468765Y391943D01*
X469496Y392504D01*
X470057Y393235D01*
X470410Y394086D01*
X470530Y395000D01*
X470410Y395914D01*
X470057Y396765D01*
X469496Y397496D01*
X468765Y398057D01*
X467914Y398410D01*
X467000Y398530D01*
D02*
G37*
%LPD*%
G36*
X398471Y379366D02*
Y375634D01*
X397847Y375010D01*
X392533D01*
X392029Y374909D01*
X391529Y375156D01*
Y385000D01*
X391413Y385585D01*
X391148Y385982D01*
X391536Y386301D01*
X398471Y379366D01*
D02*
G37*
G36*
X388223Y369182D02*
Y360248D01*
X388339Y359663D01*
X388670Y359167D01*
X394306Y353531D01*
X394127Y353003D01*
X393391Y352906D01*
X392778Y352653D01*
X386529Y358901D01*
Y368142D01*
X387761Y369373D01*
X388223Y369182D01*
D02*
G37*
D10*
X545000Y375000D02*
D03*
X293000Y422500D02*
D03*
X194500Y411000D02*
D03*
D11*
X353740Y415000D02*
D03*
Y410000D02*
D03*
Y405000D02*
D03*
Y400000D02*
D03*
X375000Y405000D02*
D03*
Y415000D02*
D03*
Y410000D02*
D03*
Y400000D02*
D03*
X353740Y375000D02*
D03*
Y370000D02*
D03*
Y365000D02*
D03*
Y360000D02*
D03*
X375000Y365000D02*
D03*
Y375000D02*
D03*
Y370000D02*
D03*
Y360000D02*
D03*
D12*
X172000Y362000D02*
D03*
X156500Y342500D02*
D03*
D13*
X119500D02*
D03*
D14*
X567500Y434311D02*
X568189Y435000D01*
X546260Y375000D02*
X567500Y396240D01*
X443543Y471457D02*
Y475000D01*
X288500Y418000D02*
X293000Y422500D01*
X258000Y418000D02*
X288500D01*
X417437Y253500D02*
X435000Y271063D01*
X335500Y409500D02*
Y410768D01*
X409157Y321500D02*
X435000Y295657D01*
X403500Y321500D02*
X409157D01*
X400000Y325000D02*
X403500Y321500D01*
X385000Y358268D02*
Y368775D01*
X389752Y360248D02*
X400000Y350000D01*
X467000Y405000D02*
X467768Y405768D01*
X194500Y409500D02*
Y411000D01*
X192500Y407500D02*
X194500Y409500D01*
X400000Y375000D02*
Y380000D01*
X375000Y405000D02*
X400000Y380000D01*
X345768Y350000D02*
Y358965D01*
X375000Y415000D02*
X385000D01*
X345768Y380768D02*
X375000Y410000D01*
Y400000D02*
X380000Y395000D01*
X385000Y358268D02*
X394500Y348768D01*
X375000Y365000D02*
X380000Y360000D01*
Y355000D02*
Y360000D01*
Y355000D02*
X395000Y340000D01*
X400000D01*
Y350000D01*
X315000Y369232D02*
X315768D01*
X325000Y360000D02*
X344732D01*
X345768D02*
Y380768D01*
X344732Y360000D02*
X345768Y358965D01*
X315000Y410768D02*
X325000Y400768D01*
X380000Y390000D02*
Y395000D01*
X353740Y351260D02*
Y360000D01*
X375000Y375000D02*
Y385000D01*
Y350000D02*
Y360000D01*
X394500Y395500D02*
Y410268D01*
Y395500D02*
X395000Y395000D01*
X389752Y360248D02*
Y370699D01*
X392533Y373480D01*
X398480D02*
X400000Y375000D01*
X392533Y373480D02*
X398480D01*
X385000Y368775D02*
X390000Y373775D01*
Y385000D01*
X385000Y390000D02*
X390000Y385000D01*
X380000Y390000D02*
X385000D01*
X375000Y370000D02*
X380000D01*
X385000Y375000D01*
Y380000D01*
X290000Y365000D02*
Y375000D01*
X315768Y369232D02*
X325000Y360000D01*
X330000Y340000D02*
X380000D01*
X300000Y370000D02*
X330000Y340000D01*
X300000Y370000D02*
Y385000D01*
X290000Y395000D02*
X300000Y385000D01*
X268874Y363874D02*
X290000Y385000D01*
X261658Y356658D02*
X268874Y363874D01*
X259278Y356658D02*
X261658D01*
X175000Y272380D02*
X259278Y356658D01*
X175000Y265000D02*
Y272380D01*
X160000Y250000D02*
X175000Y265000D01*
X150000Y240000D02*
X160000D01*
X115232Y324768D02*
Y326000D01*
Y324768D02*
X129000Y311000D01*
X268874Y352500D02*
Y363874D01*
X295657Y385000D02*
X300000D01*
X291657Y389000D02*
X295657Y385000D01*
X258268Y389000D02*
X291657D01*
X236500Y410768D02*
X258268Y389000D01*
X236500Y350500D02*
Y369232D01*
X223500Y337500D02*
X236500Y350500D01*
X203815Y337500D02*
Y357047D01*
X172000Y362000D02*
Y366768D01*
X156500Y342500D02*
X189268D01*
X203815Y357047D01*
X394500Y368732D02*
X397248Y371480D01*
X399309D01*
X432828Y405000D01*
X435000D01*
X174579Y407500D02*
X192500D01*
X545000Y375000D02*
X546260D01*
X105000Y328000D02*
X119500Y342500D01*
X105000Y250000D02*
Y328000D01*
Y250000D02*
X115000Y240000D01*
X150000D01*
X344732Y360000D02*
X345768D01*
X335500Y369232D02*
X344732Y360000D01*
X470000Y265000D02*
X480000D01*
X203815Y357047D02*
X216000Y369232D01*
X172000Y366768D02*
X216000Y410768D01*
X435000Y271063D02*
Y295657D01*
X400000Y325000D02*
Y340000D01*
X405000Y330000D02*
X470000Y265000D01*
X449141Y253500D02*
X450641Y255000D01*
X409437Y253500D02*
X417437D01*
X449141D01*
D15*
X361043Y473957D02*
X385000Y450000D01*
X278543Y475000D02*
X303543Y450000D01*
X198543Y475000D02*
X223543Y450000D01*
X303543D01*
X385000D01*
X490768D02*
X525768Y415000D01*
X387087Y450000D02*
X465000D01*
X443543Y471457D02*
X465000Y450000D01*
X490768D01*
X567500Y396240D02*
Y434311D01*
D16*
X215000Y255000D02*
X260000Y300000D01*
X335000Y275000D02*
X355000Y255000D01*
X467000Y405000D02*
X480000D01*
X493000Y243000D02*
Y315000D01*
X471685Y336315D02*
X493000Y315000D01*
X469500Y336315D02*
X471685D01*
X559500Y280000D02*
X568260D01*
X549500Y290000D02*
X559500Y280000D01*
X537157Y290000D02*
X549500D01*
X518000Y309157D02*
X537157Y290000D01*
X568260Y280000D02*
Y322000D01*
X510343Y309157D02*
X518000D01*
X496500Y323000D02*
X510343Y309157D01*
X496500Y323000D02*
Y329500D01*
X518130Y351130D01*
Y383500D01*
X335000Y275000D02*
Y300000D01*
X484232Y409232D02*
Y415000D01*
X480000Y405000D02*
X484232Y409232D01*
X260000Y300000D02*
X335000D01*
X370000Y320000D02*
X380000Y310000D01*
X335000Y300000D02*
X350000D01*
X370000Y320000D01*
X380000Y258000D02*
Y310000D01*
Y258000D02*
X398000Y240000D01*
X490000D01*
X493000Y243000D01*
D17*
X496870Y383500D02*
Y411130D01*
X484500Y423500D02*
X496870Y411130D01*
X354000Y423500D02*
X484500D01*
X345000Y400000D02*
Y414500D01*
X354000Y423500D01*
X345000Y400000D02*
X353740D01*
D18*
X525768Y415000D02*
D03*
X484232D02*
D03*
X216000Y369232D02*
D03*
Y410768D02*
D03*
X394500Y348768D02*
D03*
Y307232D02*
D03*
Y368732D02*
D03*
Y410268D02*
D03*
X315000Y369232D02*
D03*
Y410768D02*
D03*
X335500Y369232D02*
D03*
Y410768D02*
D03*
X236500Y369232D02*
D03*
Y410768D02*
D03*
X304232Y350000D02*
D03*
X345768D02*
D03*
X115232Y326000D02*
D03*
X156768D02*
D03*
D19*
X597000Y280000D02*
D03*
Y322000D02*
D03*
X596929Y353000D02*
D03*
X595929Y435000D02*
D03*
X596429Y395000D02*
D03*
X119000Y444000D02*
D03*
D20*
X568260Y280000D02*
D03*
Y322000D02*
D03*
X568189Y353000D02*
D03*
X567189Y435000D02*
D03*
X567689Y395000D02*
D03*
X147740Y444000D02*
D03*
D21*
X546606Y280000D02*
D03*
Y322000D02*
D03*
X546535Y353000D02*
D03*
X545535Y435000D02*
D03*
X546035Y395000D02*
D03*
X169394Y444000D02*
D03*
D22*
X487957Y473500D02*
D03*
X466500D02*
D03*
X405000Y474000D02*
D03*
X383543D02*
D03*
X322957D02*
D03*
X301500D02*
D03*
X243500Y472000D02*
D03*
X222043D02*
D03*
D23*
X445043Y473500D02*
D03*
X362087Y474000D02*
D03*
X280043D02*
D03*
X200587Y472000D02*
D03*
D24*
X309500Y255658D02*
D03*
X263000Y256658D02*
D03*
X215000D02*
D03*
X469500Y336315D02*
D03*
X355000Y255315D02*
D03*
X518000Y309157D02*
D03*
D25*
X309500Y275342D02*
D03*
X263000Y276343D02*
D03*
X215000D02*
D03*
X469500Y356000D02*
D03*
X355000Y275000D02*
D03*
X518000Y328842D02*
D03*
X203815Y337500D02*
D03*
D26*
X496870Y383500D02*
D03*
X507500D02*
D03*
X518130D02*
D03*
D27*
X174579Y407500D02*
D03*
X116705Y407500D02*
D03*
X154500Y407500D02*
D03*
X136784D02*
D03*
D28*
X126500Y262000D02*
D03*
X589000Y251500D02*
D03*
X594000Y478500D02*
D03*
X121000Y479000D02*
D03*
D29*
X151000Y358000D02*
D03*
X124000D02*
D03*
D30*
X401563Y253500D02*
D03*
X261000Y352500D02*
D03*
D31*
X409437Y253500D02*
D03*
X268874Y352500D02*
D03*
D32*
X223500Y337500D02*
D03*
D33*
X129000Y311000D02*
D03*
Y301000D02*
D03*
D34*
X160000Y250000D02*
D03*
Y240000D02*
D03*
Y260000D02*
D03*
X480000Y255000D02*
D03*
Y245000D02*
D03*
Y265000D02*
D03*
X450641Y255000D02*
D03*
Y245000D02*
D03*
Y265000D02*
D03*
X290000Y395000D02*
D03*
Y385000D02*
D03*
Y375000D02*
D03*
X258000Y405000D02*
D03*
Y395000D02*
D03*
Y385000D02*
D03*
Y375000D02*
D03*
X435000Y405000D02*
D03*
Y395000D02*
D03*
Y385000D02*
D03*
X467000Y415000D02*
D03*
Y405000D02*
D03*
Y395000D02*
D03*
Y385000D02*
D03*
X385000Y415000D02*
D03*
X345000Y400000D02*
D03*
X380000Y390000D02*
D03*
X325000Y400000D02*
D03*
X353740Y351260D02*
D03*
X375000Y385000D02*
D03*
Y350000D02*
D03*
X395000Y395000D02*
D03*
X385000Y380000D02*
D03*
X258000Y418000D02*
D03*
X290000Y365000D02*
D03*
X405000Y330000D02*
D03*
X380000Y340000D02*
D03*
X150000Y260000D02*
D03*
Y240000D02*
D03*
D35*
X290000Y405000D02*
D03*
X435000Y415000D02*
D03*
D36*
X370000Y320000D02*
D03*
X290000D02*
D03*
M02*
