M48
;Layer_Color=9474304
;FILE_FORMAT=2:5
INCH,LZ
;TYPE=PLATED
T1F00S00C0.02500
T2F00S00C0.02800
T3F00S00C0.03000
T4F00S00C0.03150
T5F00S00C0.03346
T6F00S00C0.03543
T7F00S00C0.03937
T8F00S00C0.05118
T9F00S00C0.05512
T10F00S00C0.07480
T11F00S00C0.10630
T12F00S00C0.12598
T13F00S00C0.17598
%
T01
X0258Y0375
Y0385
Y0395
Y0405
X029
Y0395
Y0385
Y0375
X0435Y0385
Y0395
Y0405
Y0415
X0467
Y0405
Y0395
Y0385
T02
X0415Y031
X015Y026
Y024
X029Y0365
X0258Y0418
X0325Y04
X0345
X0375Y0385
X038Y039
X0385Y038
X0395Y0395
X0385Y0415
X0375Y035
X038Y034
X0405Y033
X035374Y035126
T03
X048Y0245
Y0255
Y0265
X0450641
Y0255
Y0245
X016Y024
Y025
Y026
T04
X0401563Y02535
X0409437
X0129Y0301
Y0311
X0261Y03525
X0268874
T05
X029Y032
X037
T06
X0469185Y031
X05365Y0311157
X0355Y0275
Y0255315
X03095Y0255658
Y0275342
X0263Y0276343
Y0256658
X0215
Y0276343
X02235Y03375
X0203815
X0469185Y0329685
X05365Y0330842
T07
X03945Y0307232
X0115232Y0326
X0156768
X0216Y0369232
X02365
Y0410768
X0216
X0304232Y035
X0315Y0369232
X03355
X0345768Y035
X03945Y0348768
Y0368732
Y0410268
X03355Y0410768
X0315
X0484232Y0415
X0525768
T08
X0487957Y04735
X04665
X0445043
X0405Y0474
X0383543
X0362087
X0322957
X03015
X0280043
X02435Y0472
X0222043
X0200587
T09
X049687Y03835
X05075
X051813
T10
X0124Y0358
X0151
X014774Y0444
X0169394
X0545535Y0435
X0567189
X0567689Y0395
X0546035
T11
X0116705Y04075
X0136784Y04075
X01545
X0174579Y04075
T12
X0119Y0444
X0595929Y0435
X0596429Y0395
T13
X0589Y02515
X01265Y0262
X0594Y04785
X0121Y0479
M30
