M48
;Layer_Color=9474304
;FILE_FORMAT=2:5
INCH,LZ
;TYPE=PLATED
T1F00S00C0.02500
T2F00S00C0.02756
T3F00S00C0.02800
T4F00S00C0.03000
T5F00S00C0.03150
T6F00S00C0.03346
T7F00S00C0.03543
T8F00S00C0.03937
T9F00S00C0.05118
T10F00S00C0.05512
T11F00S00C0.06693
T12F00S00C0.07480
T13F00S00C0.10630
T14F00S00C0.12598
T15F00S00C0.17598
%
T01
X0258Y0375
Y0385
Y0395
Y0405
X029
Y0395
Y0385
Y0375
X0435Y0385
Y0395
Y0405
Y0415
X0467
Y0405
Y0395
Y0385
T02
X0355Y0255
Y0285
X0285
Y0255
X0215
Y0285
X0455Y0315
Y0345
X052
Y0315
X0585
Y0345
T03
X0415Y031
X015Y026
Y024
X029Y0365
X0258Y0418
X0325Y04
X0345
X0375Y0385
X038Y039
X0385Y038
X0395Y0395
X0385Y0415
X0375Y035
X038Y034
X0405Y033
X035374Y035126
T04
X048Y0245
Y0255
Y0265
X045
Y0255
Y0245
X016Y024
Y025
Y026
T05
X0426063Y027
X0433937
X0129Y0301
Y0311
X0261Y03525
X0268874
T06
X029Y032
X037
T07
X0203815Y03375
X02235
T08
X03945Y0307232
X0115232Y0326
X0156768
X0216Y0369232
X02365
Y0410768
X0216
X0304232Y035
X0315Y0369232
X03355
X0345768Y035
X03945Y0348768
Y0368732
Y0410268
X03355Y0410768
X0315
X0484232Y0415
X0525768
T09
X0486457Y0475
X0465
X0443543
X0405
X0383543
X0362087
X0321457
X03
X0278543
X0241457
X022
X0198543
T10
X049587Y03855
X05065
X051713
T11
X0124Y0358
X0151
T12
X014774Y0444
X0169394
X0545535Y0435
X0567189
X0567689Y0395
X0546035
T13
X0116705Y04075
X0136784Y04075
X01545
X0174579Y04075
T14
X0119Y0444
X0595929Y0435
X0596429Y0395
T15
X0589Y02515
X01265Y0262
X0594Y04785
X0121Y0479
M30
