G04 Layer_Color=8388736*
%FSLAX25Y25*%
%MOIN*%
G70*
G01*
G75*
%ADD40R,0.04343X0.02572*%
%ADD41C,0.03800*%
%ADD42R,0.11824X0.11824*%
%ADD43R,0.09461X0.11800*%
%ADD44C,0.06312*%
%ADD45C,0.05800*%
%ADD46R,0.05800X0.05800*%
%ADD47C,0.04737*%
%ADD48C,0.07099*%
%ADD49C,0.07296*%
%ADD50C,0.05524*%
%ADD51R,0.05524X0.05524*%
%ADD52C,0.06706*%
%ADD53R,0.06706X0.06706*%
%ADD54R,0.06115X0.06115*%
%ADD55C,0.06115*%
%ADD56C,0.07800*%
%ADD57C,0.35524*%
%ADD58R,0.12611X0.16548*%
%ADD59O,0.12611X0.16548*%
%ADD60C,0.12217*%
%ADD61R,0.12217X0.12217*%
%ADD62C,0.15367*%
%ADD63C,0.16248*%
%ADD64O,0.09855X0.10800*%
D40*
X375000Y360000D02*
D03*
Y370000D02*
D03*
Y375000D02*
D03*
Y365000D02*
D03*
X353740Y360000D02*
D03*
Y365000D02*
D03*
Y370000D02*
D03*
Y375000D02*
D03*
X375000Y400000D02*
D03*
Y410000D02*
D03*
Y415000D02*
D03*
Y405000D02*
D03*
X353740Y400000D02*
D03*
Y405000D02*
D03*
Y410000D02*
D03*
Y415000D02*
D03*
D41*
X194500Y411000D02*
D03*
X293000Y422500D02*
D03*
X545000Y375000D02*
D03*
D42*
X156500Y342500D02*
D03*
X172000Y362000D02*
D03*
D43*
X119500Y342500D02*
D03*
D44*
X290000Y320000D02*
D03*
X370000D02*
D03*
D45*
X467000Y385000D02*
D03*
Y395000D02*
D03*
Y405000D02*
D03*
Y415000D02*
D03*
X435000Y385000D02*
D03*
Y395000D02*
D03*
Y405000D02*
D03*
X258000Y375000D02*
D03*
Y385000D02*
D03*
Y395000D02*
D03*
Y405000D02*
D03*
X290000Y375000D02*
D03*
Y385000D02*
D03*
Y395000D02*
D03*
X415000Y310000D02*
D03*
X150000Y240000D02*
D03*
Y260000D02*
D03*
X380000Y340000D02*
D03*
X405000Y330000D02*
D03*
X290000Y365000D02*
D03*
X258000Y418000D02*
D03*
X385000Y380000D02*
D03*
X395000Y395000D02*
D03*
X375000Y350000D02*
D03*
Y385000D02*
D03*
X353740Y351260D02*
D03*
X325000Y400000D02*
D03*
X380000Y390000D02*
D03*
X345000Y400000D02*
D03*
X385000Y415000D02*
D03*
D46*
X435000D02*
D03*
X290000Y405000D02*
D03*
D47*
X450000Y260000D02*
D03*
Y240000D02*
D03*
Y250000D02*
D03*
X480000Y260000D02*
D03*
Y240000D02*
D03*
Y250000D02*
D03*
X160000Y260000D02*
D03*
Y240000D02*
D03*
Y250000D02*
D03*
D48*
X129000Y301000D02*
D03*
Y311000D02*
D03*
D49*
X156768Y326000D02*
D03*
X115232D02*
D03*
X345768Y350000D02*
D03*
X304232D02*
D03*
X236500Y410768D02*
D03*
Y369232D02*
D03*
X335500Y410768D02*
D03*
Y369232D02*
D03*
X315000Y410768D02*
D03*
Y369232D02*
D03*
X394500Y410268D02*
D03*
Y368732D02*
D03*
X484232Y415000D02*
D03*
X525768D02*
D03*
X394500Y307232D02*
D03*
Y348768D02*
D03*
X216000Y410768D02*
D03*
Y369232D02*
D03*
D50*
X355000Y285000D02*
D03*
X285000D02*
D03*
X215000D02*
D03*
X585000Y315000D02*
D03*
X520000D02*
D03*
X455000D02*
D03*
D51*
X355000Y255000D02*
D03*
X285000D02*
D03*
X215000D02*
D03*
X585000Y345000D02*
D03*
X520000D02*
D03*
X455000D02*
D03*
D52*
X203815Y337500D02*
D03*
D53*
X223500D02*
D03*
D54*
X268874Y352500D02*
D03*
X428937Y240000D02*
D03*
D55*
X261000Y352500D02*
D03*
X421063Y240000D02*
D03*
D56*
X124000Y358000D02*
D03*
X151000D02*
D03*
D57*
X121000Y479000D02*
D03*
X594000Y478500D02*
D03*
X589000Y251500D02*
D03*
X126500Y262000D02*
D03*
D58*
X278543Y475000D02*
D03*
X198543D02*
D03*
X362087D02*
D03*
X443543D02*
D03*
D59*
X300000D02*
D03*
X321457D02*
D03*
X220000D02*
D03*
X241457D02*
D03*
X383543D02*
D03*
X405000D02*
D03*
X465000D02*
D03*
X486457D02*
D03*
D60*
X169394Y444000D02*
D03*
X544606Y395000D02*
D03*
X546535Y435000D02*
D03*
D61*
X147740Y444000D02*
D03*
X566260Y395000D02*
D03*
X568189Y435000D02*
D03*
D62*
X119000Y444000D02*
D03*
X595000Y395000D02*
D03*
X596929Y435000D02*
D03*
D63*
X136784Y407500D02*
D03*
X154500D02*
D03*
X116705Y407500D02*
D03*
X174579Y407500D02*
D03*
D64*
X517130Y385500D02*
D03*
X506500D02*
D03*
X495870D02*
D03*
M02*
