G04 Layer_Physical_Order=1*
G04 Layer_Color=255*
%FSLAX25Y25*%
%MOIN*%
G70*
G01*
G75*
%ADD10R,0.03543X0.01772*%
%ADD11C,0.03000*%
%ADD12R,0.11024X0.11024*%
%ADD13R,0.08661X0.11000*%
%ADD14C,0.01000*%
%ADD15C,0.05512*%
%ADD16C,0.05000*%
%ADD17R,0.05000X0.05000*%
%ADD18C,0.03937*%
%ADD19C,0.06299*%
%ADD20C,0.06496*%
%ADD21C,0.04724*%
%ADD22R,0.04724X0.04724*%
%ADD23C,0.05906*%
%ADD24R,0.05906X0.05906*%
%ADD25R,0.05315X0.05315*%
%ADD26C,0.05315*%
%ADD27C,0.07000*%
%ADD28C,0.34724*%
%ADD29R,0.11811X0.15748*%
%ADD30O,0.11811X0.15748*%
%ADD31C,0.11417*%
%ADD32R,0.11417X0.11417*%
%ADD33C,0.14567*%
%ADD34C,0.15748*%
%ADD35O,0.09055X0.10000*%
G36*
X615000Y225000D02*
X100000D01*
Y500000D01*
X615000D01*
Y225000D01*
D02*
G37*
%LPC*%
G36*
X353240Y361886D02*
X350969D01*
Y360500D01*
X353240D01*
Y361886D01*
D02*
G37*
G36*
X151000Y362539D02*
X149825Y362384D01*
X148731Y361931D01*
X147791Y361209D01*
X147069Y360269D01*
X146616Y359175D01*
X146461Y358000D01*
X146616Y356825D01*
X147069Y355731D01*
X147791Y354791D01*
X148731Y354069D01*
X149825Y353616D01*
X151000Y353461D01*
X152175Y353616D01*
X153269Y354069D01*
X154209Y354791D01*
X154931Y355731D01*
X155384Y356825D01*
X155539Y358000D01*
X155384Y359175D01*
X154931Y360269D01*
X154209Y361209D01*
X153269Y361931D01*
X152175Y362384D01*
X151000Y362539D01*
D02*
G37*
G36*
X124000D02*
X122825Y362384D01*
X121731Y361931D01*
X120791Y361209D01*
X120069Y360269D01*
X119616Y359175D01*
X119461Y358000D01*
X119616Y356825D01*
X120069Y355731D01*
X120791Y354791D01*
X121731Y354069D01*
X122825Y353616D01*
X124000Y353461D01*
X125175Y353616D01*
X126269Y354069D01*
X127209Y354791D01*
X127931Y355731D01*
X128384Y356825D01*
X128539Y358000D01*
X128384Y359175D01*
X127931Y360269D01*
X127209Y361209D01*
X126269Y361931D01*
X125175Y362384D01*
X124000Y362539D01*
D02*
G37*
G36*
X356512Y366886D02*
X350969D01*
Y363114D01*
X356512D01*
Y366886D01*
D02*
G37*
G36*
X290000Y378530D02*
X289086Y378410D01*
X288235Y378057D01*
X287504Y377496D01*
X286943Y376765D01*
X286590Y375914D01*
X286470Y375000D01*
X286590Y374086D01*
X286943Y373235D01*
X287504Y372504D01*
X288235Y371943D01*
X288471Y371845D01*
Y368155D01*
X288235Y368057D01*
X287504Y367496D01*
X286943Y366765D01*
X286590Y365914D01*
X286470Y365000D01*
X286590Y364086D01*
X286943Y363235D01*
X287504Y362504D01*
X288235Y361943D01*
X289086Y361590D01*
X290000Y361470D01*
X290914Y361590D01*
X291765Y361943D01*
X292496Y362504D01*
X293057Y363235D01*
X293410Y364086D01*
X293530Y365000D01*
X293410Y365914D01*
X293057Y366765D01*
X292496Y367496D01*
X291765Y368057D01*
X291529Y368155D01*
Y371845D01*
X291765Y371943D01*
X292496Y372504D01*
X293057Y373235D01*
X293410Y374086D01*
X293530Y375000D01*
X293410Y375914D01*
X293057Y376765D01*
X292496Y377496D01*
X291765Y378057D01*
X290914Y378410D01*
X290000Y378530D01*
D02*
G37*
G36*
X356512Y361886D02*
X354240D01*
Y360500D01*
X356512D01*
Y361886D01*
D02*
G37*
G36*
X454500Y348362D02*
X451638D01*
Y345500D01*
X454500D01*
Y348362D01*
D02*
G37*
G36*
X588362D02*
X581638D01*
Y341638D01*
X588362D01*
Y348362D01*
D02*
G37*
G36*
X523362Y344500D02*
X520500D01*
Y341638D01*
X523362D01*
Y344500D01*
D02*
G37*
G36*
X357205Y350760D02*
X354240D01*
Y347796D01*
X354654Y347850D01*
X355505Y348203D01*
X356236Y348764D01*
X356797Y349495D01*
X357150Y350346D01*
X357205Y350760D01*
D02*
G37*
G36*
X304232Y354285D02*
X303123Y354139D01*
X302090Y353711D01*
X301203Y353030D01*
X300522Y352142D01*
X300094Y351109D01*
X299948Y350000D01*
X300094Y348891D01*
X300522Y347858D01*
X301203Y346970D01*
X302090Y346289D01*
X303123Y345861D01*
X304232Y345715D01*
X305341Y345861D01*
X306375Y346289D01*
X307262Y346970D01*
X307943Y347858D01*
X308371Y348891D01*
X308517Y350000D01*
X308371Y351109D01*
X307943Y352142D01*
X307262Y353030D01*
X306375Y353711D01*
X305341Y354139D01*
X304232Y354285D01*
D02*
G37*
G36*
X523362Y348362D02*
X520500D01*
Y345500D01*
X523362D01*
Y348362D01*
D02*
G37*
G36*
X517130Y391548D02*
X515687Y391358D01*
X514342Y390801D01*
X513188Y389915D01*
X512302Y388760D01*
X512065Y388189D01*
X511565D01*
X511328Y388760D01*
X510442Y389915D01*
X509288Y390801D01*
X507943Y391358D01*
X506500Y391548D01*
X505057Y391358D01*
X503712Y390801D01*
X502558Y389915D01*
X501672Y388760D01*
X501435Y388189D01*
X500935D01*
X500698Y388760D01*
X499812Y389915D01*
X498658Y390801D01*
X497313Y391358D01*
X496370Y391482D01*
Y385500D01*
X495870D01*
Y385000D01*
X490298D01*
X490485Y383585D01*
X491042Y382240D01*
X491928Y381085D01*
X493082Y380199D01*
X494341Y379678D01*
Y369130D01*
X494457Y368545D01*
X494789Y368049D01*
X515846Y346991D01*
X515654Y346529D01*
X458362D01*
Y348362D01*
X455500D01*
Y345000D01*
Y341638D01*
X458362D01*
Y343471D01*
X516638D01*
Y341638D01*
X519500D01*
Y345000D01*
Y348362D01*
X518801D01*
X497400Y369763D01*
Y379678D01*
X498658Y380199D01*
X499812Y381085D01*
X500698Y382240D01*
X500935Y382811D01*
X501435D01*
X501672Y382240D01*
X502558Y381085D01*
X503712Y380199D01*
X505057Y379642D01*
X506500Y379452D01*
X507943Y379642D01*
X509288Y380199D01*
X510442Y381085D01*
X511328Y382240D01*
X511565Y382811D01*
X512065D01*
X512302Y382240D01*
X513188Y381085D01*
X514342Y380199D01*
X515687Y379642D01*
X517130Y379452D01*
X518573Y379642D01*
X519918Y380199D01*
X521072Y381085D01*
X521958Y382240D01*
X522515Y383585D01*
X522705Y385028D01*
Y385972D01*
X522515Y387415D01*
X521958Y388760D01*
X521072Y389915D01*
X519918Y390801D01*
X518573Y391358D01*
X517130Y391548D01*
D02*
G37*
G36*
X595000Y403324D02*
X593376Y403164D01*
X591815Y402690D01*
X590376Y401921D01*
X589114Y400886D01*
X588079Y399624D01*
X587310Y398185D01*
X586836Y396624D01*
X586677Y395000D01*
X586836Y393376D01*
X587310Y391815D01*
X588079Y390376D01*
X589114Y389114D01*
X590376Y388079D01*
X591815Y387310D01*
X593376Y386836D01*
X595000Y386677D01*
X596624Y386836D01*
X598185Y387310D01*
X599624Y388079D01*
X600886Y389114D01*
X601921Y390376D01*
X602690Y391815D01*
X603164Y393376D01*
X603324Y395000D01*
X603164Y396624D01*
X602690Y398185D01*
X601921Y399624D01*
X600886Y400886D01*
X599624Y401921D01*
X598185Y402690D01*
X596624Y403164D01*
X595000Y403324D01*
D02*
G37*
G36*
X467000Y388530D02*
X466086Y388410D01*
X465235Y388057D01*
X464504Y387496D01*
X463943Y386765D01*
X463845Y386529D01*
X438155D01*
X438057Y386765D01*
X437496Y387496D01*
X436765Y388057D01*
X435914Y388410D01*
X435000Y388530D01*
X434086Y388410D01*
X433235Y388057D01*
X432504Y387496D01*
X431943Y386765D01*
X431590Y385914D01*
X431470Y385000D01*
X431590Y384086D01*
X431943Y383235D01*
X432504Y382504D01*
X433235Y381943D01*
X434086Y381590D01*
X435000Y381470D01*
X435914Y381590D01*
X436765Y381943D01*
X437496Y382504D01*
X438057Y383235D01*
X438155Y383471D01*
X463845D01*
X463943Y383235D01*
X464504Y382504D01*
X465235Y381943D01*
X466086Y381590D01*
X467000Y381470D01*
X467914Y381590D01*
X468765Y381943D01*
X469496Y382504D01*
X470057Y383235D01*
X470410Y384086D01*
X470530Y385000D01*
X470410Y385914D01*
X470057Y386765D01*
X469496Y387496D01*
X468765Y388057D01*
X467914Y388410D01*
X467000Y388530D01*
D02*
G37*
G36*
X394500Y414552D02*
X393391Y414406D01*
X392358Y413978D01*
X391470Y413297D01*
X390789Y412410D01*
X390361Y411377D01*
X390215Y410268D01*
X390361Y409159D01*
X390789Y408125D01*
X391470Y407238D01*
X392358Y406557D01*
X392971Y406303D01*
Y397854D01*
X392504Y397496D01*
X391943Y396765D01*
X391697Y396173D01*
X391128Y396035D01*
X381081Y406081D01*
X380585Y406413D01*
X380000Y406529D01*
X377772D01*
Y406886D01*
X374702D01*
X374511Y407348D01*
X375277Y408114D01*
X377772D01*
Y411886D01*
X372228D01*
Y409391D01*
X344686Y381849D01*
X344355Y381353D01*
X344238Y380768D01*
Y363310D01*
X343776Y363119D01*
X339385Y367510D01*
X339639Y368123D01*
X339785Y369232D01*
X339639Y370341D01*
X339211Y371375D01*
X338530Y372262D01*
X337642Y372943D01*
X336609Y373371D01*
X335500Y373517D01*
X334391Y373371D01*
X333358Y372943D01*
X332470Y372262D01*
X331789Y371375D01*
X331361Y370341D01*
X331215Y369232D01*
X331361Y368123D01*
X331789Y367090D01*
X332470Y366203D01*
X333358Y365522D01*
X334391Y365094D01*
X335500Y364948D01*
X336609Y365094D01*
X337222Y365348D01*
X340578Y361991D01*
X340387Y361529D01*
X325634D01*
X319110Y368053D01*
X319139Y368123D01*
X319285Y369232D01*
X319139Y370341D01*
X318711Y371375D01*
X318030Y372262D01*
X317142Y372943D01*
X316109Y373371D01*
X315000Y373517D01*
X313891Y373371D01*
X312858Y372943D01*
X311970Y372262D01*
X311289Y371375D01*
X310861Y370341D01*
X310715Y369232D01*
X310861Y368123D01*
X311289Y367090D01*
X311970Y366203D01*
X312858Y365522D01*
X313891Y365094D01*
X315000Y364948D01*
X316109Y365094D01*
X317142Y365522D01*
X317240Y365597D01*
X323919Y358919D01*
X324415Y358587D01*
X325000Y358471D01*
X344099D01*
X344238Y358331D01*
Y353964D01*
X343625Y353711D01*
X342738Y353030D01*
X342057Y352142D01*
X341629Y351109D01*
X341483Y350000D01*
X341629Y348891D01*
X342057Y347858D01*
X342738Y346970D01*
X343625Y346289D01*
X344659Y345861D01*
X345768Y345715D01*
X346877Y345861D01*
X347910Y346289D01*
X348797Y346970D01*
X349478Y347858D01*
X349906Y348891D01*
X350024Y349780D01*
X350537Y349848D01*
X350683Y349495D01*
X351244Y348764D01*
X351975Y348203D01*
X352826Y347850D01*
X353240Y347796D01*
Y351260D01*
X353740D01*
Y351760D01*
X357205D01*
X357150Y352173D01*
X356797Y353025D01*
X356236Y353756D01*
X355505Y354317D01*
X355270Y354415D01*
Y358114D01*
X356512D01*
Y359500D01*
X353740D01*
X350969D01*
Y358114D01*
X352211D01*
Y354415D01*
X351975Y354317D01*
X351244Y353756D01*
X350683Y353025D01*
X350330Y352173D01*
X350252Y351581D01*
X349739Y351513D01*
X349478Y352142D01*
X348797Y353030D01*
X347910Y353711D01*
X347297Y353964D01*
Y358965D01*
X347194Y359482D01*
X347297Y360000D01*
Y380134D01*
X371766Y404603D01*
X372228Y404412D01*
Y403114D01*
X377772D01*
Y403471D01*
X379366D01*
X389471Y393367D01*
Y393343D01*
X389587Y392758D01*
X389919Y392262D01*
X392262Y389919D01*
X392758Y389587D01*
X393343Y389471D01*
X393367D01*
X398471Y384366D01*
Y375634D01*
X397847Y375010D01*
X392533D01*
X392029Y374909D01*
X391529Y375156D01*
Y385000D01*
X391413Y385585D01*
X391081Y386081D01*
X386081Y391081D01*
X385585Y391413D01*
X385000Y391529D01*
X383155D01*
X383057Y391765D01*
X382496Y392496D01*
X381765Y393057D01*
X381529Y393155D01*
Y395000D01*
X381413Y395585D01*
X381081Y396081D01*
X377772Y399391D01*
Y401886D01*
X372228D01*
Y398114D01*
X374723D01*
X378471Y394367D01*
Y393155D01*
X378235Y393057D01*
X377504Y392496D01*
X376943Y391765D01*
X376590Y390914D01*
X376470Y390000D01*
X376590Y389086D01*
X376798Y388585D01*
X376415Y388202D01*
X375914Y388410D01*
X375000Y388530D01*
X374086Y388410D01*
X373235Y388057D01*
X372504Y387496D01*
X371943Y386765D01*
X371590Y385914D01*
X371470Y385000D01*
X371590Y384086D01*
X371943Y383235D01*
X372504Y382504D01*
X373235Y381943D01*
X373471Y381845D01*
Y376886D01*
X372228D01*
Y373114D01*
X377772D01*
Y376886D01*
X376529D01*
Y381845D01*
X376765Y381943D01*
X377496Y382504D01*
X378057Y383235D01*
X378410Y384086D01*
X378530Y385000D01*
X378410Y385914D01*
X378202Y386415D01*
X378585Y386798D01*
X379086Y386590D01*
X380000Y386470D01*
X380914Y386590D01*
X381765Y386943D01*
X382496Y387504D01*
X383057Y388235D01*
X383155Y388471D01*
X384366D01*
X388471Y384366D01*
Y382007D01*
X387971Y381878D01*
X387496Y382496D01*
X386765Y383057D01*
X385914Y383410D01*
X385000Y383530D01*
X384086Y383410D01*
X383235Y383057D01*
X382504Y382496D01*
X381943Y381765D01*
X381590Y380914D01*
X381470Y380000D01*
X381590Y379086D01*
X381943Y378235D01*
X382504Y377504D01*
X383235Y376943D01*
X383471Y376845D01*
Y375634D01*
X379366Y371529D01*
X377772D01*
Y371886D01*
X372228D01*
Y368114D01*
X377772D01*
Y368471D01*
X380000D01*
X380585Y368587D01*
X381081Y368919D01*
X386081Y373919D01*
X386413Y374415D01*
X386529Y375000D01*
Y376845D01*
X386765Y376943D01*
X387496Y377504D01*
X387971Y378122D01*
X388471Y377993D01*
Y374409D01*
X386670Y372609D01*
X386339Y372113D01*
X386223Y371527D01*
Y370557D01*
X383919Y368253D01*
X383587Y367757D01*
X383471Y367172D01*
Y358268D01*
X383587Y357682D01*
X383919Y357186D01*
X390615Y350490D01*
X390361Y349877D01*
X390215Y348768D01*
X390361Y347659D01*
X390467Y347403D01*
X390043Y347119D01*
X381529Y355633D01*
Y360000D01*
X381413Y360585D01*
X381081Y361081D01*
X377772Y364391D01*
Y366886D01*
X372228D01*
Y363114D01*
X374723D01*
X375489Y362348D01*
X375298Y361886D01*
X372228D01*
Y358114D01*
X373471D01*
Y353155D01*
X373235Y353057D01*
X372504Y352496D01*
X371943Y351765D01*
X371590Y350914D01*
X371470Y350000D01*
X371590Y349086D01*
X371943Y348235D01*
X372504Y347504D01*
X373235Y346943D01*
X374086Y346590D01*
X375000Y346470D01*
X375914Y346590D01*
X376765Y346943D01*
X377496Y347504D01*
X378057Y348235D01*
X378410Y349086D01*
X378530Y350000D01*
X378410Y350914D01*
X378057Y351765D01*
X377496Y352496D01*
X376765Y353057D01*
X376529Y353155D01*
Y358114D01*
X377772D01*
Y359093D01*
X378272Y359340D01*
X378471Y359187D01*
Y355000D01*
X378587Y354415D01*
X378919Y353919D01*
X393919Y338919D01*
X394415Y338587D01*
X395000Y338471D01*
X398471D01*
Y325000D01*
X398587Y324415D01*
X398919Y323919D01*
X408919Y313919D01*
X409415Y313587D01*
X410000Y313471D01*
X412993D01*
X413122Y312971D01*
X412504Y312496D01*
X411943Y311765D01*
X411590Y310914D01*
X411470Y310000D01*
X411590Y309086D01*
X411943Y308235D01*
X412504Y307504D01*
X413235Y306943D01*
X413471Y306845D01*
Y275634D01*
X409367Y271529D01*
X356529D01*
Y279538D01*
X356413Y280123D01*
X356081Y280620D01*
X355481Y281220D01*
X355642Y281693D01*
X355878Y281724D01*
X356696Y282063D01*
X357398Y282602D01*
X357937Y283304D01*
X358276Y284122D01*
X358391Y285000D01*
X358276Y285878D01*
X357937Y286696D01*
X357398Y287398D01*
X356696Y287937D01*
X355878Y288276D01*
X355000Y288391D01*
X354122Y288276D01*
X353304Y287937D01*
X352602Y287398D01*
X352063Y286696D01*
X351803Y286067D01*
X351262Y285900D01*
X339154Y298009D01*
X339346Y298471D01*
X350000D01*
X350585Y298587D01*
X351081Y298919D01*
X368655Y316492D01*
X369020Y316341D01*
X370000Y316212D01*
X370981Y316341D01*
X371894Y316719D01*
X372679Y317321D01*
X373281Y318106D01*
X373659Y319020D01*
X373788Y320000D01*
X373659Y320981D01*
X373281Y321894D01*
X372679Y322679D01*
X371894Y323281D01*
X370981Y323659D01*
X370000Y323788D01*
X369020Y323659D01*
X368106Y323281D01*
X367321Y322679D01*
X366719Y321894D01*
X366341Y320981D01*
X366212Y320000D01*
X366341Y319020D01*
X366492Y318655D01*
X349366Y301529D01*
X260000D01*
X259415Y301413D01*
X258919Y301081D01*
X216199Y258362D01*
X211638D01*
Y251638D01*
X218362D01*
Y256199D01*
X260633Y298471D01*
X305654D01*
X305846Y298009D01*
X283919Y276081D01*
X283587Y275585D01*
X283471Y275000D01*
Y258362D01*
X281638D01*
Y251638D01*
X288362D01*
Y258362D01*
X286529D01*
Y274366D01*
X310633Y298471D01*
X334366D01*
X349651Y283186D01*
X349725Y282815D01*
X350056Y282319D01*
X353471Y278905D01*
Y270000D01*
Y258362D01*
X351638D01*
Y251638D01*
X358362D01*
Y258362D01*
X356529D01*
Y268471D01*
X410000D01*
X410585Y268587D01*
X411081Y268919D01*
X416081Y273919D01*
X416413Y274415D01*
X416529Y275000D01*
Y306845D01*
X416765Y306943D01*
X417022Y307140D01*
X417471Y306919D01*
Y291000D01*
X417587Y290415D01*
X417919Y289919D01*
X433471Y274366D01*
Y246696D01*
X430432Y243657D01*
X425280D01*
Y236343D01*
X432594D01*
Y241495D01*
X436081Y244982D01*
X436413Y245478D01*
X436529Y246063D01*
Y270654D01*
X436991Y270846D01*
X447103Y260735D01*
X447006Y260000D01*
X447108Y259225D01*
X447407Y258503D01*
X447883Y257883D01*
X448503Y257407D01*
X449225Y257108D01*
X450000Y257006D01*
X450775Y257108D01*
X451497Y257407D01*
X452117Y257883D01*
X452593Y258503D01*
X452892Y259225D01*
X452994Y260000D01*
X452892Y260775D01*
X452593Y261497D01*
X452117Y262117D01*
X451497Y262593D01*
X450775Y262892D01*
X450000Y262994D01*
X449265Y262897D01*
X436081Y276081D01*
X420529Y291634D01*
Y311601D01*
X420661Y311706D01*
X421004Y311833D01*
X473919Y258919D01*
X474415Y258587D01*
X475000Y258471D01*
X477432D01*
X477883Y257883D01*
X478503Y257407D01*
X479225Y257108D01*
X480000Y257006D01*
X480775Y257108D01*
X481497Y257407D01*
X482117Y257883D01*
X482593Y258503D01*
X482892Y259225D01*
X482994Y260000D01*
X482892Y260775D01*
X482593Y261497D01*
X482117Y262117D01*
X481497Y262593D01*
X480775Y262892D01*
X480000Y262994D01*
X479225Y262892D01*
X478503Y262593D01*
X477883Y262117D01*
X477432Y261529D01*
X475633D01*
X408312Y328851D01*
X408410Y329086D01*
X408530Y330000D01*
X408410Y330914D01*
X408057Y331765D01*
X407496Y332496D01*
X406765Y333057D01*
X405914Y333410D01*
X405000Y333530D01*
X404086Y333410D01*
X403235Y333057D01*
X402504Y332496D01*
X402029Y331878D01*
X401529Y332007D01*
Y340000D01*
Y350000D01*
X401413Y350585D01*
X401081Y351081D01*
X391529Y360633D01*
Y365092D01*
X391978Y365313D01*
X392358Y365022D01*
X393391Y364594D01*
X394500Y364448D01*
X395609Y364594D01*
X396642Y365022D01*
X397530Y365703D01*
X398211Y366590D01*
X398639Y367623D01*
X398785Y368732D01*
X398690Y369451D01*
X399109Y369951D01*
X399309D01*
X399894Y370067D01*
X400390Y370399D01*
X432496Y402504D01*
X432504Y402504D01*
X433235Y401943D01*
X434086Y401590D01*
X435000Y401470D01*
X435914Y401590D01*
X436765Y401943D01*
X437496Y402504D01*
X438057Y403235D01*
X438410Y404086D01*
X438530Y405000D01*
X438410Y405914D01*
X438057Y406765D01*
X437496Y407496D01*
X436765Y408057D01*
X435914Y408410D01*
X435000Y408530D01*
X434086Y408410D01*
X433235Y408057D01*
X432504Y407496D01*
X431943Y406765D01*
X431598Y405932D01*
X401991Y376326D01*
X401529Y376517D01*
Y385000D01*
X401413Y385585D01*
X401081Y386081D01*
X396035Y391128D01*
X396173Y391697D01*
X396765Y391943D01*
X397496Y392504D01*
X398057Y393235D01*
X398410Y394086D01*
X398530Y395000D01*
X398410Y395914D01*
X398057Y396765D01*
X397496Y397496D01*
X396765Y398057D01*
X396029Y398362D01*
Y406303D01*
X396642Y406557D01*
X397530Y407238D01*
X398211Y408125D01*
X398639Y409159D01*
X398785Y410268D01*
X398639Y411377D01*
X398211Y412410D01*
X397530Y413297D01*
X396642Y413978D01*
X395609Y414406D01*
X394500Y414552D01*
D02*
G37*
G36*
X435000Y398530D02*
X434086Y398410D01*
X433235Y398057D01*
X432504Y397496D01*
X431943Y396765D01*
X431590Y395914D01*
X431470Y395000D01*
X431590Y394086D01*
X431943Y393235D01*
X432504Y392504D01*
X433235Y391943D01*
X434086Y391590D01*
X435000Y391470D01*
X435914Y391590D01*
X436765Y391943D01*
X437496Y392504D01*
X438057Y393235D01*
X438410Y394086D01*
X438530Y395000D01*
X438410Y395914D01*
X438057Y396765D01*
X437496Y397496D01*
X436765Y398057D01*
X435914Y398410D01*
X435000Y398530D01*
D02*
G37*
G36*
X544606Y401741D02*
X543291Y401612D01*
X542027Y401228D01*
X540861Y400605D01*
X539840Y399767D01*
X539001Y398745D01*
X538378Y397580D01*
X537995Y396315D01*
X537865Y395000D01*
X537995Y393685D01*
X538378Y392420D01*
X539001Y391255D01*
X539840Y390233D01*
X540861Y389395D01*
X542027Y388772D01*
X543291Y388388D01*
X544606Y388259D01*
X545921Y388388D01*
X547186Y388772D01*
X548351Y389395D01*
X549373Y390233D01*
X550211Y391255D01*
X550834Y392420D01*
X551218Y393685D01*
X551347Y395000D01*
X551218Y396315D01*
X550834Y397580D01*
X550211Y398745D01*
X549373Y399767D01*
X548351Y400605D01*
X547186Y401228D01*
X545921Y401612D01*
X544606Y401741D01*
D02*
G37*
G36*
X258000Y378530D02*
X257086Y378410D01*
X256235Y378057D01*
X255504Y377496D01*
X254943Y376765D01*
X254590Y375914D01*
X254470Y375000D01*
X254590Y374086D01*
X254943Y373235D01*
X255504Y372504D01*
X256235Y371943D01*
X257086Y371590D01*
X258000Y371470D01*
X258914Y371590D01*
X259765Y371943D01*
X260496Y372504D01*
X261057Y373235D01*
X261410Y374086D01*
X261530Y375000D01*
X261410Y375914D01*
X261057Y376765D01*
X260496Y377496D01*
X259765Y378057D01*
X258914Y378410D01*
X258000Y378530D01*
D02*
G37*
G36*
X356512Y371886D02*
X350969D01*
Y368114D01*
X356512D01*
Y371886D01*
D02*
G37*
G36*
X216000Y373517D02*
X214891Y373371D01*
X213858Y372943D01*
X212970Y372262D01*
X212289Y371375D01*
X211861Y370341D01*
X211715Y369232D01*
X211861Y368123D01*
X212115Y367510D01*
X202733Y358129D01*
X188634Y344029D01*
X163012D01*
Y349012D01*
X149988D01*
Y335988D01*
X163012D01*
Y340971D01*
X189268D01*
X189853Y341087D01*
X190349Y341419D01*
X201824Y352893D01*
X202286Y352702D01*
Y341145D01*
X201821Y340953D01*
X200996Y340319D01*
X200362Y339493D01*
X199964Y338532D01*
X199828Y337500D01*
X199964Y336468D01*
X200362Y335507D01*
X200996Y334681D01*
X201821Y334047D01*
X202783Y333649D01*
X203815Y333513D01*
X204847Y333649D01*
X205808Y334047D01*
X206634Y334681D01*
X207268Y335507D01*
X207666Y336468D01*
X207802Y337500D01*
X207666Y338532D01*
X207268Y339493D01*
X206634Y340319D01*
X205808Y340953D01*
X205344Y341145D01*
Y356414D01*
X214278Y365348D01*
X214891Y365094D01*
X216000Y364948D01*
X217109Y365094D01*
X218142Y365522D01*
X219030Y366203D01*
X219711Y367090D01*
X220139Y368123D01*
X220285Y369232D01*
X220139Y370341D01*
X219711Y371375D01*
X219030Y372262D01*
X218142Y372943D01*
X217109Y373371D01*
X216000Y373517D01*
D02*
G37*
G36*
X495370Y391482D02*
X494427Y391358D01*
X493082Y390801D01*
X491928Y389915D01*
X491042Y388760D01*
X490485Y387415D01*
X490298Y386000D01*
X495370D01*
Y391482D01*
D02*
G37*
G36*
X574898Y441709D02*
X561480D01*
Y428291D01*
X564730D01*
Y401709D01*
X559551D01*
Y390454D01*
X546261Y377164D01*
X545975Y377355D01*
X545000Y377549D01*
X544025Y377355D01*
X543198Y376802D01*
X542645Y375975D01*
X542451Y375000D01*
X542645Y374025D01*
X543198Y373198D01*
X544025Y372645D01*
X545000Y372451D01*
X545975Y372645D01*
X546802Y373198D01*
X547238Y373850D01*
X547341Y373919D01*
X561714Y388291D01*
X572968D01*
Y401709D01*
X567789D01*
Y428291D01*
X574898D01*
Y441709D01*
D02*
G37*
G36*
X356512Y376886D02*
X350969D01*
Y373114D01*
X356512D01*
Y376886D01*
D02*
G37*
G36*
X454500Y344500D02*
X451638D01*
Y341638D01*
X454500D01*
Y344500D01*
D02*
G37*
G36*
X150000Y263530D02*
X149086Y263410D01*
X148235Y263057D01*
X147504Y262496D01*
X146943Y261765D01*
X146590Y260914D01*
X146470Y260000D01*
X146590Y259086D01*
X146943Y258235D01*
X147504Y257504D01*
X148235Y256943D01*
X149086Y256590D01*
X150000Y256470D01*
X150914Y256590D01*
X151765Y256943D01*
X152496Y257504D01*
X153057Y258235D01*
X153155Y258471D01*
X157432D01*
X157883Y257883D01*
X158503Y257407D01*
X159225Y257108D01*
X160000Y257006D01*
X160775Y257108D01*
X161497Y257407D01*
X162117Y257883D01*
X162593Y258503D01*
X162892Y259225D01*
X162994Y260000D01*
X162892Y260775D01*
X162593Y261497D01*
X162117Y262117D01*
X161497Y262593D01*
X160775Y262892D01*
X160000Y262994D01*
X159225Y262892D01*
X158503Y262593D01*
X157883Y262117D01*
X157432Y261529D01*
X153155D01*
X153057Y261765D01*
X152496Y262496D01*
X151765Y263057D01*
X150914Y263410D01*
X150000Y263530D01*
D02*
G37*
G36*
X480000Y252994D02*
X479225Y252892D01*
X478503Y252593D01*
X477883Y252117D01*
X477407Y251497D01*
X477108Y250775D01*
X477006Y250000D01*
X477108Y249225D01*
X477407Y248503D01*
X477883Y247883D01*
X478503Y247407D01*
X479225Y247108D01*
X480000Y247006D01*
X480775Y247108D01*
X481497Y247407D01*
X482117Y247883D01*
X482593Y248503D01*
X482892Y249225D01*
X482994Y250000D01*
X482892Y250775D01*
X482593Y251497D01*
X482117Y252117D01*
X481497Y252593D01*
X480775Y252892D01*
X480000Y252994D01*
D02*
G37*
G36*
X450000D02*
X449225Y252892D01*
X448503Y252593D01*
X447883Y252117D01*
X447407Y251497D01*
X447108Y250775D01*
X447006Y250000D01*
X447108Y249225D01*
X447407Y248503D01*
X447883Y247883D01*
X448503Y247407D01*
X449225Y247108D01*
X450000Y247006D01*
X450775Y247108D01*
X451497Y247407D01*
X452117Y247883D01*
X452593Y248503D01*
X452892Y249225D01*
X452994Y250000D01*
X452892Y250775D01*
X452593Y251497D01*
X452117Y252117D01*
X451497Y252593D01*
X450775Y252892D01*
X450000Y252994D01*
D02*
G37*
G36*
X128500Y300500D02*
X124880D01*
X124957Y299917D01*
X125375Y298907D01*
X126040Y298041D01*
X126907Y297375D01*
X127917Y296957D01*
X128500Y296880D01*
Y300500D01*
D02*
G37*
G36*
X285000Y288391D02*
X284122Y288276D01*
X283304Y287937D01*
X282602Y287398D01*
X282063Y286696D01*
X281724Y285878D01*
X281609Y285000D01*
X281724Y284122D01*
X282063Y283304D01*
X282602Y282602D01*
X283304Y282063D01*
X284122Y281724D01*
X285000Y281609D01*
X285878Y281724D01*
X286696Y282063D01*
X287398Y282602D01*
X287937Y283304D01*
X288276Y284122D01*
X288391Y285000D01*
X288276Y285878D01*
X287937Y286696D01*
X287398Y287398D01*
X286696Y287937D01*
X285878Y288276D01*
X285000Y288391D01*
D02*
G37*
G36*
X215000D02*
X214122Y288276D01*
X213304Y287937D01*
X212602Y287398D01*
X212063Y286696D01*
X211724Y285878D01*
X211609Y285000D01*
X211724Y284122D01*
X212063Y283304D01*
X212602Y282602D01*
X213304Y282063D01*
X214122Y281724D01*
X215000Y281609D01*
X215878Y281724D01*
X216696Y282063D01*
X217398Y282602D01*
X217937Y283304D01*
X218276Y284122D01*
X218391Y285000D01*
X218276Y285878D01*
X217937Y286696D01*
X217398Y287398D01*
X216696Y287937D01*
X215878Y288276D01*
X215000Y288391D01*
D02*
G37*
G36*
X124831Y349000D02*
X114169D01*
Y339332D01*
X103919Y329081D01*
X103587Y328585D01*
X103471Y328000D01*
Y250000D01*
X103587Y249415D01*
X103919Y248919D01*
X113919Y238919D01*
X114415Y238587D01*
X115000Y238471D01*
X146845D01*
X146943Y238235D01*
X147504Y237504D01*
X148235Y236943D01*
X149086Y236590D01*
X150000Y236470D01*
X150914Y236590D01*
X151765Y236943D01*
X152496Y237504D01*
X153057Y238235D01*
X153155Y238471D01*
X157432D01*
X157883Y237883D01*
X158503Y237407D01*
X159225Y237108D01*
X160000Y237006D01*
X160775Y237108D01*
X161497Y237407D01*
X162117Y237883D01*
X162593Y238503D01*
X162892Y239225D01*
X162994Y240000D01*
X162892Y240775D01*
X162593Y241497D01*
X162117Y242117D01*
X161497Y242593D01*
X160775Y242892D01*
X160000Y242994D01*
X159225Y242892D01*
X158503Y242593D01*
X157883Y242117D01*
X157432Y241529D01*
X153155D01*
X153057Y241765D01*
X152496Y242496D01*
X151765Y243057D01*
X150914Y243410D01*
X150000Y243530D01*
X149086Y243410D01*
X148235Y243057D01*
X147504Y242496D01*
X146943Y241765D01*
X146845Y241529D01*
X115633D01*
X106529Y250634D01*
Y327366D01*
X115163Y336000D01*
X124831D01*
Y349000D01*
D02*
G37*
G36*
X421063Y243689D02*
X420108Y243563D01*
X419218Y243195D01*
X418454Y242609D01*
X417868Y241845D01*
X417500Y240955D01*
X417374Y240000D01*
X417500Y239045D01*
X417868Y238156D01*
X418454Y237391D01*
X419218Y236805D01*
X420108Y236437D01*
X421063Y236311D01*
X422018Y236437D01*
X422907Y236805D01*
X423672Y237391D01*
X424258Y238156D01*
X424626Y239045D01*
X424752Y240000D01*
X424626Y240955D01*
X424258Y241845D01*
X423672Y242609D01*
X422907Y243195D01*
X422018Y243563D01*
X421063Y243689D01*
D02*
G37*
G36*
X589000Y269902D02*
X586598Y269744D01*
X584237Y269275D01*
X581958Y268501D01*
X579799Y267436D01*
X577798Y266099D01*
X575988Y264512D01*
X574401Y262702D01*
X573064Y260701D01*
X571999Y258542D01*
X571225Y256263D01*
X570756Y253902D01*
X570598Y251500D01*
X570756Y249098D01*
X571225Y246737D01*
X571999Y244458D01*
X573064Y242299D01*
X574401Y240298D01*
X575988Y238488D01*
X577798Y236901D01*
X579799Y235564D01*
X581958Y234499D01*
X584237Y233725D01*
X586598Y233256D01*
X589000Y233098D01*
X591402Y233256D01*
X593763Y233725D01*
X596042Y234499D01*
X598201Y235564D01*
X600202Y236901D01*
X602012Y238488D01*
X603599Y240298D01*
X604936Y242299D01*
X606001Y244458D01*
X606775Y246737D01*
X607244Y249098D01*
X607402Y251500D01*
X607244Y253902D01*
X606775Y256263D01*
X606001Y258542D01*
X604936Y260701D01*
X603599Y262702D01*
X602012Y264512D01*
X600202Y266099D01*
X598201Y267436D01*
X596042Y268501D01*
X593763Y269275D01*
X591402Y269744D01*
X589000Y269902D01*
D02*
G37*
G36*
X126500Y280402D02*
X124098Y280244D01*
X121737Y279775D01*
X119458Y279001D01*
X117299Y277936D01*
X115298Y276599D01*
X113488Y275012D01*
X111901Y273202D01*
X110564Y271201D01*
X109499Y269042D01*
X108725Y266763D01*
X108256Y264402D01*
X108098Y262000D01*
X108256Y259598D01*
X108725Y257237D01*
X109499Y254958D01*
X110564Y252799D01*
X111901Y250798D01*
X113488Y248988D01*
X115298Y247401D01*
X117299Y246064D01*
X119458Y244999D01*
X121737Y244225D01*
X124098Y243756D01*
X126500Y243598D01*
X128902Y243756D01*
X131263Y244225D01*
X133542Y244999D01*
X135701Y246064D01*
X137702Y247401D01*
X139512Y248988D01*
X141099Y250798D01*
X142436Y252799D01*
X143501Y254958D01*
X144275Y257237D01*
X144744Y259598D01*
X144902Y262000D01*
X144744Y264402D01*
X144275Y266763D01*
X143501Y269042D01*
X142436Y271201D01*
X141099Y273202D01*
X139512Y275012D01*
X137702Y276599D01*
X135701Y277936D01*
X133542Y279001D01*
X131263Y279775D01*
X128902Y280244D01*
X126500Y280402D01*
D02*
G37*
G36*
X480000Y242994D02*
X479225Y242892D01*
X478503Y242593D01*
X477883Y242117D01*
X477407Y241497D01*
X477108Y240775D01*
X477006Y240000D01*
X477108Y239225D01*
X477407Y238503D01*
X477883Y237883D01*
X478503Y237407D01*
X479225Y237108D01*
X480000Y237006D01*
X480775Y237108D01*
X481497Y237407D01*
X482117Y237883D01*
X482593Y238503D01*
X482892Y239225D01*
X482994Y240000D01*
X482892Y240775D01*
X482593Y241497D01*
X482117Y242117D01*
X481497Y242593D01*
X480775Y242892D01*
X480000Y242994D01*
D02*
G37*
G36*
X450000D02*
X449225Y242892D01*
X448503Y242593D01*
X447883Y242117D01*
X447407Y241497D01*
X447108Y240775D01*
X447006Y240000D01*
X447108Y239225D01*
X447407Y238503D01*
X447883Y237883D01*
X448503Y237407D01*
X449225Y237108D01*
X450000Y237006D01*
X450775Y237108D01*
X451497Y237407D01*
X452117Y237883D01*
X452593Y238503D01*
X452892Y239225D01*
X452994Y240000D01*
X452892Y240775D01*
X452593Y241497D01*
X452117Y242117D01*
X451497Y242593D01*
X450775Y242892D01*
X450000Y242994D01*
D02*
G37*
G36*
X290000Y323788D02*
X289019Y323659D01*
X288106Y323281D01*
X287321Y322679D01*
X286719Y321894D01*
X286341Y320981D01*
X286212Y320000D01*
X286341Y319020D01*
X286719Y318106D01*
X287321Y317321D01*
X288106Y316719D01*
X289019Y316341D01*
X290000Y316212D01*
X290981Y316341D01*
X291894Y316719D01*
X292679Y317321D01*
X293281Y318106D01*
X293659Y319020D01*
X293788Y320000D01*
X293659Y320981D01*
X293281Y321894D01*
X292679Y322679D01*
X291894Y323281D01*
X290981Y323659D01*
X290000Y323788D01*
D02*
G37*
G36*
X585000Y318391D02*
X584122Y318276D01*
X583304Y317937D01*
X582602Y317398D01*
X582063Y316696D01*
X581724Y315878D01*
X581609Y315000D01*
X581724Y314122D01*
X582063Y313304D01*
X582602Y312602D01*
X583304Y312063D01*
X584122Y311724D01*
X585000Y311609D01*
X585878Y311724D01*
X586696Y312063D01*
X587398Y312602D01*
X587937Y313304D01*
X588276Y314122D01*
X588391Y315000D01*
X588276Y315878D01*
X587937Y316696D01*
X587398Y317398D01*
X586696Y317937D01*
X585878Y318276D01*
X585000Y318391D01*
D02*
G37*
G36*
X520000D02*
X519122Y318276D01*
X518304Y317937D01*
X517602Y317398D01*
X517063Y316696D01*
X516724Y315878D01*
X516609Y315000D01*
X516724Y314122D01*
X517063Y313304D01*
X517602Y312602D01*
X518304Y312063D01*
X519122Y311724D01*
X520000Y311609D01*
X520878Y311724D01*
X521696Y312063D01*
X522398Y312602D01*
X522937Y313304D01*
X523276Y314122D01*
X523391Y315000D01*
X523276Y315878D01*
X522937Y316696D01*
X522398Y317398D01*
X521696Y317937D01*
X520878Y318276D01*
X520000Y318391D01*
D02*
G37*
G36*
X236500Y415052D02*
X235391Y414906D01*
X234358Y414478D01*
X233470Y413797D01*
X232789Y412910D01*
X232361Y411877D01*
X232215Y410768D01*
X232361Y409659D01*
X232789Y408625D01*
X233470Y407738D01*
X234358Y407057D01*
X235391Y406629D01*
X236500Y406483D01*
X237609Y406629D01*
X238222Y406883D01*
X256491Y388614D01*
X256394Y388123D01*
X256235Y388057D01*
X255504Y387496D01*
X254943Y386765D01*
X254590Y385914D01*
X254470Y385000D01*
X254590Y384086D01*
X254943Y383235D01*
X255504Y382504D01*
X256235Y381943D01*
X257086Y381590D01*
X258000Y381470D01*
X258914Y381590D01*
X259765Y381943D01*
X260496Y382504D01*
X261057Y383235D01*
X261410Y384086D01*
X261530Y385000D01*
X261410Y385914D01*
X261057Y386765D01*
X260860Y387022D01*
X261081Y387471D01*
X286919D01*
X287140Y387022D01*
X286943Y386765D01*
X286590Y385914D01*
X286470Y385000D01*
X286590Y384086D01*
X286688Y383851D01*
X267793Y364955D01*
X261024Y358187D01*
X259278D01*
X258693Y358070D01*
X258196Y357739D01*
X173919Y273461D01*
X173587Y272965D01*
X173471Y272380D01*
Y265634D01*
X160734Y252897D01*
X160000Y252994D01*
X159225Y252892D01*
X158503Y252593D01*
X157883Y252117D01*
X157407Y251497D01*
X157108Y250775D01*
X157006Y250000D01*
X157108Y249225D01*
X157407Y248503D01*
X157883Y247883D01*
X158503Y247407D01*
X159225Y247108D01*
X160000Y247006D01*
X160775Y247108D01*
X161497Y247407D01*
X162117Y247883D01*
X162593Y248503D01*
X162892Y249225D01*
X162994Y250000D01*
X162897Y250734D01*
X176081Y263919D01*
X176413Y264415D01*
X176529Y265000D01*
Y271746D01*
X256862Y352079D01*
X257390Y351900D01*
X257437Y351545D01*
X257805Y350656D01*
X258391Y349891D01*
X259156Y349305D01*
X260045Y348937D01*
X261000Y348811D01*
X261955Y348937D01*
X262844Y349305D01*
X263609Y349891D01*
X264195Y350656D01*
X264563Y351545D01*
X264689Y352500D01*
X264563Y353455D01*
X264195Y354345D01*
X263609Y355109D01*
X263153Y355458D01*
X263120Y355957D01*
X266883Y359720D01*
X267345Y359528D01*
Y356157D01*
X265216D01*
Y348843D01*
X272532D01*
Y356157D01*
X270403D01*
Y363241D01*
X288851Y381688D01*
X289086Y381590D01*
X290000Y381470D01*
X290914Y381590D01*
X291765Y381943D01*
X292496Y382504D01*
X293057Y383235D01*
X293410Y384086D01*
X293452Y384408D01*
X293926Y384568D01*
X294575Y383919D01*
X295072Y383587D01*
X295657Y383471D01*
X298471D01*
Y370000D01*
X298587Y369415D01*
X298919Y368919D01*
X328919Y338919D01*
X329415Y338587D01*
X330000Y338471D01*
X376845D01*
X376943Y338235D01*
X377504Y337504D01*
X378235Y336943D01*
X379086Y336590D01*
X380000Y336470D01*
X380914Y336590D01*
X381765Y336943D01*
X382496Y337504D01*
X383057Y338235D01*
X383410Y339086D01*
X383530Y340000D01*
X383410Y340914D01*
X383057Y341765D01*
X382496Y342496D01*
X381765Y343057D01*
X380914Y343410D01*
X380000Y343530D01*
X379086Y343410D01*
X378235Y343057D01*
X377504Y342496D01*
X376943Y341765D01*
X376845Y341529D01*
X330633D01*
X301529Y370634D01*
Y385000D01*
X301413Y385585D01*
X301081Y386081D01*
X293312Y393851D01*
X293410Y394086D01*
X293530Y395000D01*
X293410Y395914D01*
X293057Y396765D01*
X292496Y397496D01*
X291765Y398057D01*
X290914Y398410D01*
X290000Y398530D01*
X289086Y398410D01*
X288235Y398057D01*
X287504Y397496D01*
X286943Y396765D01*
X286590Y395914D01*
X286470Y395000D01*
X286590Y394086D01*
X286943Y393235D01*
X287504Y392504D01*
X288235Y391943D01*
X289086Y391590D01*
X290000Y391470D01*
X290914Y391590D01*
X291149Y391688D01*
X291833Y391004D01*
X291706Y390661D01*
X291601Y390529D01*
X258901D01*
X258411Y391020D01*
X258590Y391547D01*
X258914Y391590D01*
X259765Y391943D01*
X260496Y392504D01*
X261057Y393235D01*
X261410Y394086D01*
X261530Y395000D01*
X261410Y395914D01*
X261057Y396765D01*
X260496Y397496D01*
X259765Y398057D01*
X258914Y398410D01*
X258000Y398530D01*
X257086Y398410D01*
X256235Y398057D01*
X255504Y397496D01*
X254943Y396765D01*
X254590Y395914D01*
X254548Y395590D01*
X254020Y395411D01*
X240385Y409046D01*
X240639Y409659D01*
X240785Y410768D01*
X240639Y411877D01*
X240211Y412910D01*
X239530Y413797D01*
X238642Y414478D01*
X237609Y414906D01*
X236500Y415052D01*
D02*
G37*
G36*
Y373517D02*
X235391Y373371D01*
X234358Y372943D01*
X233470Y372262D01*
X232789Y371375D01*
X232361Y370341D01*
X232215Y369232D01*
X232361Y368123D01*
X232789Y367090D01*
X233470Y366203D01*
X234358Y365522D01*
X234971Y365268D01*
Y351133D01*
X225290Y341453D01*
X219547D01*
Y333547D01*
X227453D01*
Y339290D01*
X237581Y349419D01*
X237913Y349915D01*
X238029Y350500D01*
Y365268D01*
X238642Y365522D01*
X239530Y366203D01*
X240211Y367090D01*
X240639Y368123D01*
X240785Y369232D01*
X240639Y370341D01*
X240211Y371375D01*
X239530Y372262D01*
X238642Y372943D01*
X237609Y373371D01*
X236500Y373517D01*
D02*
G37*
G36*
X156768Y330285D02*
X155659Y330139D01*
X154625Y329711D01*
X153738Y329030D01*
X153057Y328142D01*
X152629Y327109D01*
X152483Y326000D01*
X152629Y324891D01*
X153057Y323858D01*
X153738Y322970D01*
X154625Y322289D01*
X155659Y321861D01*
X156768Y321715D01*
X157877Y321861D01*
X158910Y322289D01*
X159797Y322970D01*
X160478Y323858D01*
X160906Y324891D01*
X161052Y326000D01*
X160906Y327109D01*
X160478Y328142D01*
X159797Y329030D01*
X158910Y329711D01*
X157877Y330139D01*
X156768Y330285D01*
D02*
G37*
G36*
X129500Y305120D02*
Y301500D01*
X133120D01*
X133043Y302083D01*
X132625Y303093D01*
X131959Y303959D01*
X131093Y304625D01*
X130083Y305043D01*
X129500Y305120D01*
D02*
G37*
G36*
X128500D02*
X127917Y305043D01*
X126907Y304625D01*
X126040Y303959D01*
X125375Y303093D01*
X124957Y302083D01*
X124880Y301500D01*
X128500D01*
Y305120D01*
D02*
G37*
G36*
X133120Y300500D02*
X129500D01*
Y296880D01*
X130083Y296957D01*
X131093Y297375D01*
X131959Y298041D01*
X132625Y298907D01*
X133043Y299917D01*
X133120Y300500D01*
D02*
G37*
G36*
X455000Y318391D02*
X454122Y318276D01*
X453304Y317937D01*
X452602Y317398D01*
X452063Y316696D01*
X451724Y315878D01*
X451609Y315000D01*
X451724Y314122D01*
X452063Y313304D01*
X452602Y312602D01*
X453304Y312063D01*
X454122Y311724D01*
X455000Y311609D01*
X455878Y311724D01*
X456696Y312063D01*
X457398Y312602D01*
X457937Y313304D01*
X458276Y314122D01*
X458391Y315000D01*
X458276Y315878D01*
X457937Y316696D01*
X457398Y317398D01*
X456696Y317937D01*
X455878Y318276D01*
X455000Y318391D01*
D02*
G37*
G36*
X115232Y330285D02*
X114123Y330139D01*
X113090Y329711D01*
X112203Y329030D01*
X111522Y328142D01*
X111094Y327109D01*
X110948Y326000D01*
X111094Y324891D01*
X111522Y323858D01*
X112203Y322970D01*
X113090Y322289D01*
X114123Y321861D01*
X115232Y321715D01*
X116018Y321819D01*
X125190Y312647D01*
X124957Y312083D01*
X124815Y311000D01*
X124957Y309917D01*
X125375Y308907D01*
X126040Y308040D01*
X126907Y307375D01*
X127917Y306957D01*
X129000Y306815D01*
X130083Y306957D01*
X131093Y307375D01*
X131959Y308040D01*
X132625Y308907D01*
X133043Y309917D01*
X133185Y311000D01*
X133043Y312083D01*
X132625Y313093D01*
X131959Y313960D01*
X131093Y314625D01*
X130083Y315043D01*
X129000Y315185D01*
X127917Y315043D01*
X127353Y314809D01*
X118666Y323497D01*
X118943Y323858D01*
X119371Y324891D01*
X119517Y326000D01*
X119371Y327109D01*
X118943Y328142D01*
X118262Y329030D01*
X117375Y329711D01*
X116341Y330139D01*
X115232Y330285D01*
D02*
G37*
G36*
X394500Y311517D02*
X393391Y311371D01*
X392358Y310943D01*
X391470Y310262D01*
X390789Y309375D01*
X390361Y308341D01*
X390215Y307232D01*
X390361Y306123D01*
X390789Y305090D01*
X391470Y304203D01*
X392358Y303522D01*
X393391Y303094D01*
X394500Y302948D01*
X395609Y303094D01*
X396642Y303522D01*
X397530Y304203D01*
X398211Y305090D01*
X398639Y306123D01*
X398785Y307232D01*
X398639Y308341D01*
X398211Y309375D01*
X397530Y310262D01*
X396642Y310943D01*
X395609Y311371D01*
X394500Y311517D01*
D02*
G37*
G36*
X293500Y424950D02*
Y423000D01*
X295449D01*
X295355Y423476D01*
X294802Y424302D01*
X293975Y424855D01*
X293500Y424950D01*
D02*
G37*
G36*
X292500D02*
X292024Y424855D01*
X291198Y424302D01*
X290645Y423476D01*
X290550Y423000D01*
X292500D01*
Y424950D01*
D02*
G37*
G36*
X295449Y422000D02*
X293500D01*
Y420050D01*
X293975Y420145D01*
X294802Y420698D01*
X295355Y421524D01*
X295449Y422000D01*
D02*
G37*
G36*
X119000Y452323D02*
X117376Y452164D01*
X115815Y451690D01*
X114376Y450921D01*
X113114Y449886D01*
X112079Y448624D01*
X111310Y447185D01*
X110836Y445624D01*
X110677Y444000D01*
X110836Y442376D01*
X111310Y440815D01*
X112079Y439376D01*
X113114Y438114D01*
X114376Y437079D01*
X115815Y436310D01*
X117376Y435836D01*
X119000Y435676D01*
X120624Y435836D01*
X122185Y436310D01*
X123624Y437079D01*
X124886Y438114D01*
X125921Y439376D01*
X126690Y440815D01*
X127164Y442376D01*
X127323Y444000D01*
X127164Y445624D01*
X126690Y447185D01*
X125921Y448624D01*
X124886Y449886D01*
X123624Y450921D01*
X122185Y451690D01*
X120624Y452164D01*
X119000Y452323D01*
D02*
G37*
G36*
X546535Y441741D02*
X545220Y441612D01*
X543956Y441228D01*
X542790Y440605D01*
X541769Y439767D01*
X540930Y438745D01*
X540307Y437580D01*
X539924Y436315D01*
X539794Y435000D01*
X539924Y433685D01*
X540307Y432420D01*
X540930Y431255D01*
X541769Y430233D01*
X542790Y429395D01*
X543956Y428772D01*
X545220Y428388D01*
X546535Y428259D01*
X547851Y428388D01*
X549115Y428772D01*
X550281Y429395D01*
X551302Y430233D01*
X552140Y431255D01*
X552763Y432420D01*
X553147Y433685D01*
X553276Y435000D01*
X553147Y436315D01*
X552763Y437580D01*
X552140Y438745D01*
X551302Y439767D01*
X550281Y440605D01*
X549115Y441228D01*
X547851Y441612D01*
X546535Y441741D01*
D02*
G37*
G36*
X596929Y443324D02*
X595305Y443164D01*
X593744Y442690D01*
X592305Y441921D01*
X591044Y440886D01*
X590008Y439624D01*
X589239Y438185D01*
X588765Y436624D01*
X588606Y435000D01*
X588765Y433376D01*
X589239Y431815D01*
X590008Y430376D01*
X591044Y429114D01*
X592305Y428079D01*
X593744Y427310D01*
X595305Y426836D01*
X596929Y426677D01*
X598553Y426836D01*
X600114Y427310D01*
X601553Y428079D01*
X602815Y429114D01*
X603850Y430376D01*
X604619Y431815D01*
X605093Y433376D01*
X605253Y435000D01*
X605093Y436624D01*
X604619Y438185D01*
X603850Y439624D01*
X602815Y440886D01*
X601553Y441921D01*
X600114Y442690D01*
X598553Y443164D01*
X596929Y443324D01*
D02*
G37*
G36*
X385000Y418530D02*
X384086Y418410D01*
X383235Y418057D01*
X382504Y417496D01*
X381943Y416765D01*
X381845Y416529D01*
X377772D01*
Y416886D01*
X372228D01*
Y413114D01*
X377772D01*
Y413471D01*
X381845D01*
X381943Y413235D01*
X382504Y412504D01*
X383235Y411943D01*
X384086Y411590D01*
X385000Y411470D01*
X385914Y411590D01*
X386765Y411943D01*
X387496Y412504D01*
X388057Y413235D01*
X388410Y414086D01*
X388530Y415000D01*
X388410Y415914D01*
X388057Y416765D01*
X387496Y417496D01*
X386765Y418057D01*
X385914Y418410D01*
X385000Y418530D01*
D02*
G37*
G36*
X261464Y417500D02*
X258500D01*
Y414536D01*
X258914Y414590D01*
X259765Y414943D01*
X260496Y415504D01*
X261057Y416235D01*
X261410Y417086D01*
X261464Y417500D01*
D02*
G37*
G36*
X257500D02*
X254536D01*
X254590Y417086D01*
X254943Y416235D01*
X255504Y415504D01*
X256235Y414943D01*
X257086Y414590D01*
X257500Y414536D01*
Y417500D01*
D02*
G37*
G36*
X292500Y422000D02*
X290550D01*
X290645Y421524D01*
X291198Y420698D01*
X292024Y420145D01*
X292500Y420050D01*
Y422000D01*
D02*
G37*
G36*
X258500Y421464D02*
Y418500D01*
X261464D01*
X261410Y418914D01*
X261057Y419765D01*
X260496Y420496D01*
X259765Y421057D01*
X258914Y421410D01*
X258500Y421464D01*
D02*
G37*
G36*
X257500D02*
X257086Y421410D01*
X256235Y421057D01*
X255504Y420496D01*
X254943Y419765D01*
X254590Y418914D01*
X254536Y418500D01*
X257500D01*
Y421464D01*
D02*
G37*
G36*
X169394Y450741D02*
X168079Y450612D01*
X166814Y450228D01*
X165649Y449605D01*
X164627Y448767D01*
X163789Y447745D01*
X163166Y446580D01*
X162782Y445315D01*
X162653Y444000D01*
X162782Y442685D01*
X163166Y441420D01*
X163789Y440255D01*
X164627Y439233D01*
X165649Y438395D01*
X166814Y437772D01*
X168079Y437388D01*
X169394Y437259D01*
X170709Y437388D01*
X171974Y437772D01*
X173139Y438395D01*
X174161Y439233D01*
X174999Y440255D01*
X175622Y441420D01*
X176005Y442685D01*
X176135Y444000D01*
X176005Y445315D01*
X175622Y446580D01*
X174999Y447745D01*
X174161Y448767D01*
X173139Y449605D01*
X171974Y450228D01*
X170709Y450612D01*
X169394Y450741D01*
D02*
G37*
G36*
X383543Y483907D02*
X382190Y483774D01*
X380888Y483379D01*
X379688Y482738D01*
X378637Y481875D01*
X377774Y480824D01*
X377133Y479624D01*
X376738Y478322D01*
X376604Y476968D01*
Y473032D01*
X376738Y471678D01*
X377133Y470376D01*
X377774Y469176D01*
X378637Y468125D01*
X379688Y467262D01*
X380888Y466621D01*
X382190Y466226D01*
X383543Y466093D01*
X384897Y466226D01*
X386199Y466621D01*
X387398Y467262D01*
X388450Y468125D01*
X389313Y469176D01*
X389954Y470376D01*
X390349Y471678D01*
X390482Y473032D01*
Y476968D01*
X390349Y478322D01*
X389954Y479624D01*
X389313Y480824D01*
X388450Y481875D01*
X387398Y482738D01*
X386199Y483379D01*
X384897Y483774D01*
X383543Y483907D01*
D02*
G37*
G36*
X321457D02*
X320103Y483774D01*
X318801Y483379D01*
X317602Y482738D01*
X316550Y481875D01*
X315687Y480824D01*
X315046Y479624D01*
X314651Y478322D01*
X314518Y476968D01*
Y473032D01*
X314651Y471678D01*
X315046Y470376D01*
X315687Y469176D01*
X316550Y468125D01*
X317602Y467262D01*
X318801Y466621D01*
X320103Y466226D01*
X321457Y466093D01*
X322810Y466226D01*
X324112Y466621D01*
X325312Y467262D01*
X326363Y468125D01*
X327226Y469176D01*
X327867Y470376D01*
X328262Y471678D01*
X328396Y473032D01*
Y476968D01*
X328262Y478322D01*
X327867Y479624D01*
X327226Y480824D01*
X326363Y481875D01*
X325312Y482738D01*
X324112Y483379D01*
X322810Y483774D01*
X321457Y483907D01*
D02*
G37*
G36*
X300000D02*
X298646Y483774D01*
X297345Y483379D01*
X296145Y482738D01*
X295093Y481875D01*
X294231Y480824D01*
X293589Y479624D01*
X293194Y478322D01*
X293061Y476968D01*
Y473032D01*
X293194Y471678D01*
X293589Y470376D01*
X294231Y469176D01*
X295093Y468125D01*
X296145Y467262D01*
X297345Y466621D01*
X298646Y466226D01*
X300000Y466093D01*
X301354Y466226D01*
X302655Y466621D01*
X303855Y467262D01*
X304907Y468125D01*
X305769Y469176D01*
X306411Y470376D01*
X306806Y471678D01*
X306939Y473032D01*
Y476968D01*
X306806Y478322D01*
X306411Y479624D01*
X305769Y480824D01*
X304907Y481875D01*
X303855Y482738D01*
X302655Y483379D01*
X301354Y483774D01*
X300000Y483907D01*
D02*
G37*
G36*
X486457D02*
X485103Y483774D01*
X483801Y483379D01*
X482602Y482738D01*
X481550Y481875D01*
X480687Y480824D01*
X480046Y479624D01*
X479651Y478322D01*
X479518Y476968D01*
Y473032D01*
X479651Y471678D01*
X480046Y470376D01*
X480687Y469176D01*
X481550Y468125D01*
X482602Y467262D01*
X483801Y466621D01*
X485103Y466226D01*
X486457Y466093D01*
X487810Y466226D01*
X489112Y466621D01*
X490312Y467262D01*
X491363Y468125D01*
X492226Y469176D01*
X492867Y470376D01*
X493262Y471678D01*
X493396Y473032D01*
Y476968D01*
X493262Y478322D01*
X492867Y479624D01*
X492226Y480824D01*
X491363Y481875D01*
X490312Y482738D01*
X489112Y483379D01*
X487810Y483774D01*
X486457Y483907D01*
D02*
G37*
G36*
X465000D02*
X463646Y483774D01*
X462345Y483379D01*
X461145Y482738D01*
X460093Y481875D01*
X459231Y480824D01*
X458589Y479624D01*
X458194Y478322D01*
X458061Y476968D01*
Y473032D01*
X458194Y471678D01*
X458589Y470376D01*
X459231Y469176D01*
X460093Y468125D01*
X461145Y467262D01*
X462345Y466621D01*
X463646Y466226D01*
X465000Y466093D01*
X466354Y466226D01*
X467655Y466621D01*
X468855Y467262D01*
X469907Y468125D01*
X470770Y469176D01*
X471411Y470376D01*
X471806Y471678D01*
X471939Y473032D01*
Y476968D01*
X471806Y478322D01*
X471411Y479624D01*
X470770Y480824D01*
X469907Y481875D01*
X468855Y482738D01*
X467655Y483379D01*
X466354Y483774D01*
X465000Y483907D01*
D02*
G37*
G36*
X405000D02*
X403646Y483774D01*
X402345Y483379D01*
X401145Y482738D01*
X400093Y481875D01*
X399231Y480824D01*
X398589Y479624D01*
X398194Y478322D01*
X398061Y476968D01*
Y473032D01*
X398194Y471678D01*
X398589Y470376D01*
X399231Y469176D01*
X400093Y468125D01*
X401145Y467262D01*
X402345Y466621D01*
X403646Y466226D01*
X405000Y466093D01*
X406354Y466226D01*
X407655Y466621D01*
X408855Y467262D01*
X409907Y468125D01*
X410770Y469176D01*
X411411Y470376D01*
X411806Y471678D01*
X411939Y473032D01*
Y476968D01*
X411806Y478322D01*
X411411Y479624D01*
X410770Y480824D01*
X409907Y481875D01*
X408855Y482738D01*
X407655Y483379D01*
X406354Y483774D01*
X405000Y483907D01*
D02*
G37*
G36*
X594000Y496902D02*
X591598Y496744D01*
X589237Y496275D01*
X586958Y495501D01*
X584799Y494436D01*
X582798Y493099D01*
X580988Y491512D01*
X579401Y489702D01*
X578064Y487701D01*
X576999Y485542D01*
X576225Y483263D01*
X575756Y480902D01*
X575598Y478500D01*
X575756Y476098D01*
X576225Y473737D01*
X576999Y471458D01*
X578064Y469299D01*
X579401Y467298D01*
X580988Y465488D01*
X582798Y463901D01*
X584799Y462564D01*
X586958Y461499D01*
X589237Y460725D01*
X591598Y460256D01*
X594000Y460098D01*
X596402Y460256D01*
X598763Y460725D01*
X601042Y461499D01*
X603201Y462564D01*
X605202Y463901D01*
X607012Y465488D01*
X608599Y467298D01*
X609936Y469299D01*
X611001Y471458D01*
X611775Y473737D01*
X612244Y476098D01*
X612402Y478500D01*
X612244Y480902D01*
X611775Y483263D01*
X611001Y485542D01*
X609936Y487701D01*
X608599Y489702D01*
X607012Y491512D01*
X605202Y493099D01*
X603201Y494436D01*
X601042Y495501D01*
X598763Y496275D01*
X596402Y496744D01*
X594000Y496902D01*
D02*
G37*
G36*
X450449Y483874D02*
X436638D01*
Y466126D01*
X446711D01*
X460846Y451991D01*
X460654Y451529D01*
X387720D01*
X368992Y470257D01*
Y483874D01*
X355181D01*
Y466126D01*
X368798D01*
X382932Y451991D01*
X382741Y451529D01*
X304177D01*
X285449Y470257D01*
Y483874D01*
X271638D01*
Y466126D01*
X285254D01*
X299389Y451991D01*
X299198Y451529D01*
X224177D01*
X205449Y470257D01*
Y483874D01*
X191638D01*
Y466126D01*
X205254D01*
X222462Y448919D01*
X222958Y448587D01*
X223543Y448471D01*
X490134D01*
X521883Y416722D01*
X521629Y416109D01*
X521483Y415000D01*
X521629Y413891D01*
X522057Y412858D01*
X522738Y411970D01*
X523625Y411289D01*
X524659Y410861D01*
X525768Y410715D01*
X526877Y410861D01*
X527910Y411289D01*
X528797Y411970D01*
X529478Y412858D01*
X529906Y413891D01*
X530052Y415000D01*
X529906Y416109D01*
X529478Y417142D01*
X528797Y418030D01*
X527910Y418711D01*
X526877Y419139D01*
X525768Y419285D01*
X524659Y419139D01*
X524046Y418885D01*
X491849Y451081D01*
X491353Y451413D01*
X490768Y451529D01*
X465633D01*
X450449Y466714D01*
Y483874D01*
D02*
G37*
G36*
X154449Y450709D02*
X141032D01*
Y437291D01*
X154449D01*
Y450709D01*
D02*
G37*
G36*
X241457Y483907D02*
X240103Y483774D01*
X238801Y483379D01*
X237602Y482738D01*
X236550Y481875D01*
X235687Y480824D01*
X235046Y479624D01*
X234651Y478322D01*
X234518Y476968D01*
Y473032D01*
X234651Y471678D01*
X235046Y470376D01*
X235687Y469176D01*
X236550Y468125D01*
X237602Y467262D01*
X238801Y466621D01*
X240103Y466226D01*
X241457Y466093D01*
X242810Y466226D01*
X244112Y466621D01*
X245312Y467262D01*
X246363Y468125D01*
X247226Y469176D01*
X247867Y470376D01*
X248262Y471678D01*
X248396Y473032D01*
Y476968D01*
X248262Y478322D01*
X247867Y479624D01*
X247226Y480824D01*
X246363Y481875D01*
X245312Y482738D01*
X244112Y483379D01*
X242810Y483774D01*
X241457Y483907D01*
D02*
G37*
G36*
X220000D02*
X218646Y483774D01*
X217345Y483379D01*
X216145Y482738D01*
X215093Y481875D01*
X214230Y480824D01*
X213589Y479624D01*
X213194Y478322D01*
X213061Y476968D01*
Y473032D01*
X213194Y471678D01*
X213589Y470376D01*
X214230Y469176D01*
X215093Y468125D01*
X216145Y467262D01*
X217345Y466621D01*
X218646Y466226D01*
X220000Y466093D01*
X221354Y466226D01*
X222655Y466621D01*
X223855Y467262D01*
X224907Y468125D01*
X225769Y469176D01*
X226411Y470376D01*
X226806Y471678D01*
X226939Y473032D01*
Y476968D01*
X226806Y478322D01*
X226411Y479624D01*
X225769Y480824D01*
X224907Y481875D01*
X223855Y482738D01*
X222655Y483379D01*
X221354Y483774D01*
X220000Y483907D01*
D02*
G37*
G36*
X121000Y497402D02*
X118598Y497244D01*
X116237Y496775D01*
X113958Y496001D01*
X111799Y494936D01*
X109798Y493599D01*
X107988Y492012D01*
X106401Y490202D01*
X105064Y488201D01*
X103999Y486042D01*
X103225Y483763D01*
X102756Y481402D01*
X102598Y479000D01*
X102756Y476598D01*
X103225Y474237D01*
X103999Y471958D01*
X105064Y469799D01*
X106401Y467798D01*
X107988Y465988D01*
X109798Y464401D01*
X111799Y463064D01*
X113958Y461999D01*
X116237Y461225D01*
X118598Y460756D01*
X121000Y460598D01*
X123402Y460756D01*
X125763Y461225D01*
X128042Y461999D01*
X130201Y463064D01*
X132202Y464401D01*
X134012Y465988D01*
X135599Y467798D01*
X136936Y469799D01*
X138001Y471958D01*
X138775Y474237D01*
X139244Y476598D01*
X139402Y479000D01*
X139244Y481402D01*
X138775Y483763D01*
X138001Y486042D01*
X136936Y488201D01*
X135599Y490202D01*
X134012Y492012D01*
X132202Y493599D01*
X130201Y494936D01*
X128042Y496001D01*
X125763Y496775D01*
X123402Y497244D01*
X121000Y497402D01*
D02*
G37*
G36*
X356512Y416886D02*
X350969D01*
Y413114D01*
X356512D01*
Y416886D01*
D02*
G37*
G36*
X261464Y404500D02*
X258500D01*
Y401536D01*
X258914Y401590D01*
X259765Y401943D01*
X260496Y402504D01*
X261057Y403235D01*
X261410Y404086D01*
X261464Y404500D01*
D02*
G37*
G36*
X257500D02*
X254536D01*
X254590Y404086D01*
X254943Y403235D01*
X255504Y402504D01*
X256235Y401943D01*
X257086Y401590D01*
X257500Y401536D01*
Y404500D01*
D02*
G37*
G36*
X293500Y408500D02*
X286500D01*
Y401500D01*
X293500D01*
Y408500D01*
D02*
G37*
G36*
X258500Y408464D02*
Y405500D01*
X261464D01*
X261410Y405914D01*
X261057Y406765D01*
X260496Y407496D01*
X259765Y408057D01*
X258914Y408410D01*
X258500Y408464D01*
D02*
G37*
G36*
X257500D02*
X257086Y408410D01*
X256235Y408057D01*
X255504Y407496D01*
X254943Y406765D01*
X254590Y405914D01*
X254536Y405500D01*
X257500D01*
Y408464D01*
D02*
G37*
G36*
X356512Y406886D02*
X350969D01*
Y403114D01*
X356512D01*
Y406886D01*
D02*
G37*
G36*
Y401886D02*
X354240D01*
Y400500D01*
X356512D01*
Y401886D01*
D02*
G37*
G36*
X345500Y403464D02*
Y400000D01*
Y396536D01*
X345914Y396590D01*
X346765Y396943D01*
X347496Y397504D01*
X348057Y398235D01*
X348155Y398471D01*
X350969D01*
Y398114D01*
X353240D01*
Y400000D01*
Y401886D01*
X350969D01*
Y401529D01*
X348155D01*
X348057Y401765D01*
X347496Y402496D01*
X346765Y403057D01*
X345914Y403410D01*
X345500Y403464D01*
D02*
G37*
G36*
X344500Y399500D02*
X341536D01*
X341590Y399086D01*
X341943Y398235D01*
X342504Y397504D01*
X343235Y396943D01*
X344086Y396590D01*
X344500Y396536D01*
Y399500D01*
D02*
G37*
G36*
X315000Y415052D02*
X313891Y414906D01*
X312858Y414478D01*
X311970Y413798D01*
X311289Y412910D01*
X310861Y411877D01*
X310715Y410768D01*
X310861Y409659D01*
X311289Y408625D01*
X311970Y407738D01*
X312858Y407057D01*
X313891Y406629D01*
X315000Y406483D01*
X316109Y406629D01*
X316722Y406883D01*
X321913Y401692D01*
X321590Y400914D01*
X321470Y400000D01*
X321590Y399086D01*
X321943Y398235D01*
X322504Y397504D01*
X323235Y396943D01*
X324086Y396590D01*
X325000Y396470D01*
X325914Y396590D01*
X326765Y396943D01*
X327496Y397504D01*
X328057Y398235D01*
X328410Y399086D01*
X328530Y400000D01*
X328410Y400914D01*
X328057Y401765D01*
X327496Y402496D01*
X326765Y403057D01*
X325914Y403410D01*
X325000Y403530D01*
X324470Y403460D01*
X318885Y409046D01*
X319139Y409659D01*
X319285Y410768D01*
X319139Y411877D01*
X318711Y412910D01*
X318030Y413798D01*
X317142Y414478D01*
X316109Y414906D01*
X315000Y415052D01*
D02*
G37*
G36*
X344500Y403464D02*
X344086Y403410D01*
X343235Y403057D01*
X342504Y402496D01*
X341943Y401765D01*
X341590Y400914D01*
X341536Y400500D01*
X344500D01*
Y403464D01*
D02*
G37*
G36*
X116705Y416417D02*
X114965Y416246D01*
X113292Y415738D01*
X111751Y414914D01*
X110399Y413805D01*
X109291Y412454D01*
X108466Y410912D01*
X107959Y409240D01*
X107788Y407500D01*
X107959Y405760D01*
X108466Y404088D01*
X109291Y402546D01*
X110399Y401195D01*
X111751Y400086D01*
X113292Y399262D01*
X114965Y398754D01*
X116705Y398583D01*
X118444Y398754D01*
X120117Y399262D01*
X121659Y400086D01*
X123010Y401195D01*
X124119Y402546D01*
X124943Y404088D01*
X125450Y405760D01*
X125622Y407500D01*
X125450Y409240D01*
X124943Y410912D01*
X124119Y412454D01*
X123010Y413805D01*
X121659Y414914D01*
X120117Y415738D01*
X118444Y416246D01*
X116705Y416417D01*
D02*
G37*
G36*
X356512Y399500D02*
X354240D01*
Y398114D01*
X356512D01*
Y399500D01*
D02*
G37*
G36*
X335000Y414987D02*
X334391Y414906D01*
X333358Y414478D01*
X332470Y413798D01*
X331789Y412910D01*
X331361Y411877D01*
X331281Y411268D01*
X335000D01*
Y414987D01*
D02*
G37*
G36*
X484232Y419285D02*
X483123Y419139D01*
X482090Y418711D01*
X481203Y418030D01*
X480522Y417142D01*
X480094Y416109D01*
X479948Y415000D01*
X480094Y413891D01*
X480347Y413278D01*
X473919Y406849D01*
X473705Y406529D01*
X470155D01*
X470057Y406765D01*
X469496Y407496D01*
X468765Y408057D01*
X467914Y408410D01*
X467000Y408530D01*
X466086Y408410D01*
X465235Y408057D01*
X464504Y407496D01*
X463943Y406765D01*
X463590Y405914D01*
X463470Y405000D01*
X463590Y404086D01*
X463943Y403235D01*
X464504Y402504D01*
X465235Y401943D01*
X466086Y401590D01*
X467000Y401470D01*
X467914Y401590D01*
X468765Y401943D01*
X469496Y402504D01*
X470057Y403235D01*
X470155Y403471D01*
X472654D01*
X472846Y403009D01*
X468149Y398312D01*
X467914Y398410D01*
X467000Y398530D01*
X466086Y398410D01*
X465235Y398057D01*
X464504Y397496D01*
X463943Y396765D01*
X463590Y395914D01*
X463470Y395000D01*
X463590Y394086D01*
X463943Y393235D01*
X464504Y392504D01*
X465235Y391943D01*
X466086Y391590D01*
X467000Y391470D01*
X467914Y391590D01*
X468765Y391943D01*
X469496Y392504D01*
X470057Y393235D01*
X470410Y394086D01*
X470530Y395000D01*
X470410Y395914D01*
X470312Y396149D01*
X476081Y401919D01*
X476413Y402415D01*
X476529Y403000D01*
Y405134D01*
X482510Y411115D01*
X483123Y410861D01*
X484232Y410715D01*
X485341Y410861D01*
X486375Y411289D01*
X487262Y411970D01*
X487943Y412858D01*
X488371Y413891D01*
X488517Y415000D01*
X488371Y416109D01*
X487943Y417142D01*
X487262Y418030D01*
X486375Y418711D01*
X485341Y419139D01*
X484232Y419285D01*
D02*
G37*
G36*
X154500Y416417D02*
X152760Y416246D01*
X151088Y415738D01*
X149546Y414914D01*
X148195Y413805D01*
X147086Y412454D01*
X146262Y410912D01*
X145903Y409729D01*
X145380D01*
X145022Y410912D01*
X144198Y412454D01*
X143089Y413805D01*
X141737Y414914D01*
X140196Y415738D01*
X138523Y416246D01*
X136784Y416417D01*
X135044Y416246D01*
X133371Y415738D01*
X131830Y414914D01*
X130478Y413805D01*
X129369Y412454D01*
X128545Y410912D01*
X128038Y409240D01*
X127866Y407500D01*
X128038Y405760D01*
X128545Y404088D01*
X129369Y402546D01*
X130478Y401195D01*
X131830Y400086D01*
X133371Y399262D01*
X135044Y398754D01*
X136784Y398583D01*
X138523Y398754D01*
X140196Y399262D01*
X141737Y400086D01*
X143089Y401195D01*
X144198Y402546D01*
X145022Y404088D01*
X145380Y405271D01*
X145903D01*
X146262Y404088D01*
X147086Y402546D01*
X148195Y401195D01*
X149546Y400086D01*
X151088Y399262D01*
X152760Y398754D01*
X154500Y398583D01*
X156240Y398754D01*
X157912Y399262D01*
X159454Y400086D01*
X160805Y401195D01*
X161914Y402546D01*
X162738Y404088D01*
X163246Y405760D01*
X163417Y407500D01*
X163246Y409240D01*
X162738Y410912D01*
X161914Y412454D01*
X160805Y413805D01*
X159454Y414914D01*
X157912Y415738D01*
X156240Y416246D01*
X154500Y416417D01*
D02*
G37*
G36*
X438500Y418500D02*
X431500D01*
Y411500D01*
X438500D01*
Y418500D01*
D02*
G37*
G36*
X467000Y418530D02*
X466086Y418410D01*
X465235Y418057D01*
X464504Y417496D01*
X463943Y416765D01*
X463590Y415914D01*
X463470Y415000D01*
X463590Y414086D01*
X463943Y413235D01*
X464504Y412504D01*
X465235Y411943D01*
X466086Y411590D01*
X467000Y411470D01*
X467914Y411590D01*
X468765Y411943D01*
X469496Y412504D01*
X470057Y413235D01*
X470410Y414086D01*
X470530Y415000D01*
X470410Y415914D01*
X470057Y416765D01*
X469496Y417496D01*
X468765Y418057D01*
X467914Y418410D01*
X467000Y418530D01*
D02*
G37*
G36*
X336000Y414987D02*
Y411268D01*
X339719D01*
X339639Y411877D01*
X339211Y412910D01*
X338530Y413798D01*
X337642Y414478D01*
X336609Y414906D01*
X336000Y414987D01*
D02*
G37*
G36*
X335000Y410268D02*
X331281D01*
X331361Y409659D01*
X331789Y408625D01*
X332470Y407738D01*
X333358Y407057D01*
X334391Y406629D01*
X335000Y406549D01*
Y410268D01*
D02*
G37*
G36*
X339719D02*
X336000D01*
Y406549D01*
X336609Y406629D01*
X337642Y407057D01*
X338530Y407738D01*
X339211Y408625D01*
X339639Y409659D01*
X339719Y410268D01*
D02*
G37*
G36*
X356512Y411886D02*
X350969D01*
Y408114D01*
X356512D01*
Y411886D01*
D02*
G37*
G36*
X216000Y415052D02*
X214891Y414906D01*
X213858Y414478D01*
X212970Y413797D01*
X212289Y412910D01*
X211861Y411877D01*
X211715Y410768D01*
X211861Y409659D01*
X212115Y409046D01*
X171581Y368512D01*
X165488D01*
Y355488D01*
X178512D01*
Y368512D01*
X176560D01*
X176369Y368974D01*
X214278Y406883D01*
X214891Y406629D01*
X216000Y406483D01*
X217109Y406629D01*
X218142Y407057D01*
X219030Y407738D01*
X219711Y408625D01*
X220139Y409659D01*
X220285Y410768D01*
X220139Y411877D01*
X219711Y412910D01*
X219030Y413797D01*
X218142Y414478D01*
X217109Y414906D01*
X216000Y415052D01*
D02*
G37*
G36*
X174579Y416417D02*
X172839Y416246D01*
X171166Y415738D01*
X169625Y414914D01*
X168273Y413805D01*
X167165Y412454D01*
X166341Y410912D01*
X165833Y409240D01*
X165662Y407500D01*
X165833Y405760D01*
X166341Y404088D01*
X167165Y402546D01*
X168273Y401195D01*
X169625Y400086D01*
X171166Y399262D01*
X172839Y398754D01*
X174579Y398583D01*
X176318Y398754D01*
X177991Y399262D01*
X179533Y400086D01*
X180884Y401195D01*
X181993Y402546D01*
X182817Y404088D01*
X183324Y405760D01*
X183345Y405971D01*
X192500D01*
X193085Y406087D01*
X193581Y406419D01*
X193913Y406915D01*
X194029Y407500D01*
Y408059D01*
X194494Y408452D01*
X194500Y408451D01*
X195475Y408645D01*
X196302Y409198D01*
X196855Y410024D01*
X197049Y411000D01*
X196855Y411975D01*
X196302Y412802D01*
X195475Y413355D01*
X194500Y413549D01*
X193525Y413355D01*
X192698Y412802D01*
X192145Y411975D01*
X191951Y411000D01*
X192015Y410678D01*
X191419Y410081D01*
X191087Y409585D01*
X190976Y409029D01*
X183345D01*
X183324Y409240D01*
X182817Y410912D01*
X181993Y412454D01*
X180884Y413805D01*
X179533Y414914D01*
X177991Y415738D01*
X176318Y416246D01*
X174579Y416417D01*
D02*
G37*
%LPD*%
G36*
X388223Y367578D02*
Y366766D01*
X388339Y366180D01*
X388471Y365983D01*
Y360000D01*
X388587Y359415D01*
X388919Y358919D01*
X394306Y353531D01*
X394127Y353003D01*
X393391Y352906D01*
X392778Y352653D01*
X386529Y358901D01*
Y366538D01*
X387761Y367769D01*
X388223Y367578D01*
D02*
G37*
G36*
X402504Y327504D02*
X403235Y326943D01*
X404086Y326590D01*
X405000Y326470D01*
X405914Y326590D01*
X406149Y326688D01*
X415833Y317004D01*
X415706Y316661D01*
X415601Y316529D01*
X410634D01*
X401529Y325634D01*
Y327993D01*
X402029Y328122D01*
X402504Y327504D01*
D02*
G37*
D10*
X375000Y360000D02*
D03*
Y370000D02*
D03*
Y375000D02*
D03*
Y365000D02*
D03*
X353740Y360000D02*
D03*
Y365000D02*
D03*
Y370000D02*
D03*
Y375000D02*
D03*
X375000Y400000D02*
D03*
Y410000D02*
D03*
Y415000D02*
D03*
Y405000D02*
D03*
X353740Y400000D02*
D03*
Y405000D02*
D03*
Y410000D02*
D03*
Y415000D02*
D03*
D11*
X194500Y411000D02*
D03*
X293000Y422500D02*
D03*
X545000Y375000D02*
D03*
D12*
X156500Y342500D02*
D03*
X172000Y362000D02*
D03*
D13*
X119500Y342500D02*
D03*
D14*
X475000Y260000D02*
X480000D01*
X150000D02*
X160000D01*
X115000Y240000D02*
X150000D01*
X105000Y250000D02*
X115000Y240000D01*
X105000Y250000D02*
Y328000D01*
X119500Y342500D01*
X566260Y395000D02*
Y433071D01*
X568189Y435000D01*
X546260Y375000D02*
X566260Y395000D01*
X545000Y375000D02*
X546260D01*
X415657Y315000D02*
X419000Y311657D01*
X410000Y315000D02*
X415657D01*
X400000Y325000D02*
X410000Y315000D01*
X400000Y325000D02*
Y340000D01*
X419000Y291000D02*
Y311657D01*
Y291000D02*
X435000Y275000D01*
X415000D02*
Y310000D01*
X410000Y270000D02*
X415000Y275000D01*
X405000Y330000D02*
X475000Y260000D01*
X355000Y270000D02*
Y279538D01*
Y255000D02*
Y270000D01*
X410000D01*
X428937Y240000D02*
X435000Y246063D01*
Y275000D01*
X335000Y300000D02*
X350000D01*
X310000D02*
X335000D01*
X351138Y283862D01*
Y283400D02*
Y283862D01*
Y283400D02*
X355000Y279538D01*
X260000Y300000D02*
X310000D01*
X285000Y275000D02*
X310000Y300000D01*
X285000Y255000D02*
Y275000D01*
X215000Y255000D02*
X260000Y300000D01*
X350000D02*
X370000Y320000D01*
X192500Y409000D02*
X194500Y411000D01*
X192500Y407500D02*
Y409000D01*
X174579Y407500D02*
X192500D01*
X223543Y450000D02*
X303543D01*
X198543Y475000D02*
X223543Y450000D01*
X278543Y475000D02*
X303543Y450000D01*
X465000D02*
X490768D01*
X443543Y471457D02*
Y475000D01*
Y471457D02*
X465000Y450000D01*
X387087D02*
X465000D01*
X303543D02*
X387087D01*
X362087Y475000D02*
X387087Y450000D01*
X490768D02*
X525768Y415000D01*
X475000Y405768D02*
X484232Y415000D01*
X475000Y405000D02*
Y405768D01*
X467000Y395000D02*
X475000Y403000D01*
Y405000D01*
X467000D02*
X475000D01*
X432828D02*
X435000D01*
Y385000D02*
X467000D01*
X399309Y371480D02*
X432828Y405000D01*
X397248Y371480D02*
X399309D01*
X394500Y368732D02*
X397248Y371480D01*
X189268Y342500D02*
X203815Y357047D01*
X156500Y342500D02*
X189268D01*
X172000Y362000D02*
Y366768D01*
X216000Y410768D01*
X203815Y357047D02*
X216000Y369232D01*
X203815Y337500D02*
Y357047D01*
X223500Y337500D02*
X236500Y350500D01*
Y369232D01*
Y410768D02*
X258268Y389000D01*
X291657D01*
X295657Y385000D01*
X300000D01*
X268874Y352500D02*
Y363874D01*
X115232Y324768D02*
X129000Y311000D01*
X115232Y324768D02*
Y326000D01*
X150000Y240000D02*
X160000D01*
Y250000D02*
X175000Y265000D01*
Y272380D01*
X259278Y356658D01*
X261658D01*
X268874Y363874D01*
X290000Y385000D01*
Y395000D02*
X300000Y385000D01*
Y370000D02*
Y385000D01*
Y370000D02*
X330000Y340000D01*
X380000D01*
X315768Y369232D02*
X325000Y360000D01*
X290000Y365000D02*
Y375000D01*
X385000D02*
Y380000D01*
X380000Y370000D02*
X385000Y375000D01*
X375000Y370000D02*
X380000D01*
Y390000D02*
X385000D01*
X390000Y385000D01*
Y373775D02*
Y385000D01*
X387752Y371527D02*
X390000Y373775D01*
X387752Y369923D02*
Y371527D01*
X385000Y367172D02*
X387752Y369923D01*
X392533Y373480D02*
X398480D01*
X389752Y366766D02*
X390000Y366518D01*
X398480Y373480D02*
X400000Y375000D01*
X380000Y405000D02*
X391000Y394000D01*
Y393343D02*
Y394000D01*
Y393343D02*
X393343Y391000D01*
X394000D01*
X400000Y385000D01*
X389752Y370699D02*
X392533Y373480D01*
X389752Y366766D02*
Y370699D01*
X400000Y375000D02*
Y385000D01*
X385000Y358268D02*
Y367172D01*
X394500Y395500D02*
X395000Y395000D01*
X394500Y395500D02*
Y410268D01*
X375000Y350000D02*
Y360000D01*
X435000Y275000D02*
X450000Y260000D01*
X375000Y375000D02*
Y385000D01*
X353740Y351260D02*
Y360000D01*
X380000Y390000D02*
Y395000D01*
X315000Y410768D02*
X325000Y400768D01*
X344732Y360000D02*
X345768Y358965D01*
X335500Y369232D02*
X344732Y360000D01*
X345768D02*
Y380768D01*
X344732Y360000D02*
X345768D01*
X325000D02*
X344732D01*
X315000Y369232D02*
X315768D01*
X428937Y240000D02*
X430000D01*
X400000Y340000D02*
Y350000D01*
X395000Y340000D02*
X400000D01*
X380000Y355000D02*
X395000Y340000D01*
X380000Y355000D02*
Y360000D01*
X375000Y365000D02*
X380000Y360000D01*
X385000Y358268D02*
X394500Y348768D01*
X390000Y360000D02*
Y366518D01*
Y360000D02*
X400000Y350000D01*
X375000Y405000D02*
X380000D01*
X375000Y400000D02*
X380000Y395000D01*
X345768Y380768D02*
X375000Y410000D01*
X345000Y400000D02*
X353740D01*
X375000Y415000D02*
X385000D01*
X345768Y350000D02*
Y358965D01*
X335500Y409500D02*
Y410768D01*
X495870Y369130D02*
Y385500D01*
Y369130D02*
X520000Y345000D01*
X455000D02*
X520000D01*
D15*
X290000Y320000D02*
D03*
X370000D02*
D03*
D16*
X467000Y385000D02*
D03*
Y395000D02*
D03*
Y405000D02*
D03*
Y415000D02*
D03*
X435000Y385000D02*
D03*
Y395000D02*
D03*
Y405000D02*
D03*
X258000Y375000D02*
D03*
Y385000D02*
D03*
Y395000D02*
D03*
Y405000D02*
D03*
X290000Y375000D02*
D03*
Y385000D02*
D03*
Y395000D02*
D03*
X415000Y310000D02*
D03*
X150000Y240000D02*
D03*
Y260000D02*
D03*
X380000Y340000D02*
D03*
X405000Y330000D02*
D03*
X290000Y365000D02*
D03*
X258000Y418000D02*
D03*
X385000Y380000D02*
D03*
X395000Y395000D02*
D03*
X375000Y350000D02*
D03*
Y385000D02*
D03*
X353740Y351260D02*
D03*
X325000Y400000D02*
D03*
X380000Y390000D02*
D03*
X345000Y400000D02*
D03*
X385000Y415000D02*
D03*
D17*
X435000D02*
D03*
X290000Y405000D02*
D03*
D18*
X450000Y260000D02*
D03*
Y240000D02*
D03*
Y250000D02*
D03*
X480000Y260000D02*
D03*
Y240000D02*
D03*
Y250000D02*
D03*
X160000Y260000D02*
D03*
Y240000D02*
D03*
Y250000D02*
D03*
D19*
X129000Y301000D02*
D03*
Y311000D02*
D03*
D20*
X156768Y326000D02*
D03*
X115232D02*
D03*
X345768Y350000D02*
D03*
X304232D02*
D03*
X236500Y410768D02*
D03*
Y369232D02*
D03*
X335500Y410768D02*
D03*
Y369232D02*
D03*
X315000Y410768D02*
D03*
Y369232D02*
D03*
X394500Y410268D02*
D03*
Y368732D02*
D03*
X484232Y415000D02*
D03*
X525768D02*
D03*
X394500Y307232D02*
D03*
Y348768D02*
D03*
X216000Y410768D02*
D03*
Y369232D02*
D03*
D21*
X355000Y285000D02*
D03*
X285000D02*
D03*
X215000D02*
D03*
X585000Y315000D02*
D03*
X520000D02*
D03*
X455000D02*
D03*
D22*
X355000Y255000D02*
D03*
X285000D02*
D03*
X215000D02*
D03*
X585000Y345000D02*
D03*
X520000D02*
D03*
X455000D02*
D03*
D23*
X203815Y337500D02*
D03*
D24*
X223500D02*
D03*
D25*
X268874Y352500D02*
D03*
X428937Y240000D02*
D03*
D26*
X261000Y352500D02*
D03*
X421063Y240000D02*
D03*
D27*
X124000Y358000D02*
D03*
X151000D02*
D03*
D28*
X121000Y479000D02*
D03*
X594000Y478500D02*
D03*
X589000Y251500D02*
D03*
X126500Y262000D02*
D03*
D29*
X278543Y475000D02*
D03*
X198543D02*
D03*
X362087D02*
D03*
X443543D02*
D03*
D30*
X300000D02*
D03*
X321457D02*
D03*
X220000D02*
D03*
X241457D02*
D03*
X383543D02*
D03*
X405000D02*
D03*
X465000D02*
D03*
X486457D02*
D03*
D31*
X169394Y444000D02*
D03*
X544606Y395000D02*
D03*
X546535Y435000D02*
D03*
D32*
X147740Y444000D02*
D03*
X566260Y395000D02*
D03*
X568189Y435000D02*
D03*
D33*
X119000Y444000D02*
D03*
X595000Y395000D02*
D03*
X596929Y435000D02*
D03*
D34*
X136784Y407500D02*
D03*
X154500D02*
D03*
X116705Y407500D02*
D03*
X174579Y407500D02*
D03*
D35*
X517130Y385500D02*
D03*
X506500D02*
D03*
X495870D02*
D03*
M02*
